%TF.GenerationSoftware,KiCad,Pcbnew,8.0.2*%
%TF.CreationDate,2024-07-11T10:11:00+02:00*%
%TF.ProjectId,HomeAssistant,486f6d65-4173-4736-9973-74616e742e6b,0.1*%
%TF.SameCoordinates,Original*%
%TF.FileFunction,Soldermask,Bot*%
%TF.FilePolarity,Negative*%
%FSLAX46Y46*%
G04 Gerber Fmt 4.6, Leading zero omitted, Abs format (unit mm)*
G04 Created by KiCad (PCBNEW 8.0.2) date 2024-07-11 10:11:00*
%MOMM*%
%LPD*%
G01*
G04 APERTURE LIST*
G04 Aperture macros list*
%AMRoundRect*
0 Rectangle with rounded corners*
0 $1 Rounding radius*
0 $2 $3 $4 $5 $6 $7 $8 $9 X,Y pos of 4 corners*
0 Add a 4 corners polygon primitive as box body*
4,1,4,$2,$3,$4,$5,$6,$7,$8,$9,$2,$3,0*
0 Add four circle primitives for the rounded corners*
1,1,$1+$1,$2,$3*
1,1,$1+$1,$4,$5*
1,1,$1+$1,$6,$7*
1,1,$1+$1,$8,$9*
0 Add four rect primitives between the rounded corners*
20,1,$1+$1,$2,$3,$4,$5,0*
20,1,$1+$1,$4,$5,$6,$7,0*
20,1,$1+$1,$6,$7,$8,$9,0*
20,1,$1+$1,$8,$9,$2,$3,0*%
G04 Aperture macros list end*
%ADD10R,1.700000X1.700000*%
%ADD11O,1.700000X1.700000*%
%ADD12C,3.200000*%
%ADD13C,7.000000*%
%ADD14RoundRect,0.250000X-0.620000X-0.845000X0.620000X-0.845000X0.620000X0.845000X-0.620000X0.845000X0*%
%ADD15O,1.740000X2.190000*%
%ADD16O,1.004000X1.804000*%
%ADD17O,1.704000X0.954000*%
%ADD18C,1.400000*%
%ADD19R,3.500000X3.500000*%
%ADD20C,3.500000*%
%ADD21RoundRect,0.250000X0.450000X-0.262500X0.450000X0.262500X-0.450000X0.262500X-0.450000X-0.262500X0*%
%ADD22RoundRect,0.250000X-0.450000X0.262500X-0.450000X-0.262500X0.450000X-0.262500X0.450000X0.262500X0*%
%ADD23RoundRect,0.150000X-0.587500X-0.150000X0.587500X-0.150000X0.587500X0.150000X-0.587500X0.150000X0*%
%ADD24RoundRect,0.250000X-0.250000X-0.475000X0.250000X-0.475000X0.250000X0.475000X-0.250000X0.475000X0*%
%ADD25RoundRect,0.250000X0.250000X0.475000X-0.250000X0.475000X-0.250000X-0.475000X0.250000X-0.475000X0*%
%ADD26RoundRect,0.250000X-0.262500X-0.450000X0.262500X-0.450000X0.262500X0.450000X-0.262500X0.450000X0*%
%ADD27RoundRect,0.055580X-0.341420X0.671420X-0.341420X-0.671420X0.341420X-0.671420X0.341420X0.671420X0*%
%ADD28R,2.616200X1.117600*%
%ADD29R,1.244600X1.244600*%
%ADD30RoundRect,0.102000X-1.752600X-1.130300X1.752600X-1.130300X1.752600X1.130300X-1.752600X1.130300X0*%
%ADD31RoundRect,0.250000X0.475000X-0.250000X0.475000X0.250000X-0.475000X0.250000X-0.475000X-0.250000X0*%
%ADD32RoundRect,0.055580X0.671420X0.341420X-0.671420X0.341420X-0.671420X-0.341420X0.671420X-0.341420X0*%
%ADD33RoundRect,0.250000X-0.475000X0.250000X-0.475000X-0.250000X0.475000X-0.250000X0.475000X0.250000X0*%
%ADD34RoundRect,0.102000X1.130300X-1.752600X1.130300X1.752600X-1.130300X1.752600X-1.130300X-1.752600X0*%
G04 APERTURE END LIST*
D10*
%TO.C,JP3*%
X103950000Y-92915000D03*
D11*
X103950000Y-90375000D03*
X103950000Y-87835000D03*
%TD*%
D12*
%TO.C,H2*%
X68200000Y-53200000D03*
%TD*%
D10*
%TO.C,J4*%
X73825000Y-121010000D03*
D11*
X73825000Y-123550000D03*
X76365000Y-121010000D03*
X76365000Y-123550000D03*
X78905000Y-121010000D03*
X78905000Y-123550000D03*
X81445000Y-121010000D03*
X81445000Y-123550000D03*
X83985000Y-121010000D03*
X83985000Y-123550000D03*
X86525000Y-121010000D03*
X86525000Y-123550000D03*
X89065000Y-121010000D03*
X89065000Y-123550000D03*
X91605000Y-121010000D03*
X91605000Y-123550000D03*
%TD*%
D13*
%TO.C,H5*%
X76600000Y-85500000D03*
%TD*%
D14*
%TO.C,J9*%
X119880000Y-61450000D03*
D15*
X122420000Y-61450000D03*
%TD*%
D14*
%TO.C,J12*%
X108680000Y-61450000D03*
D15*
X111220000Y-61450000D03*
X113760000Y-61450000D03*
X116300000Y-61450000D03*
%TD*%
D14*
%TO.C,J8*%
X125980000Y-80120000D03*
D15*
X128520000Y-80120000D03*
%TD*%
D10*
%TO.C,J5*%
X128550000Y-105950000D03*
D11*
X126010000Y-105950000D03*
X128550000Y-108490000D03*
X126010000Y-108490000D03*
X128550000Y-111030000D03*
X126010000Y-111030000D03*
X128550000Y-113570000D03*
X126010000Y-113570000D03*
X128550000Y-116110000D03*
X126010000Y-116110000D03*
%TD*%
D14*
%TO.C,J11*%
X119890000Y-80120000D03*
D15*
X122430000Y-80120000D03*
%TD*%
D10*
%TO.C,JP1*%
X127250000Y-89525000D03*
D11*
X127250000Y-92065000D03*
X127250000Y-94605000D03*
%TD*%
D10*
%TO.C,JP2*%
X121200000Y-89500000D03*
D11*
X121200000Y-92040000D03*
X121200000Y-94580000D03*
%TD*%
D14*
%TO.C,J14*%
X108700000Y-80150000D03*
D15*
X111240000Y-80150000D03*
X113780000Y-80150000D03*
X116320000Y-80150000D03*
%TD*%
D12*
%TO.C,H4*%
X126800000Y-53200000D03*
%TD*%
D10*
%TO.C,J3*%
X95975000Y-51675000D03*
D11*
X98515000Y-51675000D03*
X101055000Y-51675000D03*
X103595000Y-51675000D03*
X106135000Y-51675000D03*
X108675000Y-51675000D03*
%TD*%
D14*
%TO.C,J10*%
X119860000Y-70800000D03*
D15*
X122400000Y-70800000D03*
%TD*%
D14*
%TO.C,J6*%
X125960000Y-61450000D03*
D15*
X128500000Y-61450000D03*
%TD*%
D16*
%TO.C,J1*%
X69700000Y-92100000D03*
X69700000Y-97100000D03*
D17*
X67000000Y-91075000D03*
X67000000Y-98125000D03*
%TD*%
D14*
%TO.C,J7*%
X125960000Y-70800000D03*
D15*
X128500000Y-70800000D03*
%TD*%
D18*
%TO.C,J2*%
X67975000Y-113100000D03*
X67975000Y-102100000D03*
D19*
X77975000Y-105100000D03*
D20*
X77975000Y-110100000D03*
%TD*%
D14*
%TO.C,J15*%
X108700000Y-89470000D03*
D15*
X111240000Y-89470000D03*
X113780000Y-89470000D03*
X116320000Y-89470000D03*
%TD*%
D12*
%TO.C,H1*%
X126800000Y-121800000D03*
%TD*%
D13*
%TO.C,H6*%
X103000000Y-112200000D03*
%TD*%
D12*
%TO.C,H3*%
X68200000Y-121800000D03*
%TD*%
D14*
%TO.C,J13*%
X108670000Y-70830000D03*
D15*
X111210000Y-70830000D03*
X113750000Y-70830000D03*
X116290000Y-70830000D03*
%TD*%
D21*
%TO.C,R45*%
X115850000Y-85062500D03*
X115850000Y-83237500D03*
%TD*%
D22*
%TO.C,R20*%
X121200000Y-120587500D03*
X121200000Y-122412500D03*
%TD*%
D23*
%TO.C,D14*%
X108912500Y-85100000D03*
X108912500Y-83200000D03*
X110787500Y-84150000D03*
%TD*%
D24*
%TO.C,C25*%
X112373000Y-112920000D03*
X114273000Y-112920000D03*
%TD*%
D22*
%TO.C,R49*%
X98000000Y-121837500D03*
X98000000Y-123662500D03*
%TD*%
%TO.C,R50*%
X96050000Y-121837500D03*
X96050000Y-123662500D03*
%TD*%
D23*
%TO.C,Q3*%
X126112500Y-68300000D03*
X126112500Y-66400000D03*
X127987500Y-67350000D03*
%TD*%
D25*
%TO.C,C22*%
X118650000Y-112800000D03*
X116750000Y-112800000D03*
%TD*%
D22*
%TO.C,R35*%
X113900000Y-64537500D03*
X113900000Y-66362500D03*
%TD*%
D26*
%TO.C,R2*%
X72687500Y-61600000D03*
X74512500Y-61600000D03*
%TD*%
D22*
%TO.C,R47*%
X104100000Y-121837500D03*
X104100000Y-123662500D03*
%TD*%
D27*
%TO.C,U6*%
X116750000Y-118625500D03*
X117700000Y-118625500D03*
X118650000Y-118625500D03*
X118650000Y-121135500D03*
X117700000Y-121135500D03*
X116750000Y-121135500D03*
%TD*%
D28*
%TO.C,D10*%
X120049100Y-73750000D03*
D29*
X122436700Y-73750000D03*
%TD*%
D23*
%TO.C,Q5*%
X126112500Y-87000000D03*
X126112500Y-85100000D03*
X127987500Y-86050000D03*
%TD*%
D26*
%TO.C,R18*%
X77287500Y-92300000D03*
X79112500Y-92300000D03*
%TD*%
D28*
%TO.C,D6*%
X126149100Y-64450000D03*
D29*
X128536700Y-64450000D03*
%TD*%
D22*
%TO.C,R41*%
X113900000Y-83237500D03*
X113900000Y-85062500D03*
%TD*%
D26*
%TO.C,R32*%
X104287500Y-62000000D03*
X106112500Y-62000000D03*
%TD*%
%TO.C,R31*%
X103887500Y-76500000D03*
X105712500Y-76500000D03*
%TD*%
%TO.C,R33*%
X103987500Y-72400000D03*
X105812500Y-72400000D03*
%TD*%
D23*
%TO.C,Q7*%
X120062500Y-77600000D03*
X120062500Y-75700000D03*
X121937500Y-76650000D03*
%TD*%
D26*
%TO.C,R34*%
X103887500Y-78400000D03*
X105712500Y-78400000D03*
%TD*%
D25*
%TO.C,C24*%
X118650000Y-114832000D03*
X116750000Y-114832000D03*
%TD*%
D24*
%TO.C,C26*%
X112373000Y-110761000D03*
X114273000Y-110761000D03*
%TD*%
D25*
%TO.C,C23*%
X118650000Y-110768000D03*
X116750000Y-110768000D03*
%TD*%
D30*
%TO.C,L1*%
X93280000Y-101023000D03*
X93280000Y-95384200D03*
%TD*%
D31*
%TO.C,C17*%
X85509000Y-101258600D03*
X85509000Y-99358600D03*
%TD*%
D32*
%TO.C,U5*%
X79429500Y-99358600D03*
X79429500Y-100308600D03*
X79429500Y-101258600D03*
X76919500Y-101258600D03*
X76919500Y-100308600D03*
X76919500Y-99358600D03*
%TD*%
D23*
%TO.C,Q8*%
X120062500Y-86900000D03*
X120062500Y-85000000D03*
X121937500Y-85950000D03*
%TD*%
D21*
%TO.C,R17*%
X73900000Y-99712500D03*
X73900000Y-97887500D03*
%TD*%
D28*
%TO.C,D7*%
X126149100Y-73800000D03*
D29*
X128536700Y-73800000D03*
%TD*%
D26*
%TO.C,R51*%
X66687500Y-84600000D03*
X68512500Y-84600000D03*
%TD*%
%TO.C,R3*%
X72687500Y-63600000D03*
X74512500Y-63600000D03*
%TD*%
D21*
%TO.C,R44*%
X115850000Y-75712500D03*
X115850000Y-73887500D03*
%TD*%
%TO.C,R37*%
X115850000Y-66362500D03*
X115850000Y-64537500D03*
%TD*%
%TO.C,R21*%
X109550000Y-121337500D03*
X109550000Y-119512500D03*
%TD*%
D22*
%TO.C,R43*%
X113900000Y-92537500D03*
X113900000Y-94362500D03*
%TD*%
D33*
%TO.C,C20*%
X85480000Y-94653600D03*
X85480000Y-96553600D03*
%TD*%
D23*
%TO.C,D12*%
X108912500Y-66400000D03*
X108912500Y-64500000D03*
X110787500Y-65450000D03*
%TD*%
D28*
%TO.C,D11*%
X120049100Y-83100000D03*
D29*
X122436700Y-83100000D03*
%TD*%
D23*
%TO.C,D15*%
X108912500Y-94400000D03*
X108912500Y-92500000D03*
X110787500Y-93450000D03*
%TD*%
%TO.C,D13*%
X108912500Y-75750000D03*
X108912500Y-73850000D03*
X110787500Y-74800000D03*
%TD*%
D22*
%TO.C,R48*%
X100100000Y-121837500D03*
X100100000Y-123662500D03*
%TD*%
D34*
%TO.C,L2*%
X118342400Y-105120000D03*
X112703600Y-105120000D03*
%TD*%
D21*
%TO.C,R22*%
X111350000Y-121332500D03*
X111350000Y-119507500D03*
%TD*%
D31*
%TO.C,C18*%
X83477000Y-101258600D03*
X83477000Y-99358600D03*
%TD*%
D33*
%TO.C,C19*%
X87512000Y-94653600D03*
X87512000Y-96553600D03*
%TD*%
D22*
%TO.C,R39*%
X113900000Y-73887500D03*
X113900000Y-75712500D03*
%TD*%
D26*
%TO.C,R52*%
X66687500Y-87400000D03*
X68512500Y-87400000D03*
%TD*%
%TO.C,R29*%
X104287500Y-60100000D03*
X106112500Y-60100000D03*
%TD*%
D23*
%TO.C,Q6*%
X120012500Y-68300000D03*
X120012500Y-66400000D03*
X121887500Y-67350000D03*
%TD*%
D28*
%TO.C,D8*%
X126149100Y-83150000D03*
D29*
X128536700Y-83150000D03*
%TD*%
D31*
%TO.C,C16*%
X87541000Y-101258600D03*
X87541000Y-99358600D03*
%TD*%
D26*
%TO.C,R19*%
X77287500Y-94300000D03*
X79112500Y-94300000D03*
%TD*%
D23*
%TO.C,Q4*%
X126099200Y-77600000D03*
X126099200Y-75700000D03*
X127974200Y-76650000D03*
%TD*%
D26*
%TO.C,R30*%
X103987500Y-70500000D03*
X105812500Y-70500000D03*
%TD*%
D28*
%TO.C,D9*%
X120049100Y-64450000D03*
D29*
X122436700Y-64450000D03*
%TD*%
D24*
%TO.C,C15*%
X77250000Y-96300000D03*
X79150000Y-96300000D03*
%TD*%
D21*
%TO.C,R46*%
X115850000Y-94362500D03*
X115850000Y-92537500D03*
%TD*%
D31*
%TO.C,C21*%
X113382000Y-121370000D03*
X113382000Y-119470000D03*
%TD*%
M02*
