M48
; DRILL file {KiCad 8.0.2} date 2024-07-11T10:10:47+0200
; FORMAT={-:-/ absolute / inch / decimal}
; #@! TF.CreationDate,2024-07-11T10:10:47+02:00
; #@! TF.GenerationSoftware,Kicad,Pcbnew,8.0.2
; #@! TF.FileFunction,Plated,1,4,PTH
FMAT,2
INCH
; #@! TA.AperFunction,Plated,PTH,ViaDrill
T1C0.0118
; #@! TA.AperFunction,Plated,PTH,ViaDrill
T2C0.0157
; #@! TA.AperFunction,Plated,PTH,ComponentDrill
T3C0.0217
; #@! TA.AperFunction,Plated,PTH,ComponentDrill
T4C0.0236
; #@! TA.AperFunction,Plated,PTH,ComponentDrill
T5C0.0394
; #@! TA.AperFunction,Plated,PTH,ComponentDrill
T6C0.0469
; #@! TA.AperFunction,Plated,PTH,ComponentDrill
T7C0.0748
%
G90
G05
T1
X3.1693Y-3.937
X3.1693Y-3.9587
X3.189Y-3.937
X3.189Y-3.9587
X3.2087Y-3.937
X3.2087Y-3.9587
X3.2283Y-3.937
X3.2283Y-3.9587
X4.622Y-4.5669
X4.622Y-4.5866
X4.622Y-4.6063
X4.622Y-4.6255
X4.6457Y-4.5669
X4.6457Y-4.5866
X4.6457Y-4.6063
X4.6457Y-4.626
T2
X2.5906Y-3.5276
X2.6127Y-3.3834
X2.6299Y-3.2598
X2.6575Y-2.3504
X2.6693Y-2.7559
X2.6693Y-3.1732
X2.7047Y-2.4213
X2.7323Y-3.0433
X2.7421Y-2.2323
X2.748Y-3.2795
X2.748Y-3.4921
X2.7815Y-3.0118
X2.8031Y-2.8071
X2.8307Y-2.0039
X2.8307Y-2.1929
X2.8307Y-3.6102
X2.8307Y-3.6535
X2.8307Y-3.7638
X2.8661Y-3.0236
X2.8661Y-3.2283
X2.8701Y-3.7116
X2.874Y-3.1811
X2.878Y-2.0039
X2.8976Y-2.1929
X2.9123Y-3.9736
X2.9252Y-2.0039
X2.9408Y-2.1929
X2.9409Y-2.9252
X2.9449Y-3.0866
X2.9528Y-2.5591
X2.9685Y-3.689
X2.9764Y-3.815
X2.9764Y-3.8622
X2.9843Y-2.1929
X2.9843Y-2.2598
X2.9843Y-2.3268
X2.9843Y-2.3937
X2.9843Y-2.4606
X2.9843Y-2.5315
X3.0157Y-2.1614
X3.0157Y-2.2244
X3.0157Y-2.2913
X3.0157Y-2.3583
X3.0157Y-2.4252
X3.0157Y-2.4921
X3.035Y-2.015
X3.035Y-2.565
X3.0394Y-3.5748
X3.0945Y-2.6654
X3.115Y-2.05
X3.1181Y-3.8543
X3.1219Y-2.6313
X3.1575Y-2.6654
X3.165Y-2.05
X3.1693Y-3.7126
X3.1732Y-3.7677
X3.1732Y-3.8543
X3.1789Y-2.6317
X3.189Y-3.0286
X3.189Y-3.0856
X3.1969Y-3.25
X3.1969Y-3.811
X3.2008Y-3.8937
X3.2008Y-4.4016
X3.2087Y-2.6654
X3.2087Y-2.7087
X3.215Y-2.05
X3.2205Y-3.7126
X3.2224Y-4.3366
X3.2244Y-3.7677
X3.2244Y-3.8543
X3.2283Y-2.1654
X3.2283Y-2.2146
X3.2283Y-2.2638
X3.2283Y-2.313
X3.2283Y-2.3622
X3.2283Y-2.4114
X3.2421Y-4.4016
X3.2451Y-4.0758
X3.248Y-3.811
X3.2603Y-2.6182
X3.2638Y-2.8701
X3.2638Y-2.9094
X3.2638Y-2.9488
X3.265Y-2.05
X3.2717Y-3.8543
X3.2736Y-2.752
X3.2756Y-2.2559
X3.2756Y-2.3228
X3.2756Y-3.7677
X3.2776Y-2.1654
X3.2776Y-2.4114
X3.2835Y-4.4016
X3.2941Y-2.7175
X3.2992Y-3.811
X3.3031Y-2.8701
X3.3031Y-2.9094
X3.3031Y-2.9488
X3.3071Y-2.6181
X3.3131Y-2.752
X3.315Y-2.05
X3.3189Y-2.2165
X3.3189Y-2.2559
X3.3189Y-2.3228
X3.3189Y-2.3661
X3.3189Y-3.8543
X3.3268Y-2.1654
X3.3268Y-2.4114
X3.3425Y-2.8701
X3.3425Y-2.9094
X3.3425Y-2.9488
X3.3583Y-4.0315
X3.3621Y-3.121
X3.365Y-2.05
X3.376Y-2.1654
X3.376Y-2.4114
X3.378Y-2.6575
X3.378Y-2.6969
X3.381Y-3.0865
X3.3819Y-2.2165
X3.3819Y-2.2559
X3.3819Y-2.3228
X3.3819Y-2.3661
X3.4016Y-3.121
X3.4094Y-4.0315
X3.4094Y-4.1063
X3.4094Y-4.1831
X3.415Y-2.05
X3.4252Y-2.1654
X3.4252Y-2.2559
X3.4252Y-2.3228
X3.4252Y-2.4114
X3.4321Y-2.6427
X3.4331Y-4.0669
X3.4331Y-4.1457
X3.4528Y-2.8612
X3.4606Y-4.0315
X3.4606Y-4.1063
X3.4606Y-4.1831
X3.4619Y-2.9508
X3.465Y-2.05
X3.4744Y-2.1654
X3.4744Y-2.2146
X3.4744Y-2.2638
X3.4744Y-2.313
X3.4744Y-2.3622
X3.4744Y-2.4114
X3.477Y-2.7474
X3.4953Y-2.7059
X3.5128Y-3.0709
X3.515Y-2.05
X3.5201Y-4.4311
X3.5315Y-3.9409
X3.5315Y-3.9843
X3.5483Y-2.497
X3.5507Y-2.4306
X3.5512Y-2.3898
X3.565Y-2.05
X3.5709Y-3.7205
X3.5731Y-2.463
X3.5748Y-3.9409
X3.5748Y-3.9843
X3.5787Y-3.6811
X3.58Y-2.525
X3.5984Y-3.8622
X3.622Y-3.6811
X3.6339Y-2.9193
X3.6339Y-2.9597
X3.6339Y-2.88
X3.6416Y-2.6367
X3.6428Y-2.6955
X3.6457Y-3.8622
X3.6457Y-4.1102
X3.665Y-2.01
X3.6654Y-3.6811
X3.6738Y-2.3849
X3.6738Y-2.4419
X3.6738Y-2.565
X3.6738Y-2.6082
X3.6738Y-2.6652
X3.6738Y-2.724
X3.675Y-2.195
X3.6752Y-4.8661
X3.6805Y-4.3144
X3.6929Y-3.8622
X3.6969Y-4.1339
X3.6969Y-4.2283
X3.6969Y-4.2717
X3.7Y-2.0866
X3.7073Y-2.2288
X3.7087Y-3.6811
X3.7406Y-4.6043
X3.7411Y-2.2873
X3.7416Y-2.248
X3.752Y-3.6811
X3.7642Y-3.1736
X3.7677Y-3.9409
X3.7677Y-3.9843
X3.7685Y-2.3849
X3.7685Y-2.5758
X3.7685Y-2.6329
X3.7699Y-2.7115
X3.771Y-2.6721
X3.7748Y-2.2202
X3.7756Y-3.7205
X3.7804Y-2.5383
X3.7953Y-3.6811
X3.7953Y-3.7559
X3.8046Y-2.6146
X3.8054Y-3.1897
X3.8242Y-2.8057
X3.836Y-2.1221
X3.8455Y-2.7726
X3.8621Y-2.2985
X3.865Y-2.7146
X3.8729Y-2.5478
X3.8783Y-4.565
X3.8785Y-2.1221
X3.8901Y-2.6598
X3.9026Y-2.748
X3.9031Y-2.6988
X3.9109Y-2.4041
X3.9208Y-2.8816
X3.9213Y-2.126
X3.9232Y-2.8351
X3.9256Y-4.5335
X3.9518Y-3.252
X3.9518Y-3.3312
X3.9522Y-3.2918
X3.9606Y-2.252
X3.9606Y-2.2953
X3.9685Y-2.1112
X3.9843Y-4.752
X3.9916Y-2.4848
X4.0315Y-2.5266
X4.0315Y-2.7687
X4.0394Y-3.0669
X4.0433Y-4.874
X4.0472Y-4.1969
X4.0472Y-4.7598
X4.0492Y-2.9331
X4.0761Y-2.1292
X4.0787Y-2.7244
X4.0787Y-2.5866
X4.126Y-3.2165
X4.128Y-2.9311
X4.13Y-3.8809
X4.1319Y-2.1299
X4.1407Y-2.7197
X4.163Y-2.6873
X4.1654Y-3.1929
X4.1693Y-4.063
X4.1693Y-4.1102
X4.1693Y-4.1575
X4.1732Y-2.5079
X4.1909Y-2.1299
X4.1915Y-2.6102
X4.1929Y-2.9458
X4.2047Y-3.6772
X4.2047Y-3.7244
X4.2047Y-3.7736
X4.2205Y-4.1575
X4.2227Y-2.5499
X4.2254Y-2.9961
X4.2254Y-3.2717
X4.2254Y-3.374
X4.2254Y-3.4331
X4.2283Y-3.3268
X4.2331Y-2.6496
X4.2362Y-3.8209
X4.3268Y-4.1063
X4.3268Y-4.1535
X4.3268Y-4.1969
X4.3268Y-4.2402
X4.3504Y-2.6339
X4.3504Y-3.0
X4.3524Y-3.7244
X4.3661Y-4.0866
X4.3661Y-4.1299
X4.3661Y-4.1732
X4.3661Y-4.2165
X4.3858Y-4.5433
X4.3858Y-4.5945
X4.3858Y-4.6496
X4.4016Y-3.0551
X4.4252Y-2.1535
X4.4331Y-4.5669
X4.4331Y-4.622
X4.4724Y-4.6575
X4.4764Y-4.5945
X4.5Y-4.3071
X4.5276Y-4.6181
X4.5433Y-4.3071
X4.5453Y-4.5
X4.5472Y-4.3563
X4.5472Y-4.3996
X4.5472Y-4.4469
X4.5512Y-4.5591
X4.5669Y-2.0079
X4.5827Y-4.5984
X4.5866Y-4.3071
X4.6417Y-2.0079
X4.6417Y-4.0433
X4.6575Y-3.374
X4.6614Y-4.2323
X4.6624Y-2.6299
X4.6693Y-2.9803
X4.685Y-4.0433
X4.7283Y-4.0354
X4.7283Y-4.3504
X4.7283Y-4.3937
X4.7283Y-4.437
X4.7283Y-4.4803
X4.7283Y-4.5236
X4.7283Y-4.0817
X4.7323Y-4.1417
X4.7323Y-4.185
X4.7362Y-4.2283
X4.7657Y-4.372
X4.7657Y-4.4154
X4.7657Y-4.4587
X4.7657Y-4.502
X4.8898Y-3.3858
X4.9065Y-2.6181
X4.9065Y-3.0039
X4.9065Y-4.0683
X4.9242Y-4.0331
T5
X2.6762Y-4.0197
X2.6762Y-4.4528
X2.9065Y-4.7642
X2.9065Y-4.8642
X3.0065Y-4.7642
X3.0065Y-4.8642
X3.1065Y-4.7642
X3.1065Y-4.8642
X3.2065Y-4.7642
X3.2065Y-4.8642
X3.3065Y-4.7642
X3.3065Y-4.8642
X3.4065Y-4.7642
X3.4065Y-4.8642
X3.5065Y-4.7642
X3.5065Y-4.8642
X3.6065Y-4.7642
X3.6065Y-4.8642
X3.7785Y-2.0344
X3.8785Y-2.0344
X3.9785Y-2.0344
X4.0785Y-2.0344
X4.0925Y-3.4581
X4.0925Y-3.5581
X4.0925Y-3.6581
X4.1785Y-2.0344
X4.2785Y-2.0344
X4.7717Y-3.5236
X4.7717Y-3.6236
X4.7717Y-3.7236
X4.961Y-4.1713
X4.961Y-4.2713
X4.961Y-4.3713
X4.961Y-4.4713
X4.961Y-4.5713
X5.0098Y-3.5246
X5.0098Y-3.6246
X5.0098Y-3.7246
X5.061Y-4.1713
X5.061Y-4.2713
X5.061Y-4.3713
X5.061Y-4.4713
X5.061Y-4.5713
T6
X4.2783Y-2.7886
X4.2787Y-2.4193
X4.2795Y-3.1555
X4.2795Y-3.5224
X4.3783Y-2.7886
X4.3787Y-2.4193
X4.3795Y-3.1555
X4.3795Y-3.5224
X4.4783Y-2.7886
X4.4787Y-2.4193
X4.4795Y-3.1555
X4.4795Y-3.5224
X4.5783Y-2.7886
X4.5787Y-2.4193
X4.5795Y-3.1555
X4.5795Y-3.5224
X4.7189Y-2.7874
X4.7197Y-2.4193
X4.7201Y-3.1543
X4.8189Y-2.7874
X4.8197Y-2.4193
X4.8201Y-3.1543
X4.9591Y-2.4193
X4.9591Y-2.7874
X4.9598Y-3.1543
X5.0591Y-2.4193
X5.0591Y-2.7874
X5.0598Y-3.1543
T7
X3.0699Y-4.1378
X3.0699Y-4.3346
T3
G00X2.6506Y-3.5856
M15
G01X2.625Y-3.5856
M16
G05
G00X2.6506Y-3.8632
M15
G01X2.625Y-3.8632
M16
G05
T4
G00X2.7441Y-3.6201
M15
G01X2.7441Y-3.6319
M16
G05
G00X2.7441Y-3.8169
M15
G01X2.7441Y-3.8287
M16
G05
M30
