%TF.GenerationSoftware,KiCad,Pcbnew,8.0.2*%
%TF.CreationDate,2024-07-11T10:11:00+02:00*%
%TF.ProjectId,HomeAssistant,486f6d65-4173-4736-9973-74616e742e6b,0.1*%
%TF.SameCoordinates,Original*%
%TF.FileFunction,Paste,Bot*%
%TF.FilePolarity,Positive*%
%FSLAX46Y46*%
G04 Gerber Fmt 4.6, Leading zero omitted, Abs format (unit mm)*
G04 Created by KiCad (PCBNEW 8.0.2) date 2024-07-11 10:11:00*
%MOMM*%
%LPD*%
G01*
G04 APERTURE LIST*
G04 Aperture macros list*
%AMRoundRect*
0 Rectangle with rounded corners*
0 $1 Rounding radius*
0 $2 $3 $4 $5 $6 $7 $8 $9 X,Y pos of 4 corners*
0 Add a 4 corners polygon primitive as box body*
4,1,4,$2,$3,$4,$5,$6,$7,$8,$9,$2,$3,0*
0 Add four circle primitives for the rounded corners*
1,1,$1+$1,$2,$3*
1,1,$1+$1,$4,$5*
1,1,$1+$1,$6,$7*
1,1,$1+$1,$8,$9*
0 Add four rect primitives between the rounded corners*
20,1,$1+$1,$2,$3,$4,$5,0*
20,1,$1+$1,$4,$5,$6,$7,0*
20,1,$1+$1,$6,$7,$8,$9,0*
20,1,$1+$1,$8,$9,$2,$3,0*%
G04 Aperture macros list end*
%ADD10RoundRect,0.250000X0.450000X-0.262500X0.450000X0.262500X-0.450000X0.262500X-0.450000X-0.262500X0*%
%ADD11RoundRect,0.250000X-0.450000X0.262500X-0.450000X-0.262500X0.450000X-0.262500X0.450000X0.262500X0*%
%ADD12RoundRect,0.150000X-0.587500X-0.150000X0.587500X-0.150000X0.587500X0.150000X-0.587500X0.150000X0*%
%ADD13RoundRect,0.250000X-0.250000X-0.475000X0.250000X-0.475000X0.250000X0.475000X-0.250000X0.475000X0*%
%ADD14RoundRect,0.250000X0.250000X0.475000X-0.250000X0.475000X-0.250000X-0.475000X0.250000X-0.475000X0*%
%ADD15RoundRect,0.250000X-0.262500X-0.450000X0.262500X-0.450000X0.262500X0.450000X-0.262500X0.450000X0*%
%ADD16RoundRect,0.041300X-0.253700X0.583700X-0.253700X-0.583700X0.253700X-0.583700X0.253700X0.583700X0*%
%ADD17R,2.616200X1.117600*%
%ADD18R,1.244600X1.244600*%
%ADD19R,3.505200X2.260600*%
%ADD20RoundRect,0.250000X0.475000X-0.250000X0.475000X0.250000X-0.475000X0.250000X-0.475000X-0.250000X0*%
%ADD21RoundRect,0.041300X0.583700X0.253700X-0.583700X0.253700X-0.583700X-0.253700X0.583700X-0.253700X0*%
%ADD22RoundRect,0.250000X-0.475000X0.250000X-0.475000X-0.250000X0.475000X-0.250000X0.475000X0.250000X0*%
%ADD23R,2.260600X3.505200*%
G04 APERTURE END LIST*
D10*
%TO.C,R45*%
X115850000Y-85062500D03*
X115850000Y-83237500D03*
%TD*%
D11*
%TO.C,R20*%
X121200000Y-120587500D03*
X121200000Y-122412500D03*
%TD*%
D12*
%TO.C,D14*%
X108912500Y-85100000D03*
X108912500Y-83200000D03*
X110787500Y-84150000D03*
%TD*%
D13*
%TO.C,C25*%
X112373000Y-112920000D03*
X114273000Y-112920000D03*
%TD*%
D11*
%TO.C,R49*%
X98000000Y-121837500D03*
X98000000Y-123662500D03*
%TD*%
%TO.C,R50*%
X96050000Y-121837500D03*
X96050000Y-123662500D03*
%TD*%
D12*
%TO.C,Q3*%
X126112500Y-68300000D03*
X126112500Y-66400000D03*
X127987500Y-67350000D03*
%TD*%
D14*
%TO.C,C22*%
X118650000Y-112800000D03*
X116750000Y-112800000D03*
%TD*%
D11*
%TO.C,R35*%
X113900000Y-64537500D03*
X113900000Y-66362500D03*
%TD*%
D15*
%TO.C,R2*%
X72687500Y-61600000D03*
X74512500Y-61600000D03*
%TD*%
D11*
%TO.C,R47*%
X104100000Y-121837500D03*
X104100000Y-123662500D03*
%TD*%
D16*
%TO.C,U6*%
X116750000Y-118625500D03*
X117700000Y-118625500D03*
X118650000Y-118625500D03*
X118650000Y-121135500D03*
X117700000Y-121135500D03*
X116750000Y-121135500D03*
%TD*%
D17*
%TO.C,D10*%
X120049100Y-73750000D03*
D18*
X122436700Y-73750000D03*
%TD*%
D12*
%TO.C,Q5*%
X126112500Y-87000000D03*
X126112500Y-85100000D03*
X127987500Y-86050000D03*
%TD*%
D15*
%TO.C,R18*%
X77287500Y-92300000D03*
X79112500Y-92300000D03*
%TD*%
D17*
%TO.C,D6*%
X126149100Y-64450000D03*
D18*
X128536700Y-64450000D03*
%TD*%
D11*
%TO.C,R41*%
X113900000Y-83237500D03*
X113900000Y-85062500D03*
%TD*%
D15*
%TO.C,R32*%
X104287500Y-62000000D03*
X106112500Y-62000000D03*
%TD*%
%TO.C,R31*%
X103887500Y-76500000D03*
X105712500Y-76500000D03*
%TD*%
%TO.C,R33*%
X103987500Y-72400000D03*
X105812500Y-72400000D03*
%TD*%
D12*
%TO.C,Q7*%
X120062500Y-77600000D03*
X120062500Y-75700000D03*
X121937500Y-76650000D03*
%TD*%
D15*
%TO.C,R34*%
X103887500Y-78400000D03*
X105712500Y-78400000D03*
%TD*%
D14*
%TO.C,C24*%
X118650000Y-114832000D03*
X116750000Y-114832000D03*
%TD*%
D13*
%TO.C,C26*%
X112373000Y-110761000D03*
X114273000Y-110761000D03*
%TD*%
D14*
%TO.C,C23*%
X118650000Y-110768000D03*
X116750000Y-110768000D03*
%TD*%
D19*
%TO.C,L1*%
X93280000Y-101023000D03*
X93280000Y-95384200D03*
%TD*%
D20*
%TO.C,C17*%
X85509000Y-101258600D03*
X85509000Y-99358600D03*
%TD*%
D21*
%TO.C,U5*%
X79429500Y-99358600D03*
X79429500Y-100308600D03*
X79429500Y-101258600D03*
X76919500Y-101258600D03*
X76919500Y-100308600D03*
X76919500Y-99358600D03*
%TD*%
D12*
%TO.C,Q8*%
X120062500Y-86900000D03*
X120062500Y-85000000D03*
X121937500Y-85950000D03*
%TD*%
D10*
%TO.C,R17*%
X73900000Y-99712500D03*
X73900000Y-97887500D03*
%TD*%
D17*
%TO.C,D7*%
X126149100Y-73800000D03*
D18*
X128536700Y-73800000D03*
%TD*%
D15*
%TO.C,R51*%
X66687500Y-84600000D03*
X68512500Y-84600000D03*
%TD*%
%TO.C,R3*%
X72687500Y-63600000D03*
X74512500Y-63600000D03*
%TD*%
D10*
%TO.C,R44*%
X115850000Y-75712500D03*
X115850000Y-73887500D03*
%TD*%
%TO.C,R37*%
X115850000Y-66362500D03*
X115850000Y-64537500D03*
%TD*%
%TO.C,R21*%
X109550000Y-121337500D03*
X109550000Y-119512500D03*
%TD*%
D11*
%TO.C,R43*%
X113900000Y-92537500D03*
X113900000Y-94362500D03*
%TD*%
D22*
%TO.C,C20*%
X85480000Y-94653600D03*
X85480000Y-96553600D03*
%TD*%
D12*
%TO.C,D12*%
X108912500Y-66400000D03*
X108912500Y-64500000D03*
X110787500Y-65450000D03*
%TD*%
D17*
%TO.C,D11*%
X120049100Y-83100000D03*
D18*
X122436700Y-83100000D03*
%TD*%
D12*
%TO.C,D15*%
X108912500Y-94400000D03*
X108912500Y-92500000D03*
X110787500Y-93450000D03*
%TD*%
%TO.C,D13*%
X108912500Y-75750000D03*
X108912500Y-73850000D03*
X110787500Y-74800000D03*
%TD*%
D11*
%TO.C,R48*%
X100100000Y-121837500D03*
X100100000Y-123662500D03*
%TD*%
D23*
%TO.C,L2*%
X118342400Y-105120000D03*
X112703600Y-105120000D03*
%TD*%
D10*
%TO.C,R22*%
X111350000Y-121332500D03*
X111350000Y-119507500D03*
%TD*%
D20*
%TO.C,C18*%
X83477000Y-101258600D03*
X83477000Y-99358600D03*
%TD*%
D22*
%TO.C,C19*%
X87512000Y-94653600D03*
X87512000Y-96553600D03*
%TD*%
D11*
%TO.C,R39*%
X113900000Y-73887500D03*
X113900000Y-75712500D03*
%TD*%
D15*
%TO.C,R52*%
X66687500Y-87400000D03*
X68512500Y-87400000D03*
%TD*%
%TO.C,R29*%
X104287500Y-60100000D03*
X106112500Y-60100000D03*
%TD*%
D12*
%TO.C,Q6*%
X120012500Y-68300000D03*
X120012500Y-66400000D03*
X121887500Y-67350000D03*
%TD*%
D17*
%TO.C,D8*%
X126149100Y-83150000D03*
D18*
X128536700Y-83150000D03*
%TD*%
D20*
%TO.C,C16*%
X87541000Y-101258600D03*
X87541000Y-99358600D03*
%TD*%
D15*
%TO.C,R19*%
X77287500Y-94300000D03*
X79112500Y-94300000D03*
%TD*%
D12*
%TO.C,Q4*%
X126099200Y-77600000D03*
X126099200Y-75700000D03*
X127974200Y-76650000D03*
%TD*%
D15*
%TO.C,R30*%
X103987500Y-70500000D03*
X105812500Y-70500000D03*
%TD*%
D17*
%TO.C,D9*%
X120049100Y-64450000D03*
D18*
X122436700Y-64450000D03*
%TD*%
D13*
%TO.C,C15*%
X77250000Y-96300000D03*
X79150000Y-96300000D03*
%TD*%
D10*
%TO.C,R46*%
X115850000Y-94362500D03*
X115850000Y-92537500D03*
%TD*%
D20*
%TO.C,C21*%
X113382000Y-121370000D03*
X113382000Y-119470000D03*
%TD*%
M02*
