%TF.GenerationSoftware,KiCad,Pcbnew,8.0.2*%
%TF.CreationDate,2024-07-11T10:10:47+02:00*%
%TF.ProjectId,HomeAssistant,486f6d65-4173-4736-9973-74616e742e6b,0.1*%
%TF.SameCoordinates,Original*%
%TF.FileFunction,Drillmap*%
%TF.FilePolarity,Positive*%
%FSLAX45Y45*%
G04 Gerber Fmt 4.5, Leading zero omitted, Abs format (unit mm)*
G04 Created by KiCad (PCBNEW 8.0.2) date 2024-07-11 10:10:47*
%MOMM*%
%LPD*%
G01*
G04 APERTURE LIST*
%ADD10C,0.150000*%
%ADD11C,0.200000*%
%ADD12C,0.320000*%
%ADD13C,0.422000*%
G04 APERTURE END LIST*
D10*
X6500000Y-5315000D02*
G75*
G02*
X6820000Y-4999961I320000J-5000D01*
G01*
X13000000Y-12185000D02*
G75*
G02*
X12680000Y-12500039I-320000J5000D01*
G01*
X6815000Y-12500000D02*
X12680000Y-12500039D01*
X12685000Y-5000000D02*
G75*
G02*
X13000039Y-5320000I-5000J-320000D01*
G01*
X6500000Y-5315000D02*
X6499961Y-12180000D01*
X6815000Y-12500000D02*
G75*
G02*
X6499961Y-12180000I5000J320000D01*
G01*
X13000000Y-12185000D02*
X13000039Y-5320000D01*
X12685000Y-5000000D02*
X6820000Y-4999961D01*
D11*
D12*
X6660000Y-5160000D02*
X6980000Y-5480000D01*
X6980000Y-5160000D02*
X6660000Y-5480000D01*
X6660000Y-12020000D02*
X6980000Y-12340000D01*
X6980000Y-12020000D02*
X6660000Y-12340000D01*
X12520000Y-5160000D02*
X12840000Y-5480000D01*
X12840000Y-5160000D02*
X12520000Y-5480000D01*
X12520000Y-12020000D02*
X12840000Y-12340000D01*
X12840000Y-12020000D02*
X12520000Y-12340000D01*
D13*
X7871000Y-8550000D02*
G75*
G02*
X7449000Y-8550000I-211000J0D01*
G01*
X7449000Y-8550000D02*
G75*
G02*
X7871000Y-8550000I211000J0D01*
G01*
X10511000Y-11220000D02*
G75*
G02*
X10089000Y-11220000I-211000J0D01*
G01*
X10089000Y-11220000D02*
G75*
G02*
X10511000Y-11220000I211000J0D01*
G01*
D11*
X6753238Y-12819023D02*
X6753238Y-12619023D01*
X6753238Y-12619023D02*
X6800857Y-12619023D01*
X6800857Y-12619023D02*
X6829428Y-12628547D01*
X6829428Y-12628547D02*
X6848476Y-12647594D01*
X6848476Y-12647594D02*
X6858000Y-12666642D01*
X6858000Y-12666642D02*
X6867523Y-12704737D01*
X6867523Y-12704737D02*
X6867523Y-12733308D01*
X6867523Y-12733308D02*
X6858000Y-12771404D01*
X6858000Y-12771404D02*
X6848476Y-12790451D01*
X6848476Y-12790451D02*
X6829428Y-12809499D01*
X6829428Y-12809499D02*
X6800857Y-12819023D01*
X6800857Y-12819023D02*
X6753238Y-12819023D01*
X6953238Y-12819023D02*
X6953238Y-12685689D01*
X6953238Y-12723785D02*
X6962762Y-12704737D01*
X6962762Y-12704737D02*
X6972285Y-12695213D01*
X6972285Y-12695213D02*
X6991333Y-12685689D01*
X6991333Y-12685689D02*
X7010381Y-12685689D01*
X7077047Y-12819023D02*
X7077047Y-12685689D01*
X7077047Y-12619023D02*
X7067523Y-12628547D01*
X7067523Y-12628547D02*
X7077047Y-12638070D01*
X7077047Y-12638070D02*
X7086571Y-12628547D01*
X7086571Y-12628547D02*
X7077047Y-12619023D01*
X7077047Y-12619023D02*
X7077047Y-12638070D01*
X7200857Y-12819023D02*
X7181809Y-12809499D01*
X7181809Y-12809499D02*
X7172285Y-12790451D01*
X7172285Y-12790451D02*
X7172285Y-12619023D01*
X7305619Y-12819023D02*
X7286571Y-12809499D01*
X7286571Y-12809499D02*
X7277047Y-12790451D01*
X7277047Y-12790451D02*
X7277047Y-12619023D01*
X7534190Y-12819023D02*
X7534190Y-12619023D01*
X7534190Y-12619023D02*
X7600857Y-12761880D01*
X7600857Y-12761880D02*
X7667523Y-12619023D01*
X7667523Y-12619023D02*
X7667523Y-12819023D01*
X7848476Y-12819023D02*
X7848476Y-12714261D01*
X7848476Y-12714261D02*
X7838952Y-12695213D01*
X7838952Y-12695213D02*
X7819904Y-12685689D01*
X7819904Y-12685689D02*
X7781809Y-12685689D01*
X7781809Y-12685689D02*
X7762762Y-12695213D01*
X7848476Y-12809499D02*
X7829428Y-12819023D01*
X7829428Y-12819023D02*
X7781809Y-12819023D01*
X7781809Y-12819023D02*
X7762762Y-12809499D01*
X7762762Y-12809499D02*
X7753238Y-12790451D01*
X7753238Y-12790451D02*
X7753238Y-12771404D01*
X7753238Y-12771404D02*
X7762762Y-12752356D01*
X7762762Y-12752356D02*
X7781809Y-12742832D01*
X7781809Y-12742832D02*
X7829428Y-12742832D01*
X7829428Y-12742832D02*
X7848476Y-12733308D01*
X7943714Y-12685689D02*
X7943714Y-12885689D01*
X7943714Y-12695213D02*
X7962762Y-12685689D01*
X7962762Y-12685689D02*
X8000857Y-12685689D01*
X8000857Y-12685689D02*
X8019904Y-12695213D01*
X8019904Y-12695213D02*
X8029428Y-12704737D01*
X8029428Y-12704737D02*
X8038952Y-12723785D01*
X8038952Y-12723785D02*
X8038952Y-12780927D01*
X8038952Y-12780927D02*
X8029428Y-12799975D01*
X8029428Y-12799975D02*
X8019904Y-12809499D01*
X8019904Y-12809499D02*
X8000857Y-12819023D01*
X8000857Y-12819023D02*
X7962762Y-12819023D01*
X7962762Y-12819023D02*
X7943714Y-12809499D01*
X8124666Y-12799975D02*
X8134190Y-12809499D01*
X8134190Y-12809499D02*
X8124666Y-12819023D01*
X8124666Y-12819023D02*
X8115143Y-12809499D01*
X8115143Y-12809499D02*
X8124666Y-12799975D01*
X8124666Y-12799975D02*
X8124666Y-12819023D01*
X8124666Y-12695213D02*
X8134190Y-12704737D01*
X8134190Y-12704737D02*
X8124666Y-12714261D01*
X8124666Y-12714261D02*
X8115143Y-12704737D01*
X8115143Y-12704737D02*
X8124666Y-12695213D01*
X8124666Y-12695213D02*
X8124666Y-12714261D01*
X6292461Y-13047539D02*
X6492461Y-13247539D01*
X6492461Y-13047539D02*
X6292461Y-13247539D01*
X6734190Y-13039023D02*
X6858000Y-13039023D01*
X6858000Y-13039023D02*
X6791333Y-13115213D01*
X6791333Y-13115213D02*
X6819904Y-13115213D01*
X6819904Y-13115213D02*
X6838952Y-13124737D01*
X6838952Y-13124737D02*
X6848476Y-13134261D01*
X6848476Y-13134261D02*
X6858000Y-13153308D01*
X6858000Y-13153308D02*
X6858000Y-13200927D01*
X6858000Y-13200927D02*
X6848476Y-13219975D01*
X6848476Y-13219975D02*
X6838952Y-13229499D01*
X6838952Y-13229499D02*
X6819904Y-13239023D01*
X6819904Y-13239023D02*
X6762762Y-13239023D01*
X6762762Y-13239023D02*
X6743714Y-13229499D01*
X6743714Y-13229499D02*
X6734190Y-13219975D01*
X6943714Y-13219975D02*
X6953238Y-13229499D01*
X6953238Y-13229499D02*
X6943714Y-13239023D01*
X6943714Y-13239023D02*
X6934190Y-13229499D01*
X6934190Y-13229499D02*
X6943714Y-13219975D01*
X6943714Y-13219975D02*
X6943714Y-13239023D01*
X7029428Y-13058070D02*
X7038952Y-13048547D01*
X7038952Y-13048547D02*
X7058000Y-13039023D01*
X7058000Y-13039023D02*
X7105619Y-13039023D01*
X7105619Y-13039023D02*
X7124666Y-13048547D01*
X7124666Y-13048547D02*
X7134190Y-13058070D01*
X7134190Y-13058070D02*
X7143714Y-13077118D01*
X7143714Y-13077118D02*
X7143714Y-13096166D01*
X7143714Y-13096166D02*
X7134190Y-13124737D01*
X7134190Y-13124737D02*
X7019904Y-13239023D01*
X7019904Y-13239023D02*
X7143714Y-13239023D01*
X7267523Y-13039023D02*
X7286571Y-13039023D01*
X7286571Y-13039023D02*
X7305619Y-13048547D01*
X7305619Y-13048547D02*
X7315143Y-13058070D01*
X7315143Y-13058070D02*
X7324666Y-13077118D01*
X7324666Y-13077118D02*
X7334190Y-13115213D01*
X7334190Y-13115213D02*
X7334190Y-13162832D01*
X7334190Y-13162832D02*
X7324666Y-13200927D01*
X7324666Y-13200927D02*
X7315143Y-13219975D01*
X7315143Y-13219975D02*
X7305619Y-13229499D01*
X7305619Y-13229499D02*
X7286571Y-13239023D01*
X7286571Y-13239023D02*
X7267523Y-13239023D01*
X7267523Y-13239023D02*
X7248476Y-13229499D01*
X7248476Y-13229499D02*
X7238952Y-13219975D01*
X7238952Y-13219975D02*
X7229428Y-13200927D01*
X7229428Y-13200927D02*
X7219904Y-13162832D01*
X7219904Y-13162832D02*
X7219904Y-13115213D01*
X7219904Y-13115213D02*
X7229428Y-13077118D01*
X7229428Y-13077118D02*
X7238952Y-13058070D01*
X7238952Y-13058070D02*
X7248476Y-13048547D01*
X7248476Y-13048547D02*
X7267523Y-13039023D01*
X7458000Y-13039023D02*
X7477047Y-13039023D01*
X7477047Y-13039023D02*
X7496095Y-13048547D01*
X7496095Y-13048547D02*
X7505619Y-13058070D01*
X7505619Y-13058070D02*
X7515143Y-13077118D01*
X7515143Y-13077118D02*
X7524666Y-13115213D01*
X7524666Y-13115213D02*
X7524666Y-13162832D01*
X7524666Y-13162832D02*
X7515143Y-13200927D01*
X7515143Y-13200927D02*
X7505619Y-13219975D01*
X7505619Y-13219975D02*
X7496095Y-13229499D01*
X7496095Y-13229499D02*
X7477047Y-13239023D01*
X7477047Y-13239023D02*
X7458000Y-13239023D01*
X7458000Y-13239023D02*
X7438952Y-13229499D01*
X7438952Y-13229499D02*
X7429428Y-13219975D01*
X7429428Y-13219975D02*
X7419904Y-13200927D01*
X7419904Y-13200927D02*
X7410381Y-13162832D01*
X7410381Y-13162832D02*
X7410381Y-13115213D01*
X7410381Y-13115213D02*
X7419904Y-13077118D01*
X7419904Y-13077118D02*
X7429428Y-13058070D01*
X7429428Y-13058070D02*
X7438952Y-13048547D01*
X7438952Y-13048547D02*
X7458000Y-13039023D01*
X7610381Y-13239023D02*
X7610381Y-13105689D01*
X7610381Y-13124737D02*
X7619904Y-13115213D01*
X7619904Y-13115213D02*
X7638952Y-13105689D01*
X7638952Y-13105689D02*
X7667524Y-13105689D01*
X7667524Y-13105689D02*
X7686571Y-13115213D01*
X7686571Y-13115213D02*
X7696095Y-13134261D01*
X7696095Y-13134261D02*
X7696095Y-13239023D01*
X7696095Y-13134261D02*
X7705619Y-13115213D01*
X7705619Y-13115213D02*
X7724666Y-13105689D01*
X7724666Y-13105689D02*
X7753238Y-13105689D01*
X7753238Y-13105689D02*
X7772285Y-13115213D01*
X7772285Y-13115213D02*
X7781809Y-13134261D01*
X7781809Y-13134261D02*
X7781809Y-13239023D01*
X7877047Y-13239023D02*
X7877047Y-13105689D01*
X7877047Y-13124737D02*
X7886571Y-13115213D01*
X7886571Y-13115213D02*
X7905619Y-13105689D01*
X7905619Y-13105689D02*
X7934190Y-13105689D01*
X7934190Y-13105689D02*
X7953238Y-13115213D01*
X7953238Y-13115213D02*
X7962762Y-13134261D01*
X7962762Y-13134261D02*
X7962762Y-13239023D01*
X7962762Y-13134261D02*
X7972285Y-13115213D01*
X7972285Y-13115213D02*
X7991333Y-13105689D01*
X7991333Y-13105689D02*
X8019904Y-13105689D01*
X8019904Y-13105689D02*
X8038952Y-13115213D01*
X8038952Y-13115213D02*
X8048476Y-13134261D01*
X8048476Y-13134261D02*
X8048476Y-13239023D01*
X8438952Y-13029499D02*
X8267524Y-13286642D01*
X8696095Y-13039023D02*
X8715143Y-13039023D01*
X8715143Y-13039023D02*
X8734190Y-13048547D01*
X8734190Y-13048547D02*
X8743714Y-13058070D01*
X8743714Y-13058070D02*
X8753238Y-13077118D01*
X8753238Y-13077118D02*
X8762762Y-13115213D01*
X8762762Y-13115213D02*
X8762762Y-13162832D01*
X8762762Y-13162832D02*
X8753238Y-13200927D01*
X8753238Y-13200927D02*
X8743714Y-13219975D01*
X8743714Y-13219975D02*
X8734190Y-13229499D01*
X8734190Y-13229499D02*
X8715143Y-13239023D01*
X8715143Y-13239023D02*
X8696095Y-13239023D01*
X8696095Y-13239023D02*
X8677048Y-13229499D01*
X8677048Y-13229499D02*
X8667524Y-13219975D01*
X8667524Y-13219975D02*
X8658000Y-13200927D01*
X8658000Y-13200927D02*
X8648476Y-13162832D01*
X8648476Y-13162832D02*
X8648476Y-13115213D01*
X8648476Y-13115213D02*
X8658000Y-13077118D01*
X8658000Y-13077118D02*
X8667524Y-13058070D01*
X8667524Y-13058070D02*
X8677048Y-13048547D01*
X8677048Y-13048547D02*
X8696095Y-13039023D01*
X8848476Y-13219975D02*
X8858000Y-13229499D01*
X8858000Y-13229499D02*
X8848476Y-13239023D01*
X8848476Y-13239023D02*
X8838952Y-13229499D01*
X8838952Y-13229499D02*
X8848476Y-13219975D01*
X8848476Y-13219975D02*
X8848476Y-13239023D01*
X9048476Y-13239023D02*
X8934190Y-13239023D01*
X8991333Y-13239023D02*
X8991333Y-13039023D01*
X8991333Y-13039023D02*
X8972286Y-13067594D01*
X8972286Y-13067594D02*
X8953238Y-13086642D01*
X8953238Y-13086642D02*
X8934190Y-13096166D01*
X9124667Y-13058070D02*
X9134190Y-13048547D01*
X9134190Y-13048547D02*
X9153238Y-13039023D01*
X9153238Y-13039023D02*
X9200857Y-13039023D01*
X9200857Y-13039023D02*
X9219905Y-13048547D01*
X9219905Y-13048547D02*
X9229429Y-13058070D01*
X9229429Y-13058070D02*
X9238952Y-13077118D01*
X9238952Y-13077118D02*
X9238952Y-13096166D01*
X9238952Y-13096166D02*
X9229429Y-13124737D01*
X9229429Y-13124737D02*
X9115143Y-13239023D01*
X9115143Y-13239023D02*
X9238952Y-13239023D01*
X9410381Y-13039023D02*
X9372286Y-13039023D01*
X9372286Y-13039023D02*
X9353238Y-13048547D01*
X9353238Y-13048547D02*
X9343714Y-13058070D01*
X9343714Y-13058070D02*
X9324667Y-13086642D01*
X9324667Y-13086642D02*
X9315143Y-13124737D01*
X9315143Y-13124737D02*
X9315143Y-13200927D01*
X9315143Y-13200927D02*
X9324667Y-13219975D01*
X9324667Y-13219975D02*
X9334190Y-13229499D01*
X9334190Y-13229499D02*
X9353238Y-13239023D01*
X9353238Y-13239023D02*
X9391333Y-13239023D01*
X9391333Y-13239023D02*
X9410381Y-13229499D01*
X9410381Y-13229499D02*
X9419905Y-13219975D01*
X9419905Y-13219975D02*
X9429429Y-13200927D01*
X9429429Y-13200927D02*
X9429429Y-13153308D01*
X9429429Y-13153308D02*
X9419905Y-13134261D01*
X9419905Y-13134261D02*
X9410381Y-13124737D01*
X9410381Y-13124737D02*
X9391333Y-13115213D01*
X9391333Y-13115213D02*
X9353238Y-13115213D01*
X9353238Y-13115213D02*
X9334190Y-13124737D01*
X9334190Y-13124737D02*
X9324667Y-13134261D01*
X9324667Y-13134261D02*
X9315143Y-13153308D01*
X9553238Y-13039023D02*
X9572286Y-13039023D01*
X9572286Y-13039023D02*
X9591333Y-13048547D01*
X9591333Y-13048547D02*
X9600857Y-13058070D01*
X9600857Y-13058070D02*
X9610381Y-13077118D01*
X9610381Y-13077118D02*
X9619905Y-13115213D01*
X9619905Y-13115213D02*
X9619905Y-13162832D01*
X9619905Y-13162832D02*
X9610381Y-13200927D01*
X9610381Y-13200927D02*
X9600857Y-13219975D01*
X9600857Y-13219975D02*
X9591333Y-13229499D01*
X9591333Y-13229499D02*
X9572286Y-13239023D01*
X9572286Y-13239023D02*
X9553238Y-13239023D01*
X9553238Y-13239023D02*
X9534190Y-13229499D01*
X9534190Y-13229499D02*
X9524667Y-13219975D01*
X9524667Y-13219975D02*
X9515143Y-13200927D01*
X9515143Y-13200927D02*
X9505619Y-13162832D01*
X9505619Y-13162832D02*
X9505619Y-13115213D01*
X9505619Y-13115213D02*
X9515143Y-13077118D01*
X9515143Y-13077118D02*
X9524667Y-13058070D01*
X9524667Y-13058070D02*
X9534190Y-13048547D01*
X9534190Y-13048547D02*
X9553238Y-13039023D01*
X9696095Y-13039023D02*
X9696095Y-13077118D01*
X9772286Y-13039023D02*
X9772286Y-13077118D01*
X10067524Y-13315213D02*
X10058000Y-13305689D01*
X10058000Y-13305689D02*
X10038952Y-13277118D01*
X10038952Y-13277118D02*
X10029429Y-13258070D01*
X10029429Y-13258070D02*
X10019905Y-13229499D01*
X10019905Y-13229499D02*
X10010381Y-13181880D01*
X10010381Y-13181880D02*
X10010381Y-13143785D01*
X10010381Y-13143785D02*
X10019905Y-13096166D01*
X10019905Y-13096166D02*
X10029429Y-13067594D01*
X10029429Y-13067594D02*
X10038952Y-13048547D01*
X10038952Y-13048547D02*
X10058000Y-13019975D01*
X10058000Y-13019975D02*
X10067524Y-13010451D01*
X10229429Y-13105689D02*
X10229429Y-13239023D01*
X10181810Y-13029499D02*
X10134191Y-13172356D01*
X10134191Y-13172356D02*
X10258000Y-13172356D01*
X10486572Y-13239023D02*
X10486572Y-13039023D01*
X10572286Y-13239023D02*
X10572286Y-13134261D01*
X10572286Y-13134261D02*
X10562762Y-13115213D01*
X10562762Y-13115213D02*
X10543714Y-13105689D01*
X10543714Y-13105689D02*
X10515143Y-13105689D01*
X10515143Y-13105689D02*
X10496095Y-13115213D01*
X10496095Y-13115213D02*
X10486572Y-13124737D01*
X10696095Y-13239023D02*
X10677048Y-13229499D01*
X10677048Y-13229499D02*
X10667524Y-13219975D01*
X10667524Y-13219975D02*
X10658000Y-13200927D01*
X10658000Y-13200927D02*
X10658000Y-13143785D01*
X10658000Y-13143785D02*
X10667524Y-13124737D01*
X10667524Y-13124737D02*
X10677048Y-13115213D01*
X10677048Y-13115213D02*
X10696095Y-13105689D01*
X10696095Y-13105689D02*
X10724667Y-13105689D01*
X10724667Y-13105689D02*
X10743714Y-13115213D01*
X10743714Y-13115213D02*
X10753238Y-13124737D01*
X10753238Y-13124737D02*
X10762762Y-13143785D01*
X10762762Y-13143785D02*
X10762762Y-13200927D01*
X10762762Y-13200927D02*
X10753238Y-13219975D01*
X10753238Y-13219975D02*
X10743714Y-13229499D01*
X10743714Y-13229499D02*
X10724667Y-13239023D01*
X10724667Y-13239023D02*
X10696095Y-13239023D01*
X10877048Y-13239023D02*
X10858000Y-13229499D01*
X10858000Y-13229499D02*
X10848476Y-13210451D01*
X10848476Y-13210451D02*
X10848476Y-13039023D01*
X11029429Y-13229499D02*
X11010381Y-13239023D01*
X11010381Y-13239023D02*
X10972286Y-13239023D01*
X10972286Y-13239023D02*
X10953238Y-13229499D01*
X10953238Y-13229499D02*
X10943714Y-13210451D01*
X10943714Y-13210451D02*
X10943714Y-13134261D01*
X10943714Y-13134261D02*
X10953238Y-13115213D01*
X10953238Y-13115213D02*
X10972286Y-13105689D01*
X10972286Y-13105689D02*
X11010381Y-13105689D01*
X11010381Y-13105689D02*
X11029429Y-13115213D01*
X11029429Y-13115213D02*
X11038953Y-13134261D01*
X11038953Y-13134261D02*
X11038953Y-13153308D01*
X11038953Y-13153308D02*
X10943714Y-13172356D01*
X11115143Y-13229499D02*
X11134191Y-13239023D01*
X11134191Y-13239023D02*
X11172286Y-13239023D01*
X11172286Y-13239023D02*
X11191333Y-13229499D01*
X11191333Y-13229499D02*
X11200857Y-13210451D01*
X11200857Y-13210451D02*
X11200857Y-13200927D01*
X11200857Y-13200927D02*
X11191333Y-13181880D01*
X11191333Y-13181880D02*
X11172286Y-13172356D01*
X11172286Y-13172356D02*
X11143714Y-13172356D01*
X11143714Y-13172356D02*
X11124667Y-13162832D01*
X11124667Y-13162832D02*
X11115143Y-13143785D01*
X11115143Y-13143785D02*
X11115143Y-13134261D01*
X11115143Y-13134261D02*
X11124667Y-13115213D01*
X11124667Y-13115213D02*
X11143714Y-13105689D01*
X11143714Y-13105689D02*
X11172286Y-13105689D01*
X11172286Y-13105689D02*
X11191333Y-13115213D01*
X11267524Y-13315213D02*
X11277048Y-13305689D01*
X11277048Y-13305689D02*
X11296095Y-13277118D01*
X11296095Y-13277118D02*
X11305619Y-13258070D01*
X11305619Y-13258070D02*
X11315143Y-13229499D01*
X11315143Y-13229499D02*
X11324667Y-13181880D01*
X11324667Y-13181880D02*
X11324667Y-13143785D01*
X11324667Y-13143785D02*
X11315143Y-13096166D01*
X11315143Y-13096166D02*
X11305619Y-13067594D01*
X11305619Y-13067594D02*
X11296095Y-13048547D01*
X11296095Y-13048547D02*
X11277048Y-13019975D01*
X11277048Y-13019975D02*
X11267524Y-13010451D01*
X11629429Y-13315213D02*
X11619905Y-13305689D01*
X11619905Y-13305689D02*
X11600857Y-13277118D01*
X11600857Y-13277118D02*
X11591333Y-13258070D01*
X11591333Y-13258070D02*
X11581810Y-13229499D01*
X11581810Y-13229499D02*
X11572286Y-13181880D01*
X11572286Y-13181880D02*
X11572286Y-13143785D01*
X11572286Y-13143785D02*
X11581810Y-13096166D01*
X11581810Y-13096166D02*
X11591333Y-13067594D01*
X11591333Y-13067594D02*
X11600857Y-13048547D01*
X11600857Y-13048547D02*
X11619905Y-13019975D01*
X11619905Y-13019975D02*
X11629429Y-13010451D01*
X11705619Y-13105689D02*
X11705619Y-13239023D01*
X11705619Y-13124737D02*
X11715143Y-13115213D01*
X11715143Y-13115213D02*
X11734191Y-13105689D01*
X11734191Y-13105689D02*
X11762762Y-13105689D01*
X11762762Y-13105689D02*
X11781810Y-13115213D01*
X11781810Y-13115213D02*
X11791333Y-13134261D01*
X11791333Y-13134261D02*
X11791333Y-13239023D01*
X11915143Y-13239023D02*
X11896095Y-13229499D01*
X11896095Y-13229499D02*
X11886572Y-13219975D01*
X11886572Y-13219975D02*
X11877048Y-13200927D01*
X11877048Y-13200927D02*
X11877048Y-13143785D01*
X11877048Y-13143785D02*
X11886572Y-13124737D01*
X11886572Y-13124737D02*
X11896095Y-13115213D01*
X11896095Y-13115213D02*
X11915143Y-13105689D01*
X11915143Y-13105689D02*
X11943714Y-13105689D01*
X11943714Y-13105689D02*
X11962762Y-13115213D01*
X11962762Y-13115213D02*
X11972286Y-13124737D01*
X11972286Y-13124737D02*
X11981810Y-13143785D01*
X11981810Y-13143785D02*
X11981810Y-13200927D01*
X11981810Y-13200927D02*
X11972286Y-13219975D01*
X11972286Y-13219975D02*
X11962762Y-13229499D01*
X11962762Y-13229499D02*
X11943714Y-13239023D01*
X11943714Y-13239023D02*
X11915143Y-13239023D01*
X12038953Y-13105689D02*
X12115143Y-13105689D01*
X12067524Y-13039023D02*
X12067524Y-13210451D01*
X12067524Y-13210451D02*
X12077048Y-13229499D01*
X12077048Y-13229499D02*
X12096095Y-13239023D01*
X12096095Y-13239023D02*
X12115143Y-13239023D01*
X12334191Y-13105689D02*
X12334191Y-13305689D01*
X12334191Y-13115213D02*
X12353238Y-13105689D01*
X12353238Y-13105689D02*
X12391334Y-13105689D01*
X12391334Y-13105689D02*
X12410381Y-13115213D01*
X12410381Y-13115213D02*
X12419905Y-13124737D01*
X12419905Y-13124737D02*
X12429429Y-13143785D01*
X12429429Y-13143785D02*
X12429429Y-13200927D01*
X12429429Y-13200927D02*
X12419905Y-13219975D01*
X12419905Y-13219975D02*
X12410381Y-13229499D01*
X12410381Y-13229499D02*
X12391334Y-13239023D01*
X12391334Y-13239023D02*
X12353238Y-13239023D01*
X12353238Y-13239023D02*
X12334191Y-13229499D01*
X12543714Y-13239023D02*
X12524667Y-13229499D01*
X12524667Y-13229499D02*
X12515143Y-13210451D01*
X12515143Y-13210451D02*
X12515143Y-13039023D01*
X12705619Y-13239023D02*
X12705619Y-13134261D01*
X12705619Y-13134261D02*
X12696095Y-13115213D01*
X12696095Y-13115213D02*
X12677048Y-13105689D01*
X12677048Y-13105689D02*
X12638953Y-13105689D01*
X12638953Y-13105689D02*
X12619905Y-13115213D01*
X12705619Y-13229499D02*
X12686572Y-13239023D01*
X12686572Y-13239023D02*
X12638953Y-13239023D01*
X12638953Y-13239023D02*
X12619905Y-13229499D01*
X12619905Y-13229499D02*
X12610381Y-13210451D01*
X12610381Y-13210451D02*
X12610381Y-13191404D01*
X12610381Y-13191404D02*
X12619905Y-13172356D01*
X12619905Y-13172356D02*
X12638953Y-13162832D01*
X12638953Y-13162832D02*
X12686572Y-13162832D01*
X12686572Y-13162832D02*
X12705619Y-13153308D01*
X12772286Y-13105689D02*
X12848476Y-13105689D01*
X12800857Y-13039023D02*
X12800857Y-13210451D01*
X12800857Y-13210451D02*
X12810381Y-13229499D01*
X12810381Y-13229499D02*
X12829429Y-13239023D01*
X12829429Y-13239023D02*
X12848476Y-13239023D01*
X12991334Y-13229499D02*
X12972286Y-13239023D01*
X12972286Y-13239023D02*
X12934191Y-13239023D01*
X12934191Y-13239023D02*
X12915143Y-13229499D01*
X12915143Y-13229499D02*
X12905619Y-13210451D01*
X12905619Y-13210451D02*
X12905619Y-13134261D01*
X12905619Y-13134261D02*
X12915143Y-13115213D01*
X12915143Y-13115213D02*
X12934191Y-13105689D01*
X12934191Y-13105689D02*
X12972286Y-13105689D01*
X12972286Y-13105689D02*
X12991334Y-13115213D01*
X12991334Y-13115213D02*
X13000857Y-13134261D01*
X13000857Y-13134261D02*
X13000857Y-13153308D01*
X13000857Y-13153308D02*
X12905619Y-13172356D01*
X13172286Y-13239023D02*
X13172286Y-13039023D01*
X13172286Y-13229499D02*
X13153238Y-13239023D01*
X13153238Y-13239023D02*
X13115143Y-13239023D01*
X13115143Y-13239023D02*
X13096095Y-13229499D01*
X13096095Y-13229499D02*
X13086572Y-13219975D01*
X13086572Y-13219975D02*
X13077048Y-13200927D01*
X13077048Y-13200927D02*
X13077048Y-13143785D01*
X13077048Y-13143785D02*
X13086572Y-13124737D01*
X13086572Y-13124737D02*
X13096095Y-13115213D01*
X13096095Y-13115213D02*
X13115143Y-13105689D01*
X13115143Y-13105689D02*
X13153238Y-13105689D01*
X13153238Y-13105689D02*
X13172286Y-13115213D01*
X13248476Y-13315213D02*
X13258000Y-13305689D01*
X13258000Y-13305689D02*
X13277048Y-13277118D01*
X13277048Y-13277118D02*
X13286572Y-13258070D01*
X13286572Y-13258070D02*
X13296095Y-13229499D01*
X13296095Y-13229499D02*
X13305619Y-13181880D01*
X13305619Y-13181880D02*
X13305619Y-13143785D01*
X13305619Y-13143785D02*
X13296095Y-13096166D01*
X13296095Y-13096166D02*
X13286572Y-13067594D01*
X13286572Y-13067594D02*
X13277048Y-13048547D01*
X13277048Y-13048547D02*
X13258000Y-13019975D01*
X13258000Y-13019975D02*
X13248476Y-13010451D01*
X6492461Y-13467539D02*
G75*
G02*
X6292461Y-13467539I-100000J0D01*
G01*
X6292461Y-13467539D02*
G75*
G02*
X6492461Y-13467539I100000J0D01*
G01*
X6838952Y-13425689D02*
X6838952Y-13559023D01*
X6791333Y-13349499D02*
X6743714Y-13492356D01*
X6743714Y-13492356D02*
X6867523Y-13492356D01*
X6943714Y-13539975D02*
X6953238Y-13549499D01*
X6953238Y-13549499D02*
X6943714Y-13559023D01*
X6943714Y-13559023D02*
X6934190Y-13549499D01*
X6934190Y-13549499D02*
X6943714Y-13539975D01*
X6943714Y-13539975D02*
X6943714Y-13559023D01*
X7029428Y-13378070D02*
X7038952Y-13368547D01*
X7038952Y-13368547D02*
X7058000Y-13359023D01*
X7058000Y-13359023D02*
X7105619Y-13359023D01*
X7105619Y-13359023D02*
X7124666Y-13368547D01*
X7124666Y-13368547D02*
X7134190Y-13378070D01*
X7134190Y-13378070D02*
X7143714Y-13397118D01*
X7143714Y-13397118D02*
X7143714Y-13416166D01*
X7143714Y-13416166D02*
X7134190Y-13444737D01*
X7134190Y-13444737D02*
X7019904Y-13559023D01*
X7019904Y-13559023D02*
X7143714Y-13559023D01*
X7219904Y-13378070D02*
X7229428Y-13368547D01*
X7229428Y-13368547D02*
X7248476Y-13359023D01*
X7248476Y-13359023D02*
X7296095Y-13359023D01*
X7296095Y-13359023D02*
X7315143Y-13368547D01*
X7315143Y-13368547D02*
X7324666Y-13378070D01*
X7324666Y-13378070D02*
X7334190Y-13397118D01*
X7334190Y-13397118D02*
X7334190Y-13416166D01*
X7334190Y-13416166D02*
X7324666Y-13444737D01*
X7324666Y-13444737D02*
X7210381Y-13559023D01*
X7210381Y-13559023D02*
X7334190Y-13559023D01*
X7458000Y-13359023D02*
X7477047Y-13359023D01*
X7477047Y-13359023D02*
X7496095Y-13368547D01*
X7496095Y-13368547D02*
X7505619Y-13378070D01*
X7505619Y-13378070D02*
X7515143Y-13397118D01*
X7515143Y-13397118D02*
X7524666Y-13435213D01*
X7524666Y-13435213D02*
X7524666Y-13482832D01*
X7524666Y-13482832D02*
X7515143Y-13520927D01*
X7515143Y-13520927D02*
X7505619Y-13539975D01*
X7505619Y-13539975D02*
X7496095Y-13549499D01*
X7496095Y-13549499D02*
X7477047Y-13559023D01*
X7477047Y-13559023D02*
X7458000Y-13559023D01*
X7458000Y-13559023D02*
X7438952Y-13549499D01*
X7438952Y-13549499D02*
X7429428Y-13539975D01*
X7429428Y-13539975D02*
X7419904Y-13520927D01*
X7419904Y-13520927D02*
X7410381Y-13482832D01*
X7410381Y-13482832D02*
X7410381Y-13435213D01*
X7410381Y-13435213D02*
X7419904Y-13397118D01*
X7419904Y-13397118D02*
X7429428Y-13378070D01*
X7429428Y-13378070D02*
X7438952Y-13368547D01*
X7438952Y-13368547D02*
X7458000Y-13359023D01*
X7610381Y-13559023D02*
X7610381Y-13425689D01*
X7610381Y-13444737D02*
X7619904Y-13435213D01*
X7619904Y-13435213D02*
X7638952Y-13425689D01*
X7638952Y-13425689D02*
X7667524Y-13425689D01*
X7667524Y-13425689D02*
X7686571Y-13435213D01*
X7686571Y-13435213D02*
X7696095Y-13454261D01*
X7696095Y-13454261D02*
X7696095Y-13559023D01*
X7696095Y-13454261D02*
X7705619Y-13435213D01*
X7705619Y-13435213D02*
X7724666Y-13425689D01*
X7724666Y-13425689D02*
X7753238Y-13425689D01*
X7753238Y-13425689D02*
X7772285Y-13435213D01*
X7772285Y-13435213D02*
X7781809Y-13454261D01*
X7781809Y-13454261D02*
X7781809Y-13559023D01*
X7877047Y-13559023D02*
X7877047Y-13425689D01*
X7877047Y-13444737D02*
X7886571Y-13435213D01*
X7886571Y-13435213D02*
X7905619Y-13425689D01*
X7905619Y-13425689D02*
X7934190Y-13425689D01*
X7934190Y-13425689D02*
X7953238Y-13435213D01*
X7953238Y-13435213D02*
X7962762Y-13454261D01*
X7962762Y-13454261D02*
X7962762Y-13559023D01*
X7962762Y-13454261D02*
X7972285Y-13435213D01*
X7972285Y-13435213D02*
X7991333Y-13425689D01*
X7991333Y-13425689D02*
X8019904Y-13425689D01*
X8019904Y-13425689D02*
X8038952Y-13435213D01*
X8038952Y-13435213D02*
X8048476Y-13454261D01*
X8048476Y-13454261D02*
X8048476Y-13559023D01*
X8438952Y-13349499D02*
X8267524Y-13606642D01*
X8696095Y-13359023D02*
X8715143Y-13359023D01*
X8715143Y-13359023D02*
X8734190Y-13368547D01*
X8734190Y-13368547D02*
X8743714Y-13378070D01*
X8743714Y-13378070D02*
X8753238Y-13397118D01*
X8753238Y-13397118D02*
X8762762Y-13435213D01*
X8762762Y-13435213D02*
X8762762Y-13482832D01*
X8762762Y-13482832D02*
X8753238Y-13520927D01*
X8753238Y-13520927D02*
X8743714Y-13539975D01*
X8743714Y-13539975D02*
X8734190Y-13549499D01*
X8734190Y-13549499D02*
X8715143Y-13559023D01*
X8715143Y-13559023D02*
X8696095Y-13559023D01*
X8696095Y-13559023D02*
X8677048Y-13549499D01*
X8677048Y-13549499D02*
X8667524Y-13539975D01*
X8667524Y-13539975D02*
X8658000Y-13520927D01*
X8658000Y-13520927D02*
X8648476Y-13482832D01*
X8648476Y-13482832D02*
X8648476Y-13435213D01*
X8648476Y-13435213D02*
X8658000Y-13397118D01*
X8658000Y-13397118D02*
X8667524Y-13378070D01*
X8667524Y-13378070D02*
X8677048Y-13368547D01*
X8677048Y-13368547D02*
X8696095Y-13359023D01*
X8848476Y-13539975D02*
X8858000Y-13549499D01*
X8858000Y-13549499D02*
X8848476Y-13559023D01*
X8848476Y-13559023D02*
X8838952Y-13549499D01*
X8838952Y-13549499D02*
X8848476Y-13539975D01*
X8848476Y-13539975D02*
X8848476Y-13559023D01*
X9048476Y-13559023D02*
X8934190Y-13559023D01*
X8991333Y-13559023D02*
X8991333Y-13359023D01*
X8991333Y-13359023D02*
X8972286Y-13387594D01*
X8972286Y-13387594D02*
X8953238Y-13406642D01*
X8953238Y-13406642D02*
X8934190Y-13416166D01*
X9219905Y-13359023D02*
X9181809Y-13359023D01*
X9181809Y-13359023D02*
X9162762Y-13368547D01*
X9162762Y-13368547D02*
X9153238Y-13378070D01*
X9153238Y-13378070D02*
X9134190Y-13406642D01*
X9134190Y-13406642D02*
X9124667Y-13444737D01*
X9124667Y-13444737D02*
X9124667Y-13520927D01*
X9124667Y-13520927D02*
X9134190Y-13539975D01*
X9134190Y-13539975D02*
X9143714Y-13549499D01*
X9143714Y-13549499D02*
X9162762Y-13559023D01*
X9162762Y-13559023D02*
X9200857Y-13559023D01*
X9200857Y-13559023D02*
X9219905Y-13549499D01*
X9219905Y-13549499D02*
X9229429Y-13539975D01*
X9229429Y-13539975D02*
X9238952Y-13520927D01*
X9238952Y-13520927D02*
X9238952Y-13473308D01*
X9238952Y-13473308D02*
X9229429Y-13454261D01*
X9229429Y-13454261D02*
X9219905Y-13444737D01*
X9219905Y-13444737D02*
X9200857Y-13435213D01*
X9200857Y-13435213D02*
X9162762Y-13435213D01*
X9162762Y-13435213D02*
X9143714Y-13444737D01*
X9143714Y-13444737D02*
X9134190Y-13454261D01*
X9134190Y-13454261D02*
X9124667Y-13473308D01*
X9410381Y-13359023D02*
X9372286Y-13359023D01*
X9372286Y-13359023D02*
X9353238Y-13368547D01*
X9353238Y-13368547D02*
X9343714Y-13378070D01*
X9343714Y-13378070D02*
X9324667Y-13406642D01*
X9324667Y-13406642D02*
X9315143Y-13444737D01*
X9315143Y-13444737D02*
X9315143Y-13520927D01*
X9315143Y-13520927D02*
X9324667Y-13539975D01*
X9324667Y-13539975D02*
X9334190Y-13549499D01*
X9334190Y-13549499D02*
X9353238Y-13559023D01*
X9353238Y-13559023D02*
X9391333Y-13559023D01*
X9391333Y-13559023D02*
X9410381Y-13549499D01*
X9410381Y-13549499D02*
X9419905Y-13539975D01*
X9419905Y-13539975D02*
X9429429Y-13520927D01*
X9429429Y-13520927D02*
X9429429Y-13473308D01*
X9429429Y-13473308D02*
X9419905Y-13454261D01*
X9419905Y-13454261D02*
X9410381Y-13444737D01*
X9410381Y-13444737D02*
X9391333Y-13435213D01*
X9391333Y-13435213D02*
X9353238Y-13435213D01*
X9353238Y-13435213D02*
X9334190Y-13444737D01*
X9334190Y-13444737D02*
X9324667Y-13454261D01*
X9324667Y-13454261D02*
X9315143Y-13473308D01*
X9619905Y-13559023D02*
X9505619Y-13559023D01*
X9562762Y-13559023D02*
X9562762Y-13359023D01*
X9562762Y-13359023D02*
X9543714Y-13387594D01*
X9543714Y-13387594D02*
X9524667Y-13406642D01*
X9524667Y-13406642D02*
X9505619Y-13416166D01*
X9696095Y-13359023D02*
X9696095Y-13397118D01*
X9772286Y-13359023D02*
X9772286Y-13397118D01*
X10067524Y-13635213D02*
X10058000Y-13625689D01*
X10058000Y-13625689D02*
X10038952Y-13597118D01*
X10038952Y-13597118D02*
X10029429Y-13578070D01*
X10029429Y-13578070D02*
X10019905Y-13549499D01*
X10019905Y-13549499D02*
X10010381Y-13501880D01*
X10010381Y-13501880D02*
X10010381Y-13463785D01*
X10010381Y-13463785D02*
X10019905Y-13416166D01*
X10019905Y-13416166D02*
X10029429Y-13387594D01*
X10029429Y-13387594D02*
X10038952Y-13368547D01*
X10038952Y-13368547D02*
X10058000Y-13339975D01*
X10058000Y-13339975D02*
X10067524Y-13330451D01*
X10134191Y-13378070D02*
X10143714Y-13368547D01*
X10143714Y-13368547D02*
X10162762Y-13359023D01*
X10162762Y-13359023D02*
X10210381Y-13359023D01*
X10210381Y-13359023D02*
X10229429Y-13368547D01*
X10229429Y-13368547D02*
X10238952Y-13378070D01*
X10238952Y-13378070D02*
X10248476Y-13397118D01*
X10248476Y-13397118D02*
X10248476Y-13416166D01*
X10248476Y-13416166D02*
X10238952Y-13444737D01*
X10238952Y-13444737D02*
X10124667Y-13559023D01*
X10124667Y-13559023D02*
X10248476Y-13559023D01*
X10486572Y-13559023D02*
X10486572Y-13359023D01*
X10572286Y-13559023D02*
X10572286Y-13454261D01*
X10572286Y-13454261D02*
X10562762Y-13435213D01*
X10562762Y-13435213D02*
X10543714Y-13425689D01*
X10543714Y-13425689D02*
X10515143Y-13425689D01*
X10515143Y-13425689D02*
X10496095Y-13435213D01*
X10496095Y-13435213D02*
X10486572Y-13444737D01*
X10696095Y-13559023D02*
X10677048Y-13549499D01*
X10677048Y-13549499D02*
X10667524Y-13539975D01*
X10667524Y-13539975D02*
X10658000Y-13520927D01*
X10658000Y-13520927D02*
X10658000Y-13463785D01*
X10658000Y-13463785D02*
X10667524Y-13444737D01*
X10667524Y-13444737D02*
X10677048Y-13435213D01*
X10677048Y-13435213D02*
X10696095Y-13425689D01*
X10696095Y-13425689D02*
X10724667Y-13425689D01*
X10724667Y-13425689D02*
X10743714Y-13435213D01*
X10743714Y-13435213D02*
X10753238Y-13444737D01*
X10753238Y-13444737D02*
X10762762Y-13463785D01*
X10762762Y-13463785D02*
X10762762Y-13520927D01*
X10762762Y-13520927D02*
X10753238Y-13539975D01*
X10753238Y-13539975D02*
X10743714Y-13549499D01*
X10743714Y-13549499D02*
X10724667Y-13559023D01*
X10724667Y-13559023D02*
X10696095Y-13559023D01*
X10877048Y-13559023D02*
X10858000Y-13549499D01*
X10858000Y-13549499D02*
X10848476Y-13530451D01*
X10848476Y-13530451D02*
X10848476Y-13359023D01*
X11029429Y-13549499D02*
X11010381Y-13559023D01*
X11010381Y-13559023D02*
X10972286Y-13559023D01*
X10972286Y-13559023D02*
X10953238Y-13549499D01*
X10953238Y-13549499D02*
X10943714Y-13530451D01*
X10943714Y-13530451D02*
X10943714Y-13454261D01*
X10943714Y-13454261D02*
X10953238Y-13435213D01*
X10953238Y-13435213D02*
X10972286Y-13425689D01*
X10972286Y-13425689D02*
X11010381Y-13425689D01*
X11010381Y-13425689D02*
X11029429Y-13435213D01*
X11029429Y-13435213D02*
X11038953Y-13454261D01*
X11038953Y-13454261D02*
X11038953Y-13473308D01*
X11038953Y-13473308D02*
X10943714Y-13492356D01*
X11115143Y-13549499D02*
X11134191Y-13559023D01*
X11134191Y-13559023D02*
X11172286Y-13559023D01*
X11172286Y-13559023D02*
X11191333Y-13549499D01*
X11191333Y-13549499D02*
X11200857Y-13530451D01*
X11200857Y-13530451D02*
X11200857Y-13520927D01*
X11200857Y-13520927D02*
X11191333Y-13501880D01*
X11191333Y-13501880D02*
X11172286Y-13492356D01*
X11172286Y-13492356D02*
X11143714Y-13492356D01*
X11143714Y-13492356D02*
X11124667Y-13482832D01*
X11124667Y-13482832D02*
X11115143Y-13463785D01*
X11115143Y-13463785D02*
X11115143Y-13454261D01*
X11115143Y-13454261D02*
X11124667Y-13435213D01*
X11124667Y-13435213D02*
X11143714Y-13425689D01*
X11143714Y-13425689D02*
X11172286Y-13425689D01*
X11172286Y-13425689D02*
X11191333Y-13435213D01*
X11267524Y-13635213D02*
X11277048Y-13625689D01*
X11277048Y-13625689D02*
X11296095Y-13597118D01*
X11296095Y-13597118D02*
X11305619Y-13578070D01*
X11305619Y-13578070D02*
X11315143Y-13549499D01*
X11315143Y-13549499D02*
X11324667Y-13501880D01*
X11324667Y-13501880D02*
X11324667Y-13463785D01*
X11324667Y-13463785D02*
X11315143Y-13416166D01*
X11315143Y-13416166D02*
X11305619Y-13387594D01*
X11305619Y-13387594D02*
X11296095Y-13368547D01*
X11296095Y-13368547D02*
X11277048Y-13339975D01*
X11277048Y-13339975D02*
X11267524Y-13330451D01*
X11629429Y-13635213D02*
X11619905Y-13625689D01*
X11619905Y-13625689D02*
X11600857Y-13597118D01*
X11600857Y-13597118D02*
X11591333Y-13578070D01*
X11591333Y-13578070D02*
X11581810Y-13549499D01*
X11581810Y-13549499D02*
X11572286Y-13501880D01*
X11572286Y-13501880D02*
X11572286Y-13463785D01*
X11572286Y-13463785D02*
X11581810Y-13416166D01*
X11581810Y-13416166D02*
X11591333Y-13387594D01*
X11591333Y-13387594D02*
X11600857Y-13368547D01*
X11600857Y-13368547D02*
X11619905Y-13339975D01*
X11619905Y-13339975D02*
X11629429Y-13330451D01*
X11705619Y-13425689D02*
X11705619Y-13559023D01*
X11705619Y-13444737D02*
X11715143Y-13435213D01*
X11715143Y-13435213D02*
X11734191Y-13425689D01*
X11734191Y-13425689D02*
X11762762Y-13425689D01*
X11762762Y-13425689D02*
X11781810Y-13435213D01*
X11781810Y-13435213D02*
X11791333Y-13454261D01*
X11791333Y-13454261D02*
X11791333Y-13559023D01*
X11915143Y-13559023D02*
X11896095Y-13549499D01*
X11896095Y-13549499D02*
X11886572Y-13539975D01*
X11886572Y-13539975D02*
X11877048Y-13520927D01*
X11877048Y-13520927D02*
X11877048Y-13463785D01*
X11877048Y-13463785D02*
X11886572Y-13444737D01*
X11886572Y-13444737D02*
X11896095Y-13435213D01*
X11896095Y-13435213D02*
X11915143Y-13425689D01*
X11915143Y-13425689D02*
X11943714Y-13425689D01*
X11943714Y-13425689D02*
X11962762Y-13435213D01*
X11962762Y-13435213D02*
X11972286Y-13444737D01*
X11972286Y-13444737D02*
X11981810Y-13463785D01*
X11981810Y-13463785D02*
X11981810Y-13520927D01*
X11981810Y-13520927D02*
X11972286Y-13539975D01*
X11972286Y-13539975D02*
X11962762Y-13549499D01*
X11962762Y-13549499D02*
X11943714Y-13559023D01*
X11943714Y-13559023D02*
X11915143Y-13559023D01*
X12038953Y-13425689D02*
X12115143Y-13425689D01*
X12067524Y-13359023D02*
X12067524Y-13530451D01*
X12067524Y-13530451D02*
X12077048Y-13549499D01*
X12077048Y-13549499D02*
X12096095Y-13559023D01*
X12096095Y-13559023D02*
X12115143Y-13559023D01*
X12334191Y-13425689D02*
X12334191Y-13625689D01*
X12334191Y-13435213D02*
X12353238Y-13425689D01*
X12353238Y-13425689D02*
X12391334Y-13425689D01*
X12391334Y-13425689D02*
X12410381Y-13435213D01*
X12410381Y-13435213D02*
X12419905Y-13444737D01*
X12419905Y-13444737D02*
X12429429Y-13463785D01*
X12429429Y-13463785D02*
X12429429Y-13520927D01*
X12429429Y-13520927D02*
X12419905Y-13539975D01*
X12419905Y-13539975D02*
X12410381Y-13549499D01*
X12410381Y-13549499D02*
X12391334Y-13559023D01*
X12391334Y-13559023D02*
X12353238Y-13559023D01*
X12353238Y-13559023D02*
X12334191Y-13549499D01*
X12543714Y-13559023D02*
X12524667Y-13549499D01*
X12524667Y-13549499D02*
X12515143Y-13530451D01*
X12515143Y-13530451D02*
X12515143Y-13359023D01*
X12705619Y-13559023D02*
X12705619Y-13454261D01*
X12705619Y-13454261D02*
X12696095Y-13435213D01*
X12696095Y-13435213D02*
X12677048Y-13425689D01*
X12677048Y-13425689D02*
X12638953Y-13425689D01*
X12638953Y-13425689D02*
X12619905Y-13435213D01*
X12705619Y-13549499D02*
X12686572Y-13559023D01*
X12686572Y-13559023D02*
X12638953Y-13559023D01*
X12638953Y-13559023D02*
X12619905Y-13549499D01*
X12619905Y-13549499D02*
X12610381Y-13530451D01*
X12610381Y-13530451D02*
X12610381Y-13511404D01*
X12610381Y-13511404D02*
X12619905Y-13492356D01*
X12619905Y-13492356D02*
X12638953Y-13482832D01*
X12638953Y-13482832D02*
X12686572Y-13482832D01*
X12686572Y-13482832D02*
X12705619Y-13473308D01*
X12772286Y-13425689D02*
X12848476Y-13425689D01*
X12800857Y-13359023D02*
X12800857Y-13530451D01*
X12800857Y-13530451D02*
X12810381Y-13549499D01*
X12810381Y-13549499D02*
X12829429Y-13559023D01*
X12829429Y-13559023D02*
X12848476Y-13559023D01*
X12991334Y-13549499D02*
X12972286Y-13559023D01*
X12972286Y-13559023D02*
X12934191Y-13559023D01*
X12934191Y-13559023D02*
X12915143Y-13549499D01*
X12915143Y-13549499D02*
X12905619Y-13530451D01*
X12905619Y-13530451D02*
X12905619Y-13454261D01*
X12905619Y-13454261D02*
X12915143Y-13435213D01*
X12915143Y-13435213D02*
X12934191Y-13425689D01*
X12934191Y-13425689D02*
X12972286Y-13425689D01*
X12972286Y-13425689D02*
X12991334Y-13435213D01*
X12991334Y-13435213D02*
X13000857Y-13454261D01*
X13000857Y-13454261D02*
X13000857Y-13473308D01*
X13000857Y-13473308D02*
X12905619Y-13492356D01*
X13172286Y-13559023D02*
X13172286Y-13359023D01*
X13172286Y-13549499D02*
X13153238Y-13559023D01*
X13153238Y-13559023D02*
X13115143Y-13559023D01*
X13115143Y-13559023D02*
X13096095Y-13549499D01*
X13096095Y-13549499D02*
X13086572Y-13539975D01*
X13086572Y-13539975D02*
X13077048Y-13520927D01*
X13077048Y-13520927D02*
X13077048Y-13463785D01*
X13077048Y-13463785D02*
X13086572Y-13444737D01*
X13086572Y-13444737D02*
X13096095Y-13435213D01*
X13096095Y-13435213D02*
X13115143Y-13425689D01*
X13115143Y-13425689D02*
X13153238Y-13425689D01*
X13153238Y-13425689D02*
X13172286Y-13435213D01*
X13248476Y-13635213D02*
X13258000Y-13625689D01*
X13258000Y-13625689D02*
X13277048Y-13597118D01*
X13277048Y-13597118D02*
X13286572Y-13578070D01*
X13286572Y-13578070D02*
X13296095Y-13549499D01*
X13296095Y-13549499D02*
X13305619Y-13501880D01*
X13305619Y-13501880D02*
X13305619Y-13463785D01*
X13305619Y-13463785D02*
X13296095Y-13416166D01*
X13296095Y-13416166D02*
X13286572Y-13387594D01*
X13286572Y-13387594D02*
X13277048Y-13368547D01*
X13277048Y-13368547D02*
X13258000Y-13339975D01*
X13258000Y-13339975D02*
X13248476Y-13330451D01*
M02*
