%TF.GenerationSoftware,KiCad,Pcbnew,8.0.2*%
%TF.CreationDate,2024-07-11T10:11:00+02:00*%
%TF.ProjectId,HomeAssistant,486f6d65-4173-4736-9973-74616e742e6b,0.1*%
%TF.SameCoordinates,Original*%
%TF.FileFunction,Soldermask,Top*%
%TF.FilePolarity,Negative*%
%FSLAX46Y46*%
G04 Gerber Fmt 4.6, Leading zero omitted, Abs format (unit mm)*
G04 Created by KiCad (PCBNEW 8.0.2) date 2024-07-11 10:11:00*
%MOMM*%
%LPD*%
G01*
G04 APERTURE LIST*
G04 Aperture macros list*
%AMRoundRect*
0 Rectangle with rounded corners*
0 $1 Rounding radius*
0 $2 $3 $4 $5 $6 $7 $8 $9 X,Y pos of 4 corners*
0 Add a 4 corners polygon primitive as box body*
4,1,4,$2,$3,$4,$5,$6,$7,$8,$9,$2,$3,0*
0 Add four circle primitives for the rounded corners*
1,1,$1+$1,$2,$3*
1,1,$1+$1,$4,$5*
1,1,$1+$1,$6,$7*
1,1,$1+$1,$8,$9*
0 Add four rect primitives between the rounded corners*
20,1,$1+$1,$2,$3,$4,$5,0*
20,1,$1+$1,$4,$5,$6,$7,0*
20,1,$1+$1,$6,$7,$8,$9,0*
20,1,$1+$1,$8,$9,$2,$3,0*%
G04 Aperture macros list end*
%ADD10C,0.010000*%
%ADD11RoundRect,0.250000X0.450000X-0.262500X0.450000X0.262500X-0.450000X0.262500X-0.450000X-0.262500X0*%
%ADD12RoundRect,0.250000X0.475000X-0.250000X0.475000X0.250000X-0.475000X0.250000X-0.475000X-0.250000X0*%
%ADD13RoundRect,0.250000X0.450000X0.425000X-0.450000X0.425000X-0.450000X-0.425000X0.450000X-0.425000X0*%
%ADD14RoundRect,0.150000X-0.587500X-0.150000X0.587500X-0.150000X0.587500X0.150000X-0.587500X0.150000X0*%
%ADD15RoundRect,0.250000X0.250000X0.475000X-0.250000X0.475000X-0.250000X-0.475000X0.250000X-0.475000X0*%
%ADD16R,1.500000X2.700000*%
%ADD17RoundRect,0.100000X0.100000X-0.637500X0.100000X0.637500X-0.100000X0.637500X-0.100000X-0.637500X0*%
%ADD18RoundRect,0.102000X-0.400000X-0.200000X0.400000X-0.200000X0.400000X0.200000X-0.400000X0.200000X0*%
%ADD19RoundRect,0.102000X-0.200000X-0.400000X0.200000X-0.400000X0.200000X0.400000X-0.200000X0.400000X0*%
%ADD20RoundRect,0.102000X-0.600000X-0.600000X0.600000X-0.600000X0.600000X0.600000X-0.600000X0.600000X0*%
%ADD21RoundRect,0.102000X-0.400000X-0.400000X0.400000X-0.400000X0.400000X0.400000X-0.400000X0.400000X0*%
%ADD22RoundRect,0.102000X0.600000X-0.800000X0.600000X0.800000X-0.600000X0.800000X-0.600000X-0.800000X0*%
%ADD23RoundRect,0.102000X1.650000X-0.800000X1.650000X0.800000X-1.650000X0.800000X-1.650000X-0.800000X0*%
%ADD24RoundRect,0.250000X-0.450000X0.262500X-0.450000X-0.262500X0.450000X-0.262500X0.450000X0.262500X0*%
%ADD25R,1.500000X1.000000*%
%ADD26RoundRect,0.250000X-0.475000X0.250000X-0.475000X-0.250000X0.475000X-0.250000X0.475000X0.250000X0*%
%ADD27RoundRect,0.243750X-0.243750X-0.456250X0.243750X-0.456250X0.243750X0.456250X-0.243750X0.456250X0*%
%ADD28R,1.700000X1.700000*%
%ADD29O,1.700000X1.700000*%
%ADD30C,3.200000*%
%ADD31RoundRect,0.250000X-0.250000X-0.475000X0.250000X-0.475000X0.250000X0.475000X-0.250000X0.475000X0*%
%ADD32RoundRect,0.250000X-0.262500X-0.450000X0.262500X-0.450000X0.262500X0.450000X-0.262500X0.450000X0*%
%ADD33C,7.000000*%
%ADD34RoundRect,0.250000X-0.620000X-0.845000X0.620000X-0.845000X0.620000X0.845000X-0.620000X0.845000X0*%
%ADD35O,1.740000X2.190000*%
%ADD36R,1.220000X0.650000*%
%ADD37RoundRect,0.175000X0.550000X0.175000X-0.550000X0.175000X-0.550000X-0.175000X0.550000X-0.175000X0*%
%ADD38RoundRect,0.250000X-0.450000X-0.425000X0.450000X-0.425000X0.450000X0.425000X-0.450000X0.425000X0*%
%ADD39RoundRect,0.250000X0.262500X0.450000X-0.262500X0.450000X-0.262500X-0.450000X0.262500X-0.450000X0*%
%ADD40RoundRect,0.055580X0.651420X0.341420X-0.651420X0.341420X-0.651420X-0.341420X0.651420X-0.341420X0*%
%ADD41RoundRect,0.243750X0.456250X-0.243750X0.456250X0.243750X-0.456250X0.243750X-0.456250X-0.243750X0*%
%ADD42RoundRect,0.243750X0.243750X0.456250X-0.243750X0.456250X-0.243750X-0.456250X0.243750X-0.456250X0*%
%ADD43RoundRect,0.102000X-0.675000X0.200000X-0.675000X-0.200000X0.675000X-0.200000X0.675000X0.200000X0*%
%ADD44O,1.004000X1.804000*%
%ADD45O,1.704000X0.954000*%
%ADD46RoundRect,0.102000X-0.775000X0.750000X-0.775000X-0.750000X0.775000X-0.750000X0.775000X0.750000X0*%
%ADD47RoundRect,0.102000X-0.135000X0.495000X-0.135000X-0.495000X0.135000X-0.495000X0.135000X0.495000X0*%
%ADD48RoundRect,0.102000X-0.495000X0.135000X-0.495000X-0.135000X0.495000X-0.135000X0.495000X0.135000X0*%
%ADD49RoundRect,0.102000X-1.625000X1.625000X-1.625000X-1.625000X1.625000X-1.625000X1.625000X1.625000X0*%
%ADD50C,1.400000*%
%ADD51R,3.500000X3.500000*%
%ADD52C,3.500000*%
G04 APERTURE END LIST*
D10*
%TO.C,U1*%
X84140000Y-57200000D02*
X82740000Y-57200000D01*
X82740000Y-56450000D01*
X83390000Y-55800000D01*
X84140000Y-55800000D01*
X84140000Y-57200000D01*
G36*
X84140000Y-57200000D02*
G01*
X82740000Y-57200000D01*
X82740000Y-56450000D01*
X83390000Y-55800000D01*
X84140000Y-55800000D01*
X84140000Y-57200000D01*
G37*
%TO.C,J1*%
X67875000Y-98145000D02*
X67874000Y-98171000D01*
X67872000Y-98197000D01*
X67869000Y-98223000D01*
X67864000Y-98249000D01*
X67858000Y-98274000D01*
X67851000Y-98300000D01*
X67842000Y-98324000D01*
X67832000Y-98348000D01*
X67821000Y-98372000D01*
X67808000Y-98395000D01*
X67794000Y-98417000D01*
X67780000Y-98439000D01*
X67764000Y-98460000D01*
X67747000Y-98480000D01*
X67729000Y-98499000D01*
X67710000Y-98517000D01*
X67690000Y-98534000D01*
X67669000Y-98550000D01*
X67647000Y-98564000D01*
X67625000Y-98578000D01*
X67602000Y-98591000D01*
X67578000Y-98602000D01*
X67554000Y-98612000D01*
X67530000Y-98621000D01*
X67504000Y-98628000D01*
X67479000Y-98634000D01*
X67453000Y-98639000D01*
X67427000Y-98642000D01*
X67401000Y-98644000D01*
X67375000Y-98645000D01*
X66625000Y-98645000D01*
X66599000Y-98644000D01*
X66573000Y-98642000D01*
X66547000Y-98639000D01*
X66521000Y-98634000D01*
X66496000Y-98628000D01*
X66470000Y-98621000D01*
X66446000Y-98612000D01*
X66422000Y-98602000D01*
X66398000Y-98591000D01*
X66375000Y-98578000D01*
X66353000Y-98564000D01*
X66331000Y-98550000D01*
X66310000Y-98534000D01*
X66290000Y-98517000D01*
X66271000Y-98499000D01*
X66253000Y-98480000D01*
X66236000Y-98460000D01*
X66220000Y-98439000D01*
X66206000Y-98417000D01*
X66192000Y-98395000D01*
X66179000Y-98372000D01*
X66168000Y-98348000D01*
X66158000Y-98324000D01*
X66149000Y-98300000D01*
X66142000Y-98274000D01*
X66136000Y-98249000D01*
X66131000Y-98223000D01*
X66128000Y-98197000D01*
X66126000Y-98171000D01*
X66125000Y-98145000D01*
X66125000Y-96800000D01*
X67875000Y-96800000D01*
X67875000Y-98145000D01*
G36*
X67875000Y-98145000D02*
G01*
X67874000Y-98171000D01*
X67872000Y-98197000D01*
X67869000Y-98223000D01*
X67864000Y-98249000D01*
X67858000Y-98274000D01*
X67851000Y-98300000D01*
X67842000Y-98324000D01*
X67832000Y-98348000D01*
X67821000Y-98372000D01*
X67808000Y-98395000D01*
X67794000Y-98417000D01*
X67780000Y-98439000D01*
X67764000Y-98460000D01*
X67747000Y-98480000D01*
X67729000Y-98499000D01*
X67710000Y-98517000D01*
X67690000Y-98534000D01*
X67669000Y-98550000D01*
X67647000Y-98564000D01*
X67625000Y-98578000D01*
X67602000Y-98591000D01*
X67578000Y-98602000D01*
X67554000Y-98612000D01*
X67530000Y-98621000D01*
X67504000Y-98628000D01*
X67479000Y-98634000D01*
X67453000Y-98639000D01*
X67427000Y-98642000D01*
X67401000Y-98644000D01*
X67375000Y-98645000D01*
X66625000Y-98645000D01*
X66599000Y-98644000D01*
X66573000Y-98642000D01*
X66547000Y-98639000D01*
X66521000Y-98634000D01*
X66496000Y-98628000D01*
X66470000Y-98621000D01*
X66446000Y-98612000D01*
X66422000Y-98602000D01*
X66398000Y-98591000D01*
X66375000Y-98578000D01*
X66353000Y-98564000D01*
X66331000Y-98550000D01*
X66310000Y-98534000D01*
X66290000Y-98517000D01*
X66271000Y-98499000D01*
X66253000Y-98480000D01*
X66236000Y-98460000D01*
X66220000Y-98439000D01*
X66206000Y-98417000D01*
X66192000Y-98395000D01*
X66179000Y-98372000D01*
X66168000Y-98348000D01*
X66158000Y-98324000D01*
X66149000Y-98300000D01*
X66142000Y-98274000D01*
X66136000Y-98249000D01*
X66131000Y-98223000D01*
X66128000Y-98197000D01*
X66126000Y-98171000D01*
X66125000Y-98145000D01*
X66125000Y-96800000D01*
X67875000Y-96800000D01*
X67875000Y-98145000D01*
G37*
X67401000Y-90556000D02*
X67427000Y-90558000D01*
X67453000Y-90561000D01*
X67479000Y-90566000D01*
X67504000Y-90572000D01*
X67530000Y-90579000D01*
X67554000Y-90588000D01*
X67578000Y-90598000D01*
X67602000Y-90609000D01*
X67625000Y-90622000D01*
X67647000Y-90636000D01*
X67669000Y-90650000D01*
X67690000Y-90666000D01*
X67710000Y-90683000D01*
X67729000Y-90701000D01*
X67747000Y-90720000D01*
X67764000Y-90740000D01*
X67780000Y-90761000D01*
X67794000Y-90783000D01*
X67808000Y-90805000D01*
X67821000Y-90828000D01*
X67832000Y-90852000D01*
X67842000Y-90876000D01*
X67851000Y-90900000D01*
X67858000Y-90926000D01*
X67864000Y-90951000D01*
X67869000Y-90977000D01*
X67872000Y-91003000D01*
X67874000Y-91029000D01*
X67875000Y-91055000D01*
X67875000Y-92400000D01*
X66125000Y-92400000D01*
X66125000Y-91055000D01*
X66126000Y-91029000D01*
X66128000Y-91003000D01*
X66131000Y-90977000D01*
X66136000Y-90951000D01*
X66142000Y-90926000D01*
X66149000Y-90900000D01*
X66158000Y-90876000D01*
X66168000Y-90852000D01*
X66179000Y-90828000D01*
X66192000Y-90805000D01*
X66206000Y-90783000D01*
X66220000Y-90761000D01*
X66236000Y-90740000D01*
X66253000Y-90720000D01*
X66271000Y-90701000D01*
X66290000Y-90683000D01*
X66310000Y-90666000D01*
X66331000Y-90650000D01*
X66353000Y-90636000D01*
X66375000Y-90622000D01*
X66398000Y-90609000D01*
X66422000Y-90598000D01*
X66446000Y-90588000D01*
X66470000Y-90579000D01*
X66496000Y-90572000D01*
X66521000Y-90566000D01*
X66547000Y-90561000D01*
X66573000Y-90558000D01*
X66599000Y-90556000D01*
X66625000Y-90555000D01*
X67375000Y-90555000D01*
X67401000Y-90556000D01*
G36*
X67401000Y-90556000D02*
G01*
X67427000Y-90558000D01*
X67453000Y-90561000D01*
X67479000Y-90566000D01*
X67504000Y-90572000D01*
X67530000Y-90579000D01*
X67554000Y-90588000D01*
X67578000Y-90598000D01*
X67602000Y-90609000D01*
X67625000Y-90622000D01*
X67647000Y-90636000D01*
X67669000Y-90650000D01*
X67690000Y-90666000D01*
X67710000Y-90683000D01*
X67729000Y-90701000D01*
X67747000Y-90720000D01*
X67764000Y-90740000D01*
X67780000Y-90761000D01*
X67794000Y-90783000D01*
X67808000Y-90805000D01*
X67821000Y-90828000D01*
X67832000Y-90852000D01*
X67842000Y-90876000D01*
X67851000Y-90900000D01*
X67858000Y-90926000D01*
X67864000Y-90951000D01*
X67869000Y-90977000D01*
X67872000Y-91003000D01*
X67874000Y-91029000D01*
X67875000Y-91055000D01*
X67875000Y-92400000D01*
X66125000Y-92400000D01*
X66125000Y-91055000D01*
X66126000Y-91029000D01*
X66128000Y-91003000D01*
X66131000Y-90977000D01*
X66136000Y-90951000D01*
X66142000Y-90926000D01*
X66149000Y-90900000D01*
X66158000Y-90876000D01*
X66168000Y-90852000D01*
X66179000Y-90828000D01*
X66192000Y-90805000D01*
X66206000Y-90783000D01*
X66220000Y-90761000D01*
X66236000Y-90740000D01*
X66253000Y-90720000D01*
X66271000Y-90701000D01*
X66290000Y-90683000D01*
X66310000Y-90666000D01*
X66331000Y-90650000D01*
X66353000Y-90636000D01*
X66375000Y-90622000D01*
X66398000Y-90609000D01*
X66422000Y-90598000D01*
X66446000Y-90588000D01*
X66470000Y-90579000D01*
X66496000Y-90572000D01*
X66521000Y-90566000D01*
X66547000Y-90561000D01*
X66573000Y-90558000D01*
X66599000Y-90556000D01*
X66625000Y-90555000D01*
X67375000Y-90555000D01*
X67401000Y-90556000D01*
G37*
%TD*%
D11*
%TO.C,R26*%
X105950000Y-57262500D03*
X105950000Y-55437500D03*
%TD*%
D12*
%TO.C,C9*%
X74600000Y-54350000D03*
X74600000Y-52450000D03*
%TD*%
D13*
%TO.C,C4*%
X97750000Y-106100000D03*
X95050000Y-106100000D03*
%TD*%
D14*
%TO.C,Q1*%
X91062500Y-85950000D03*
X91062500Y-87850000D03*
X92937500Y-86900000D03*
%TD*%
D12*
%TO.C,C13*%
X80100000Y-81400000D03*
X80100000Y-79500000D03*
%TD*%
D15*
%TO.C,C3*%
X97350000Y-108200000D03*
X95450000Y-108200000D03*
%TD*%
D16*
%TO.C,D3*%
X102500000Y-103600000D03*
X107300000Y-103600000D03*
%TD*%
D17*
%TO.C,U7*%
X100375000Y-67462500D03*
X101025000Y-67462500D03*
X101675000Y-67462500D03*
X102325000Y-67462500D03*
X102975000Y-67462500D03*
X103625000Y-67462500D03*
X104275000Y-67462500D03*
X104925000Y-67462500D03*
X104925000Y-61737500D03*
X104275000Y-61737500D03*
X103625000Y-61737500D03*
X102975000Y-61737500D03*
X102325000Y-61737500D03*
X101675000Y-61737500D03*
X101025000Y-61737500D03*
X100375000Y-61737500D03*
%TD*%
D18*
%TO.C,U1*%
X78090000Y-52200000D03*
X78090000Y-53050000D03*
X78090000Y-53900000D03*
X78090000Y-54750000D03*
X78090000Y-55600000D03*
X78090000Y-56450000D03*
X78090000Y-57300000D03*
X78090000Y-58150000D03*
X78090000Y-59000000D03*
X78090000Y-59850000D03*
X78090000Y-60700000D03*
X78090000Y-61550000D03*
X78090000Y-62400000D03*
X78090000Y-63250000D03*
X78090000Y-64100000D03*
D19*
X79140000Y-65150000D03*
X79990000Y-65150000D03*
X80840000Y-65150000D03*
X81690000Y-65150000D03*
X82540000Y-65150000D03*
X83390000Y-65150000D03*
X84240000Y-65150000D03*
X85090000Y-65150000D03*
X85940000Y-65150000D03*
X86790000Y-65150000D03*
X87640000Y-65150000D03*
X88490000Y-65150000D03*
X89340000Y-65150000D03*
X90190000Y-65150000D03*
X91040000Y-65150000D03*
D18*
X92090000Y-64100000D03*
X92090000Y-63250000D03*
X92090000Y-62400000D03*
X92090000Y-61550000D03*
X92090000Y-60700000D03*
X92090000Y-59850000D03*
X92090000Y-59000000D03*
X92090000Y-58150000D03*
X92090000Y-57300000D03*
X92090000Y-56450000D03*
X92090000Y-55600000D03*
X92090000Y-54750000D03*
X92090000Y-53900000D03*
X92090000Y-53050000D03*
X92090000Y-52200000D03*
D19*
X91040000Y-51150000D03*
X90190000Y-51150000D03*
X89340000Y-51150000D03*
X88490000Y-51150000D03*
X87640000Y-51150000D03*
X86790000Y-51150000D03*
X85940000Y-51150000D03*
X85090000Y-51150000D03*
X84240000Y-51150000D03*
X83390000Y-51150000D03*
X82540000Y-51150000D03*
X81690000Y-51150000D03*
X80840000Y-51150000D03*
X79990000Y-51150000D03*
X79140000Y-51150000D03*
D20*
X85090000Y-58150000D03*
X83440000Y-58150000D03*
X83440000Y-59800000D03*
X85090000Y-59800000D03*
X86740000Y-59800000D03*
X86740000Y-58150000D03*
X86740000Y-56500000D03*
X85090000Y-56500000D03*
D21*
X78090000Y-51150000D03*
X78090000Y-65150000D03*
X92090000Y-65150000D03*
X92090000Y-51150000D03*
%TD*%
D14*
%TO.C,Q2*%
X91062500Y-89750000D03*
X91062500Y-91650000D03*
X92937500Y-90700000D03*
%TD*%
D15*
%TO.C,C12*%
X77750000Y-75383000D03*
X75850000Y-75383000D03*
%TD*%
D22*
%TO.C,U3*%
X90300000Y-102900000D03*
X92600000Y-102900000D03*
D23*
X92600000Y-96500000D03*
D22*
X94900000Y-102900000D03*
%TD*%
D24*
%TO.C,R15*%
X95600000Y-83287500D03*
X95600000Y-85112500D03*
%TD*%
D25*
%TO.C,D5*%
X66450000Y-61600000D03*
X66450000Y-64800000D03*
X71350000Y-64800000D03*
X71350000Y-61600000D03*
%TD*%
D26*
%TO.C,C6*%
X83200000Y-108250000D03*
X83200000Y-110150000D03*
%TD*%
D27*
%TO.C,D20*%
X66362500Y-87400000D03*
X68237500Y-87400000D03*
%TD*%
D24*
%TO.C,R24*%
X103900000Y-71437500D03*
X103900000Y-73262500D03*
%TD*%
D28*
%TO.C,JP3*%
X103950000Y-92915000D03*
D29*
X103950000Y-90375000D03*
X103950000Y-87835000D03*
%TD*%
D30*
%TO.C,H2*%
X68200000Y-53200000D03*
%TD*%
D31*
%TO.C,C27*%
X72350000Y-97500000D03*
X74250000Y-97500000D03*
%TD*%
D28*
%TO.C,J4*%
X73825000Y-121010000D03*
D29*
X73825000Y-123550000D03*
X76365000Y-121010000D03*
X76365000Y-123550000D03*
X78905000Y-121010000D03*
X78905000Y-123550000D03*
X81445000Y-121010000D03*
X81445000Y-123550000D03*
X83985000Y-121010000D03*
X83985000Y-123550000D03*
X86525000Y-121010000D03*
X86525000Y-123550000D03*
X89065000Y-121010000D03*
X89065000Y-123550000D03*
X91605000Y-121010000D03*
X91605000Y-123550000D03*
%TD*%
D27*
%TO.C,D19*%
X66362500Y-84600000D03*
X68237500Y-84600000D03*
%TD*%
D12*
%TO.C,C8*%
X72600000Y-54350000D03*
X72600000Y-52450000D03*
%TD*%
D32*
%TO.C,R9*%
X89287500Y-72665500D03*
X91112500Y-72665500D03*
%TD*%
D33*
%TO.C,H5*%
X76600000Y-85500000D03*
%TD*%
D34*
%TO.C,J9*%
X119880000Y-61450000D03*
D35*
X122420000Y-61450000D03*
%TD*%
D34*
%TO.C,J12*%
X108680000Y-61450000D03*
D35*
X111220000Y-61450000D03*
X113760000Y-61450000D03*
X116300000Y-61450000D03*
%TD*%
D34*
%TO.C,J8*%
X125980000Y-80120000D03*
D35*
X128520000Y-80120000D03*
%TD*%
D36*
%TO.C,Q9*%
X92120000Y-112100000D03*
X92120000Y-110200000D03*
X89500000Y-111150000D03*
%TD*%
D28*
%TO.C,J5*%
X128550000Y-105950000D03*
D29*
X126010000Y-105950000D03*
X128550000Y-108490000D03*
X126010000Y-108490000D03*
X128550000Y-111030000D03*
X126010000Y-111030000D03*
X128550000Y-113570000D03*
X126010000Y-113570000D03*
X128550000Y-116110000D03*
X126010000Y-116110000D03*
%TD*%
D37*
%TO.C,SW2*%
X66117000Y-70011000D03*
X66117000Y-68211000D03*
X71267000Y-70011000D03*
X71267000Y-68211000D03*
%TD*%
D34*
%TO.C,J11*%
X119890000Y-80120000D03*
D35*
X122430000Y-80120000D03*
%TD*%
D28*
%TO.C,JP1*%
X127250000Y-89525000D03*
D29*
X127250000Y-92065000D03*
X127250000Y-94605000D03*
%TD*%
D26*
%TO.C,C10*%
X97100000Y-55450000D03*
X97100000Y-57350000D03*
%TD*%
D32*
%TO.C,R7*%
X75887500Y-77400000D03*
X77712500Y-77400000D03*
%TD*%
D36*
%TO.C,Q10*%
X94800000Y-110200000D03*
X94800000Y-112100000D03*
X97420000Y-111150000D03*
%TD*%
D31*
%TO.C,C28*%
X98450000Y-59700000D03*
X100350000Y-59700000D03*
%TD*%
D37*
%TO.C,SW1*%
X66117000Y-80611000D03*
X66117000Y-78811000D03*
X71267000Y-80611000D03*
X71267000Y-78811000D03*
%TD*%
D24*
%TO.C,R40*%
X114000000Y-52187500D03*
X114000000Y-54012500D03*
%TD*%
%TO.C,R53*%
X67000000Y-73387500D03*
X67000000Y-75212500D03*
%TD*%
%TO.C,R23*%
X101950000Y-71437500D03*
X101950000Y-73262500D03*
%TD*%
D38*
%TO.C,C1*%
X90050000Y-106100000D03*
X92750000Y-106100000D03*
%TD*%
D32*
%TO.C,R10*%
X89287500Y-74697500D03*
X91112500Y-74697500D03*
%TD*%
D39*
%TO.C,R14*%
X77712500Y-73351000D03*
X75887500Y-73351000D03*
%TD*%
D40*
%TO.C,U4*%
X76655000Y-95220000D03*
X76655000Y-94270000D03*
X76655000Y-93320000D03*
X74145000Y-93320000D03*
X74145000Y-94270000D03*
X74145000Y-95220000D03*
%TD*%
D41*
%TO.C,D17*%
X98700000Y-123687500D03*
X98700000Y-121812500D03*
%TD*%
D15*
%TO.C,C7*%
X85450000Y-103800000D03*
X83550000Y-103800000D03*
%TD*%
D28*
%TO.C,JP2*%
X121200000Y-89500000D03*
D29*
X121200000Y-92040000D03*
X121200000Y-94580000D03*
%TD*%
D11*
%TO.C,R4*%
X86900000Y-83712500D03*
X86900000Y-81887500D03*
%TD*%
D34*
%TO.C,J14*%
X108700000Y-80150000D03*
D35*
X111240000Y-80150000D03*
X113780000Y-80150000D03*
X116320000Y-80150000D03*
%TD*%
D42*
%TO.C,F1*%
X99637500Y-103000000D03*
X97762500Y-103000000D03*
%TD*%
D30*
%TO.C,H4*%
X126800000Y-53200000D03*
%TD*%
D24*
%TO.C,R57*%
X96910000Y-113837500D03*
X96910000Y-115662500D03*
%TD*%
D39*
%TO.C,R5*%
X74512500Y-58050000D03*
X72687500Y-58050000D03*
%TD*%
D28*
%TO.C,J3*%
X95975000Y-51675000D03*
D29*
X98515000Y-51675000D03*
X101055000Y-51675000D03*
X103595000Y-51675000D03*
X106135000Y-51675000D03*
X108675000Y-51675000D03*
%TD*%
D34*
%TO.C,J10*%
X119860000Y-70800000D03*
D35*
X122400000Y-70800000D03*
%TD*%
D24*
%TO.C,R38*%
X117800000Y-52187500D03*
X117800000Y-54012500D03*
%TD*%
D31*
%TO.C,C2*%
X90450000Y-108200000D03*
X92350000Y-108200000D03*
%TD*%
%TO.C,C11*%
X82700000Y-67900000D03*
X84600000Y-67900000D03*
%TD*%
D39*
%TO.C,R8*%
X77712500Y-79432000D03*
X75887500Y-79432000D03*
%TD*%
D31*
%TO.C,C5*%
X74050000Y-90975000D03*
X75950000Y-90975000D03*
%TD*%
D34*
%TO.C,J6*%
X125960000Y-61450000D03*
D35*
X128500000Y-61450000D03*
%TD*%
D43*
%TO.C,J1*%
X69675000Y-93300000D03*
X69675000Y-93950000D03*
X69675000Y-94600000D03*
X69675000Y-95250000D03*
X69675000Y-95900000D03*
D44*
X69700000Y-92100000D03*
X69700000Y-97100000D03*
D45*
X67000000Y-91075000D03*
D46*
X67000000Y-93600000D03*
X67000000Y-95600000D03*
D45*
X67000000Y-98125000D03*
%TD*%
D11*
%TO.C,R56*%
X90910000Y-115662500D03*
X90910000Y-113837500D03*
%TD*%
D32*
%TO.C,R13*%
X75887500Y-71319000D03*
X77712500Y-71319000D03*
%TD*%
D24*
%TO.C,R54*%
X73800000Y-62187500D03*
X73800000Y-64012500D03*
%TD*%
D11*
%TO.C,R1*%
X84900000Y-83712500D03*
X84900000Y-81887500D03*
%TD*%
D47*
%TO.C,U2*%
X85400000Y-71540000D03*
X84900000Y-71540000D03*
X84400000Y-71540000D03*
X83900000Y-71540000D03*
X83400000Y-71540000D03*
X82900000Y-71540000D03*
X82400000Y-71540000D03*
D48*
X81540000Y-72400000D03*
X81540000Y-72900000D03*
X81540000Y-73400000D03*
X81540000Y-73900000D03*
X81540000Y-74400000D03*
X81540000Y-74900000D03*
X81540000Y-75400000D03*
D47*
X82400000Y-76260000D03*
X82900000Y-76260000D03*
X83400000Y-76260000D03*
X83900000Y-76260000D03*
X84400000Y-76260000D03*
X84900000Y-76260000D03*
X85400000Y-76260000D03*
D48*
X86260000Y-75400000D03*
X86260000Y-74900000D03*
X86260000Y-74400000D03*
X86260000Y-73900000D03*
X86260000Y-73400000D03*
X86260000Y-72900000D03*
X86260000Y-72400000D03*
D49*
X83900000Y-73900000D03*
%TD*%
D32*
%TO.C,R42*%
X109187500Y-96100000D03*
X111012500Y-96100000D03*
%TD*%
D34*
%TO.C,J7*%
X125960000Y-70800000D03*
D35*
X128500000Y-70800000D03*
%TD*%
D24*
%TO.C,R36*%
X115900000Y-52187500D03*
X115900000Y-54012500D03*
%TD*%
D50*
%TO.C,J2*%
X67975000Y-113100000D03*
X67975000Y-102100000D03*
D51*
X77975000Y-105100000D03*
D52*
X77975000Y-110100000D03*
%TD*%
D24*
%TO.C,R58*%
X92910000Y-113837500D03*
X92910000Y-115662500D03*
%TD*%
D11*
%TO.C,R55*%
X94910000Y-115675000D03*
X94910000Y-113850000D03*
%TD*%
%TO.C,R6*%
X99132000Y-57312500D03*
X99132000Y-55487500D03*
%TD*%
D34*
%TO.C,J15*%
X108700000Y-89470000D03*
D35*
X111240000Y-89470000D03*
X113780000Y-89470000D03*
X116320000Y-89470000D03*
%TD*%
D41*
%TO.C,D18*%
X96100000Y-123687500D03*
X96100000Y-121812500D03*
%TD*%
D12*
%TO.C,C14*%
X82200000Y-81400000D03*
X82200000Y-79500000D03*
%TD*%
D39*
%TO.C,R11*%
X92912500Y-83500000D03*
X91087500Y-83500000D03*
%TD*%
D11*
%TO.C,R27*%
X104000000Y-57262500D03*
X104000000Y-55437500D03*
%TD*%
D27*
%TO.C,FB1*%
X83562500Y-105900000D03*
X85437500Y-105900000D03*
%TD*%
D30*
%TO.C,H1*%
X126800000Y-121800000D03*
%TD*%
D27*
%TO.C,D4*%
X69012500Y-58050000D03*
X70887500Y-58050000D03*
%TD*%
D11*
%TO.C,R28*%
X102050000Y-57262500D03*
X102050000Y-55437500D03*
%TD*%
D33*
%TO.C,H6*%
X103000000Y-112200000D03*
%TD*%
D24*
%TO.C,R16*%
X95600000Y-89887500D03*
X95600000Y-91712500D03*
%TD*%
D11*
%TO.C,R12*%
X88400000Y-91612500D03*
X88400000Y-89787500D03*
%TD*%
D30*
%TO.C,H3*%
X68200000Y-121800000D03*
%TD*%
D24*
%TO.C,R25*%
X105850000Y-71437500D03*
X105850000Y-73262500D03*
%TD*%
D34*
%TO.C,J13*%
X108670000Y-70830000D03*
D35*
X111210000Y-70830000D03*
X113750000Y-70830000D03*
X116290000Y-70830000D03*
%TD*%
D41*
%TO.C,D16*%
X101300000Y-123687500D03*
X101300000Y-121812500D03*
%TD*%
M02*
