%TF.GenerationSoftware,KiCad,Pcbnew,8.0.2*%
%TF.CreationDate,2024-07-11T10:11:00+02:00*%
%TF.ProjectId,HomeAssistant,486f6d65-4173-4736-9973-74616e742e6b,0.1*%
%TF.SameCoordinates,Original*%
%TF.FileFunction,Legend,Bot*%
%TF.FilePolarity,Positive*%
%FSLAX46Y46*%
G04 Gerber Fmt 4.6, Leading zero omitted, Abs format (unit mm)*
G04 Created by KiCad (PCBNEW 8.0.2) date 2024-07-11 10:11:00*
%MOMM*%
%LPD*%
G01*
G04 APERTURE LIST*
%ADD10C,0.150000*%
%ADD11C,0.120000*%
%ADD12C,0.127000*%
%ADD13C,0.200000*%
%ADD14C,0.152400*%
G04 APERTURE END LIST*
D10*
X100088094Y-94354819D02*
X99469047Y-94354819D01*
X99469047Y-94354819D02*
X99802380Y-94735771D01*
X99802380Y-94735771D02*
X99659523Y-94735771D01*
X99659523Y-94735771D02*
X99564285Y-94783390D01*
X99564285Y-94783390D02*
X99516666Y-94831009D01*
X99516666Y-94831009D02*
X99469047Y-94926247D01*
X99469047Y-94926247D02*
X99469047Y-95164342D01*
X99469047Y-95164342D02*
X99516666Y-95259580D01*
X99516666Y-95259580D02*
X99564285Y-95307200D01*
X99564285Y-95307200D02*
X99659523Y-95354819D01*
X99659523Y-95354819D02*
X99945237Y-95354819D01*
X99945237Y-95354819D02*
X100040475Y-95307200D01*
X100040475Y-95307200D02*
X100088094Y-95259580D01*
X99183332Y-94354819D02*
X98849999Y-95354819D01*
X98849999Y-95354819D02*
X98516666Y-94354819D01*
X98278570Y-94354819D02*
X97659523Y-94354819D01*
X97659523Y-94354819D02*
X97992856Y-94735771D01*
X97992856Y-94735771D02*
X97849999Y-94735771D01*
X97849999Y-94735771D02*
X97754761Y-94783390D01*
X97754761Y-94783390D02*
X97707142Y-94831009D01*
X97707142Y-94831009D02*
X97659523Y-94926247D01*
X97659523Y-94926247D02*
X97659523Y-95164342D01*
X97659523Y-95164342D02*
X97707142Y-95259580D01*
X97707142Y-95259580D02*
X97754761Y-95307200D01*
X97754761Y-95307200D02*
X97849999Y-95354819D01*
X97849999Y-95354819D02*
X98135713Y-95354819D01*
X98135713Y-95354819D02*
X98230951Y-95307200D01*
X98230951Y-95307200D02*
X98278570Y-95259580D01*
X112790476Y-99704819D02*
X113266666Y-99704819D01*
X113266666Y-99704819D02*
X113314285Y-100181009D01*
X113314285Y-100181009D02*
X113266666Y-100133390D01*
X113266666Y-100133390D02*
X113171428Y-100085771D01*
X113171428Y-100085771D02*
X112933333Y-100085771D01*
X112933333Y-100085771D02*
X112838095Y-100133390D01*
X112838095Y-100133390D02*
X112790476Y-100181009D01*
X112790476Y-100181009D02*
X112742857Y-100276247D01*
X112742857Y-100276247D02*
X112742857Y-100514342D01*
X112742857Y-100514342D02*
X112790476Y-100609580D01*
X112790476Y-100609580D02*
X112838095Y-100657200D01*
X112838095Y-100657200D02*
X112933333Y-100704819D01*
X112933333Y-100704819D02*
X113171428Y-100704819D01*
X113171428Y-100704819D02*
X113266666Y-100657200D01*
X113266666Y-100657200D02*
X113314285Y-100609580D01*
X112457142Y-99704819D02*
X112123809Y-100704819D01*
X112123809Y-100704819D02*
X111790476Y-99704819D01*
X117854819Y-83507142D02*
X117378628Y-83173809D01*
X117854819Y-82935714D02*
X116854819Y-82935714D01*
X116854819Y-82935714D02*
X116854819Y-83316666D01*
X116854819Y-83316666D02*
X116902438Y-83411904D01*
X116902438Y-83411904D02*
X116950057Y-83459523D01*
X116950057Y-83459523D02*
X117045295Y-83507142D01*
X117045295Y-83507142D02*
X117188152Y-83507142D01*
X117188152Y-83507142D02*
X117283390Y-83459523D01*
X117283390Y-83459523D02*
X117331009Y-83411904D01*
X117331009Y-83411904D02*
X117378628Y-83316666D01*
X117378628Y-83316666D02*
X117378628Y-82935714D01*
X117188152Y-84364285D02*
X117854819Y-84364285D01*
X116807200Y-84126190D02*
X117521485Y-83888095D01*
X117521485Y-83888095D02*
X117521485Y-84507142D01*
X116854819Y-85364285D02*
X116854819Y-84888095D01*
X116854819Y-84888095D02*
X117331009Y-84840476D01*
X117331009Y-84840476D02*
X117283390Y-84888095D01*
X117283390Y-84888095D02*
X117235771Y-84983333D01*
X117235771Y-84983333D02*
X117235771Y-85221428D01*
X117235771Y-85221428D02*
X117283390Y-85316666D01*
X117283390Y-85316666D02*
X117331009Y-85364285D01*
X117331009Y-85364285D02*
X117426247Y-85411904D01*
X117426247Y-85411904D02*
X117664342Y-85411904D01*
X117664342Y-85411904D02*
X117759580Y-85364285D01*
X117759580Y-85364285D02*
X117807200Y-85316666D01*
X117807200Y-85316666D02*
X117854819Y-85221428D01*
X117854819Y-85221428D02*
X117854819Y-84983333D01*
X117854819Y-84983333D02*
X117807200Y-84888095D01*
X117807200Y-84888095D02*
X117759580Y-84840476D01*
X123254819Y-120857142D02*
X122778628Y-120523809D01*
X123254819Y-120285714D02*
X122254819Y-120285714D01*
X122254819Y-120285714D02*
X122254819Y-120666666D01*
X122254819Y-120666666D02*
X122302438Y-120761904D01*
X122302438Y-120761904D02*
X122350057Y-120809523D01*
X122350057Y-120809523D02*
X122445295Y-120857142D01*
X122445295Y-120857142D02*
X122588152Y-120857142D01*
X122588152Y-120857142D02*
X122683390Y-120809523D01*
X122683390Y-120809523D02*
X122731009Y-120761904D01*
X122731009Y-120761904D02*
X122778628Y-120666666D01*
X122778628Y-120666666D02*
X122778628Y-120285714D01*
X122350057Y-121238095D02*
X122302438Y-121285714D01*
X122302438Y-121285714D02*
X122254819Y-121380952D01*
X122254819Y-121380952D02*
X122254819Y-121619047D01*
X122254819Y-121619047D02*
X122302438Y-121714285D01*
X122302438Y-121714285D02*
X122350057Y-121761904D01*
X122350057Y-121761904D02*
X122445295Y-121809523D01*
X122445295Y-121809523D02*
X122540533Y-121809523D01*
X122540533Y-121809523D02*
X122683390Y-121761904D01*
X122683390Y-121761904D02*
X123254819Y-121190476D01*
X123254819Y-121190476D02*
X123254819Y-121809523D01*
X122254819Y-122428571D02*
X122254819Y-122523809D01*
X122254819Y-122523809D02*
X122302438Y-122619047D01*
X122302438Y-122619047D02*
X122350057Y-122666666D01*
X122350057Y-122666666D02*
X122445295Y-122714285D01*
X122445295Y-122714285D02*
X122635771Y-122761904D01*
X122635771Y-122761904D02*
X122873866Y-122761904D01*
X122873866Y-122761904D02*
X123064342Y-122714285D01*
X123064342Y-122714285D02*
X123159580Y-122666666D01*
X123159580Y-122666666D02*
X123207200Y-122619047D01*
X123207200Y-122619047D02*
X123254819Y-122523809D01*
X123254819Y-122523809D02*
X123254819Y-122428571D01*
X123254819Y-122428571D02*
X123207200Y-122333333D01*
X123207200Y-122333333D02*
X123159580Y-122285714D01*
X123159580Y-122285714D02*
X123064342Y-122238095D01*
X123064342Y-122238095D02*
X122873866Y-122190476D01*
X122873866Y-122190476D02*
X122635771Y-122190476D01*
X122635771Y-122190476D02*
X122445295Y-122238095D01*
X122445295Y-122238095D02*
X122350057Y-122285714D01*
X122350057Y-122285714D02*
X122302438Y-122333333D01*
X122302438Y-122333333D02*
X122254819Y-122428571D01*
X111064285Y-87004819D02*
X111064285Y-86004819D01*
X111064285Y-86004819D02*
X110826190Y-86004819D01*
X110826190Y-86004819D02*
X110683333Y-86052438D01*
X110683333Y-86052438D02*
X110588095Y-86147676D01*
X110588095Y-86147676D02*
X110540476Y-86242914D01*
X110540476Y-86242914D02*
X110492857Y-86433390D01*
X110492857Y-86433390D02*
X110492857Y-86576247D01*
X110492857Y-86576247D02*
X110540476Y-86766723D01*
X110540476Y-86766723D02*
X110588095Y-86861961D01*
X110588095Y-86861961D02*
X110683333Y-86957200D01*
X110683333Y-86957200D02*
X110826190Y-87004819D01*
X110826190Y-87004819D02*
X111064285Y-87004819D01*
X109540476Y-87004819D02*
X110111904Y-87004819D01*
X109826190Y-87004819D02*
X109826190Y-86004819D01*
X109826190Y-86004819D02*
X109921428Y-86147676D01*
X109921428Y-86147676D02*
X110016666Y-86242914D01*
X110016666Y-86242914D02*
X110111904Y-86290533D01*
X108683333Y-86338152D02*
X108683333Y-87004819D01*
X108921428Y-85957200D02*
X109159523Y-86671485D01*
X109159523Y-86671485D02*
X108540476Y-86671485D01*
X114042857Y-114959580D02*
X114090476Y-115007200D01*
X114090476Y-115007200D02*
X114233333Y-115054819D01*
X114233333Y-115054819D02*
X114328571Y-115054819D01*
X114328571Y-115054819D02*
X114471428Y-115007200D01*
X114471428Y-115007200D02*
X114566666Y-114911961D01*
X114566666Y-114911961D02*
X114614285Y-114816723D01*
X114614285Y-114816723D02*
X114661904Y-114626247D01*
X114661904Y-114626247D02*
X114661904Y-114483390D01*
X114661904Y-114483390D02*
X114614285Y-114292914D01*
X114614285Y-114292914D02*
X114566666Y-114197676D01*
X114566666Y-114197676D02*
X114471428Y-114102438D01*
X114471428Y-114102438D02*
X114328571Y-114054819D01*
X114328571Y-114054819D02*
X114233333Y-114054819D01*
X114233333Y-114054819D02*
X114090476Y-114102438D01*
X114090476Y-114102438D02*
X114042857Y-114150057D01*
X113661904Y-114150057D02*
X113614285Y-114102438D01*
X113614285Y-114102438D02*
X113519047Y-114054819D01*
X113519047Y-114054819D02*
X113280952Y-114054819D01*
X113280952Y-114054819D02*
X113185714Y-114102438D01*
X113185714Y-114102438D02*
X113138095Y-114150057D01*
X113138095Y-114150057D02*
X113090476Y-114245295D01*
X113090476Y-114245295D02*
X113090476Y-114340533D01*
X113090476Y-114340533D02*
X113138095Y-114483390D01*
X113138095Y-114483390D02*
X113709523Y-115054819D01*
X113709523Y-115054819D02*
X113090476Y-115054819D01*
X112185714Y-114054819D02*
X112661904Y-114054819D01*
X112661904Y-114054819D02*
X112709523Y-114531009D01*
X112709523Y-114531009D02*
X112661904Y-114483390D01*
X112661904Y-114483390D02*
X112566666Y-114435771D01*
X112566666Y-114435771D02*
X112328571Y-114435771D01*
X112328571Y-114435771D02*
X112233333Y-114483390D01*
X112233333Y-114483390D02*
X112185714Y-114531009D01*
X112185714Y-114531009D02*
X112138095Y-114626247D01*
X112138095Y-114626247D02*
X112138095Y-114864342D01*
X112138095Y-114864342D02*
X112185714Y-114959580D01*
X112185714Y-114959580D02*
X112233333Y-115007200D01*
X112233333Y-115007200D02*
X112328571Y-115054819D01*
X112328571Y-115054819D02*
X112566666Y-115054819D01*
X112566666Y-115054819D02*
X112661904Y-115007200D01*
X112661904Y-115007200D02*
X112709523Y-114959580D01*
X98454819Y-119057142D02*
X97978628Y-118723809D01*
X98454819Y-118485714D02*
X97454819Y-118485714D01*
X97454819Y-118485714D02*
X97454819Y-118866666D01*
X97454819Y-118866666D02*
X97502438Y-118961904D01*
X97502438Y-118961904D02*
X97550057Y-119009523D01*
X97550057Y-119009523D02*
X97645295Y-119057142D01*
X97645295Y-119057142D02*
X97788152Y-119057142D01*
X97788152Y-119057142D02*
X97883390Y-119009523D01*
X97883390Y-119009523D02*
X97931009Y-118961904D01*
X97931009Y-118961904D02*
X97978628Y-118866666D01*
X97978628Y-118866666D02*
X97978628Y-118485714D01*
X97788152Y-119914285D02*
X98454819Y-119914285D01*
X97407200Y-119676190D02*
X98121485Y-119438095D01*
X98121485Y-119438095D02*
X98121485Y-120057142D01*
X98454819Y-120485714D02*
X98454819Y-120676190D01*
X98454819Y-120676190D02*
X98407200Y-120771428D01*
X98407200Y-120771428D02*
X98359580Y-120819047D01*
X98359580Y-120819047D02*
X98216723Y-120914285D01*
X98216723Y-120914285D02*
X98026247Y-120961904D01*
X98026247Y-120961904D02*
X97645295Y-120961904D01*
X97645295Y-120961904D02*
X97550057Y-120914285D01*
X97550057Y-120914285D02*
X97502438Y-120866666D01*
X97502438Y-120866666D02*
X97454819Y-120771428D01*
X97454819Y-120771428D02*
X97454819Y-120580952D01*
X97454819Y-120580952D02*
X97502438Y-120485714D01*
X97502438Y-120485714D02*
X97550057Y-120438095D01*
X97550057Y-120438095D02*
X97645295Y-120390476D01*
X97645295Y-120390476D02*
X97883390Y-120390476D01*
X97883390Y-120390476D02*
X97978628Y-120438095D01*
X97978628Y-120438095D02*
X98026247Y-120485714D01*
X98026247Y-120485714D02*
X98073866Y-120580952D01*
X98073866Y-120580952D02*
X98073866Y-120771428D01*
X98073866Y-120771428D02*
X98026247Y-120866666D01*
X98026247Y-120866666D02*
X97978628Y-120914285D01*
X97978628Y-120914285D02*
X97883390Y-120961904D01*
X96504819Y-119057142D02*
X96028628Y-118723809D01*
X96504819Y-118485714D02*
X95504819Y-118485714D01*
X95504819Y-118485714D02*
X95504819Y-118866666D01*
X95504819Y-118866666D02*
X95552438Y-118961904D01*
X95552438Y-118961904D02*
X95600057Y-119009523D01*
X95600057Y-119009523D02*
X95695295Y-119057142D01*
X95695295Y-119057142D02*
X95838152Y-119057142D01*
X95838152Y-119057142D02*
X95933390Y-119009523D01*
X95933390Y-119009523D02*
X95981009Y-118961904D01*
X95981009Y-118961904D02*
X96028628Y-118866666D01*
X96028628Y-118866666D02*
X96028628Y-118485714D01*
X95504819Y-119961904D02*
X95504819Y-119485714D01*
X95504819Y-119485714D02*
X95981009Y-119438095D01*
X95981009Y-119438095D02*
X95933390Y-119485714D01*
X95933390Y-119485714D02*
X95885771Y-119580952D01*
X95885771Y-119580952D02*
X95885771Y-119819047D01*
X95885771Y-119819047D02*
X95933390Y-119914285D01*
X95933390Y-119914285D02*
X95981009Y-119961904D01*
X95981009Y-119961904D02*
X96076247Y-120009523D01*
X96076247Y-120009523D02*
X96314342Y-120009523D01*
X96314342Y-120009523D02*
X96409580Y-119961904D01*
X96409580Y-119961904D02*
X96457200Y-119914285D01*
X96457200Y-119914285D02*
X96504819Y-119819047D01*
X96504819Y-119819047D02*
X96504819Y-119580952D01*
X96504819Y-119580952D02*
X96457200Y-119485714D01*
X96457200Y-119485714D02*
X96409580Y-119438095D01*
X95504819Y-120628571D02*
X95504819Y-120723809D01*
X95504819Y-120723809D02*
X95552438Y-120819047D01*
X95552438Y-120819047D02*
X95600057Y-120866666D01*
X95600057Y-120866666D02*
X95695295Y-120914285D01*
X95695295Y-120914285D02*
X95885771Y-120961904D01*
X95885771Y-120961904D02*
X96123866Y-120961904D01*
X96123866Y-120961904D02*
X96314342Y-120914285D01*
X96314342Y-120914285D02*
X96409580Y-120866666D01*
X96409580Y-120866666D02*
X96457200Y-120819047D01*
X96457200Y-120819047D02*
X96504819Y-120723809D01*
X96504819Y-120723809D02*
X96504819Y-120628571D01*
X96504819Y-120628571D02*
X96457200Y-120533333D01*
X96457200Y-120533333D02*
X96409580Y-120485714D01*
X96409580Y-120485714D02*
X96314342Y-120438095D01*
X96314342Y-120438095D02*
X96123866Y-120390476D01*
X96123866Y-120390476D02*
X95885771Y-120390476D01*
X95885771Y-120390476D02*
X95695295Y-120438095D01*
X95695295Y-120438095D02*
X95600057Y-120485714D01*
X95600057Y-120485714D02*
X95552438Y-120533333D01*
X95552438Y-120533333D02*
X95504819Y-120628571D01*
X128945238Y-69150057D02*
X129040476Y-69102438D01*
X129040476Y-69102438D02*
X129135714Y-69007200D01*
X129135714Y-69007200D02*
X129278571Y-68864342D01*
X129278571Y-68864342D02*
X129373809Y-68816723D01*
X129373809Y-68816723D02*
X129469047Y-68816723D01*
X129421428Y-69054819D02*
X129516666Y-69007200D01*
X129516666Y-69007200D02*
X129611904Y-68911961D01*
X129611904Y-68911961D02*
X129659523Y-68721485D01*
X129659523Y-68721485D02*
X129659523Y-68388152D01*
X129659523Y-68388152D02*
X129611904Y-68197676D01*
X129611904Y-68197676D02*
X129516666Y-68102438D01*
X129516666Y-68102438D02*
X129421428Y-68054819D01*
X129421428Y-68054819D02*
X129230952Y-68054819D01*
X129230952Y-68054819D02*
X129135714Y-68102438D01*
X129135714Y-68102438D02*
X129040476Y-68197676D01*
X129040476Y-68197676D02*
X128992857Y-68388152D01*
X128992857Y-68388152D02*
X128992857Y-68721485D01*
X128992857Y-68721485D02*
X129040476Y-68911961D01*
X129040476Y-68911961D02*
X129135714Y-69007200D01*
X129135714Y-69007200D02*
X129230952Y-69054819D01*
X129230952Y-69054819D02*
X129421428Y-69054819D01*
X128659523Y-68054819D02*
X128040476Y-68054819D01*
X128040476Y-68054819D02*
X128373809Y-68435771D01*
X128373809Y-68435771D02*
X128230952Y-68435771D01*
X128230952Y-68435771D02*
X128135714Y-68483390D01*
X128135714Y-68483390D02*
X128088095Y-68531009D01*
X128088095Y-68531009D02*
X128040476Y-68626247D01*
X128040476Y-68626247D02*
X128040476Y-68864342D01*
X128040476Y-68864342D02*
X128088095Y-68959580D01*
X128088095Y-68959580D02*
X128135714Y-69007200D01*
X128135714Y-69007200D02*
X128230952Y-69054819D01*
X128230952Y-69054819D02*
X128516666Y-69054819D01*
X128516666Y-69054819D02*
X128611904Y-69007200D01*
X128611904Y-69007200D02*
X128659523Y-68959580D01*
X123392857Y-113177580D02*
X123440476Y-113225200D01*
X123440476Y-113225200D02*
X123583333Y-113272819D01*
X123583333Y-113272819D02*
X123678571Y-113272819D01*
X123678571Y-113272819D02*
X123821428Y-113225200D01*
X123821428Y-113225200D02*
X123916666Y-113129961D01*
X123916666Y-113129961D02*
X123964285Y-113034723D01*
X123964285Y-113034723D02*
X124011904Y-112844247D01*
X124011904Y-112844247D02*
X124011904Y-112701390D01*
X124011904Y-112701390D02*
X123964285Y-112510914D01*
X123964285Y-112510914D02*
X123916666Y-112415676D01*
X123916666Y-112415676D02*
X123821428Y-112320438D01*
X123821428Y-112320438D02*
X123678571Y-112272819D01*
X123678571Y-112272819D02*
X123583333Y-112272819D01*
X123583333Y-112272819D02*
X123440476Y-112320438D01*
X123440476Y-112320438D02*
X123392857Y-112368057D01*
X123011904Y-112368057D02*
X122964285Y-112320438D01*
X122964285Y-112320438D02*
X122869047Y-112272819D01*
X122869047Y-112272819D02*
X122630952Y-112272819D01*
X122630952Y-112272819D02*
X122535714Y-112320438D01*
X122535714Y-112320438D02*
X122488095Y-112368057D01*
X122488095Y-112368057D02*
X122440476Y-112463295D01*
X122440476Y-112463295D02*
X122440476Y-112558533D01*
X122440476Y-112558533D02*
X122488095Y-112701390D01*
X122488095Y-112701390D02*
X123059523Y-113272819D01*
X123059523Y-113272819D02*
X122440476Y-113272819D01*
X122059523Y-112368057D02*
X122011904Y-112320438D01*
X122011904Y-112320438D02*
X121916666Y-112272819D01*
X121916666Y-112272819D02*
X121678571Y-112272819D01*
X121678571Y-112272819D02*
X121583333Y-112320438D01*
X121583333Y-112320438D02*
X121535714Y-112368057D01*
X121535714Y-112368057D02*
X121488095Y-112463295D01*
X121488095Y-112463295D02*
X121488095Y-112558533D01*
X121488095Y-112558533D02*
X121535714Y-112701390D01*
X121535714Y-112701390D02*
X122107142Y-113272819D01*
X122107142Y-113272819D02*
X121488095Y-113272819D01*
X112854819Y-64807142D02*
X112378628Y-64473809D01*
X112854819Y-64235714D02*
X111854819Y-64235714D01*
X111854819Y-64235714D02*
X111854819Y-64616666D01*
X111854819Y-64616666D02*
X111902438Y-64711904D01*
X111902438Y-64711904D02*
X111950057Y-64759523D01*
X111950057Y-64759523D02*
X112045295Y-64807142D01*
X112045295Y-64807142D02*
X112188152Y-64807142D01*
X112188152Y-64807142D02*
X112283390Y-64759523D01*
X112283390Y-64759523D02*
X112331009Y-64711904D01*
X112331009Y-64711904D02*
X112378628Y-64616666D01*
X112378628Y-64616666D02*
X112378628Y-64235714D01*
X111854819Y-65140476D02*
X111854819Y-65759523D01*
X111854819Y-65759523D02*
X112235771Y-65426190D01*
X112235771Y-65426190D02*
X112235771Y-65569047D01*
X112235771Y-65569047D02*
X112283390Y-65664285D01*
X112283390Y-65664285D02*
X112331009Y-65711904D01*
X112331009Y-65711904D02*
X112426247Y-65759523D01*
X112426247Y-65759523D02*
X112664342Y-65759523D01*
X112664342Y-65759523D02*
X112759580Y-65711904D01*
X112759580Y-65711904D02*
X112807200Y-65664285D01*
X112807200Y-65664285D02*
X112854819Y-65569047D01*
X112854819Y-65569047D02*
X112854819Y-65283333D01*
X112854819Y-65283333D02*
X112807200Y-65188095D01*
X112807200Y-65188095D02*
X112759580Y-65140476D01*
X111854819Y-66664285D02*
X111854819Y-66188095D01*
X111854819Y-66188095D02*
X112331009Y-66140476D01*
X112331009Y-66140476D02*
X112283390Y-66188095D01*
X112283390Y-66188095D02*
X112235771Y-66283333D01*
X112235771Y-66283333D02*
X112235771Y-66521428D01*
X112235771Y-66521428D02*
X112283390Y-66616666D01*
X112283390Y-66616666D02*
X112331009Y-66664285D01*
X112331009Y-66664285D02*
X112426247Y-66711904D01*
X112426247Y-66711904D02*
X112664342Y-66711904D01*
X112664342Y-66711904D02*
X112759580Y-66664285D01*
X112759580Y-66664285D02*
X112807200Y-66616666D01*
X112807200Y-66616666D02*
X112854819Y-66521428D01*
X112854819Y-66521428D02*
X112854819Y-66283333D01*
X112854819Y-66283333D02*
X112807200Y-66188095D01*
X112807200Y-66188095D02*
X112759580Y-66140476D01*
X73766666Y-60454819D02*
X74099999Y-59978628D01*
X74338094Y-60454819D02*
X74338094Y-59454819D01*
X74338094Y-59454819D02*
X73957142Y-59454819D01*
X73957142Y-59454819D02*
X73861904Y-59502438D01*
X73861904Y-59502438D02*
X73814285Y-59550057D01*
X73814285Y-59550057D02*
X73766666Y-59645295D01*
X73766666Y-59645295D02*
X73766666Y-59788152D01*
X73766666Y-59788152D02*
X73814285Y-59883390D01*
X73814285Y-59883390D02*
X73861904Y-59931009D01*
X73861904Y-59931009D02*
X73957142Y-59978628D01*
X73957142Y-59978628D02*
X74338094Y-59978628D01*
X73385713Y-59550057D02*
X73338094Y-59502438D01*
X73338094Y-59502438D02*
X73242856Y-59454819D01*
X73242856Y-59454819D02*
X73004761Y-59454819D01*
X73004761Y-59454819D02*
X72909523Y-59502438D01*
X72909523Y-59502438D02*
X72861904Y-59550057D01*
X72861904Y-59550057D02*
X72814285Y-59645295D01*
X72814285Y-59645295D02*
X72814285Y-59740533D01*
X72814285Y-59740533D02*
X72861904Y-59883390D01*
X72861904Y-59883390D02*
X73433332Y-60454819D01*
X73433332Y-60454819D02*
X72814285Y-60454819D01*
X104554819Y-119007142D02*
X104078628Y-118673809D01*
X104554819Y-118435714D02*
X103554819Y-118435714D01*
X103554819Y-118435714D02*
X103554819Y-118816666D01*
X103554819Y-118816666D02*
X103602438Y-118911904D01*
X103602438Y-118911904D02*
X103650057Y-118959523D01*
X103650057Y-118959523D02*
X103745295Y-119007142D01*
X103745295Y-119007142D02*
X103888152Y-119007142D01*
X103888152Y-119007142D02*
X103983390Y-118959523D01*
X103983390Y-118959523D02*
X104031009Y-118911904D01*
X104031009Y-118911904D02*
X104078628Y-118816666D01*
X104078628Y-118816666D02*
X104078628Y-118435714D01*
X103888152Y-119864285D02*
X104554819Y-119864285D01*
X103507200Y-119626190D02*
X104221485Y-119388095D01*
X104221485Y-119388095D02*
X104221485Y-120007142D01*
X103554819Y-120292857D02*
X103554819Y-120959523D01*
X103554819Y-120959523D02*
X104554819Y-120530952D01*
X121211904Y-117054819D02*
X121211904Y-117864342D01*
X121211904Y-117864342D02*
X121164285Y-117959580D01*
X121164285Y-117959580D02*
X121116666Y-118007200D01*
X121116666Y-118007200D02*
X121021428Y-118054819D01*
X121021428Y-118054819D02*
X120830952Y-118054819D01*
X120830952Y-118054819D02*
X120735714Y-118007200D01*
X120735714Y-118007200D02*
X120688095Y-117959580D01*
X120688095Y-117959580D02*
X120640476Y-117864342D01*
X120640476Y-117864342D02*
X120640476Y-117054819D01*
X119735714Y-117054819D02*
X119926190Y-117054819D01*
X119926190Y-117054819D02*
X120021428Y-117102438D01*
X120021428Y-117102438D02*
X120069047Y-117150057D01*
X120069047Y-117150057D02*
X120164285Y-117292914D01*
X120164285Y-117292914D02*
X120211904Y-117483390D01*
X120211904Y-117483390D02*
X120211904Y-117864342D01*
X120211904Y-117864342D02*
X120164285Y-117959580D01*
X120164285Y-117959580D02*
X120116666Y-118007200D01*
X120116666Y-118007200D02*
X120021428Y-118054819D01*
X120021428Y-118054819D02*
X119830952Y-118054819D01*
X119830952Y-118054819D02*
X119735714Y-118007200D01*
X119735714Y-118007200D02*
X119688095Y-117959580D01*
X119688095Y-117959580D02*
X119640476Y-117864342D01*
X119640476Y-117864342D02*
X119640476Y-117626247D01*
X119640476Y-117626247D02*
X119688095Y-117531009D01*
X119688095Y-117531009D02*
X119735714Y-117483390D01*
X119735714Y-117483390D02*
X119830952Y-117435771D01*
X119830952Y-117435771D02*
X120021428Y-117435771D01*
X120021428Y-117435771D02*
X120116666Y-117483390D01*
X120116666Y-117483390D02*
X120164285Y-117531009D01*
X120164285Y-117531009D02*
X120211904Y-117626247D01*
X124214285Y-76054819D02*
X124214285Y-75054819D01*
X124214285Y-75054819D02*
X123976190Y-75054819D01*
X123976190Y-75054819D02*
X123833333Y-75102438D01*
X123833333Y-75102438D02*
X123738095Y-75197676D01*
X123738095Y-75197676D02*
X123690476Y-75292914D01*
X123690476Y-75292914D02*
X123642857Y-75483390D01*
X123642857Y-75483390D02*
X123642857Y-75626247D01*
X123642857Y-75626247D02*
X123690476Y-75816723D01*
X123690476Y-75816723D02*
X123738095Y-75911961D01*
X123738095Y-75911961D02*
X123833333Y-76007200D01*
X123833333Y-76007200D02*
X123976190Y-76054819D01*
X123976190Y-76054819D02*
X124214285Y-76054819D01*
X122690476Y-76054819D02*
X123261904Y-76054819D01*
X122976190Y-76054819D02*
X122976190Y-75054819D01*
X122976190Y-75054819D02*
X123071428Y-75197676D01*
X123071428Y-75197676D02*
X123166666Y-75292914D01*
X123166666Y-75292914D02*
X123261904Y-75340533D01*
X122071428Y-75054819D02*
X121976190Y-75054819D01*
X121976190Y-75054819D02*
X121880952Y-75102438D01*
X121880952Y-75102438D02*
X121833333Y-75150057D01*
X121833333Y-75150057D02*
X121785714Y-75245295D01*
X121785714Y-75245295D02*
X121738095Y-75435771D01*
X121738095Y-75435771D02*
X121738095Y-75673866D01*
X121738095Y-75673866D02*
X121785714Y-75864342D01*
X121785714Y-75864342D02*
X121833333Y-75959580D01*
X121833333Y-75959580D02*
X121880952Y-76007200D01*
X121880952Y-76007200D02*
X121976190Y-76054819D01*
X121976190Y-76054819D02*
X122071428Y-76054819D01*
X122071428Y-76054819D02*
X122166666Y-76007200D01*
X122166666Y-76007200D02*
X122214285Y-75959580D01*
X122214285Y-75959580D02*
X122261904Y-75864342D01*
X122261904Y-75864342D02*
X122309523Y-75673866D01*
X122309523Y-75673866D02*
X122309523Y-75435771D01*
X122309523Y-75435771D02*
X122261904Y-75245295D01*
X122261904Y-75245295D02*
X122214285Y-75150057D01*
X122214285Y-75150057D02*
X122166666Y-75102438D01*
X122166666Y-75102438D02*
X122071428Y-75054819D01*
X128845238Y-87850057D02*
X128940476Y-87802438D01*
X128940476Y-87802438D02*
X129035714Y-87707200D01*
X129035714Y-87707200D02*
X129178571Y-87564342D01*
X129178571Y-87564342D02*
X129273809Y-87516723D01*
X129273809Y-87516723D02*
X129369047Y-87516723D01*
X129321428Y-87754819D02*
X129416666Y-87707200D01*
X129416666Y-87707200D02*
X129511904Y-87611961D01*
X129511904Y-87611961D02*
X129559523Y-87421485D01*
X129559523Y-87421485D02*
X129559523Y-87088152D01*
X129559523Y-87088152D02*
X129511904Y-86897676D01*
X129511904Y-86897676D02*
X129416666Y-86802438D01*
X129416666Y-86802438D02*
X129321428Y-86754819D01*
X129321428Y-86754819D02*
X129130952Y-86754819D01*
X129130952Y-86754819D02*
X129035714Y-86802438D01*
X129035714Y-86802438D02*
X128940476Y-86897676D01*
X128940476Y-86897676D02*
X128892857Y-87088152D01*
X128892857Y-87088152D02*
X128892857Y-87421485D01*
X128892857Y-87421485D02*
X128940476Y-87611961D01*
X128940476Y-87611961D02*
X129035714Y-87707200D01*
X129035714Y-87707200D02*
X129130952Y-87754819D01*
X129130952Y-87754819D02*
X129321428Y-87754819D01*
X127988095Y-86754819D02*
X128464285Y-86754819D01*
X128464285Y-86754819D02*
X128511904Y-87231009D01*
X128511904Y-87231009D02*
X128464285Y-87183390D01*
X128464285Y-87183390D02*
X128369047Y-87135771D01*
X128369047Y-87135771D02*
X128130952Y-87135771D01*
X128130952Y-87135771D02*
X128035714Y-87183390D01*
X128035714Y-87183390D02*
X127988095Y-87231009D01*
X127988095Y-87231009D02*
X127940476Y-87326247D01*
X127940476Y-87326247D02*
X127940476Y-87564342D01*
X127940476Y-87564342D02*
X127988095Y-87659580D01*
X127988095Y-87659580D02*
X128035714Y-87707200D01*
X128035714Y-87707200D02*
X128130952Y-87754819D01*
X128130952Y-87754819D02*
X128369047Y-87754819D01*
X128369047Y-87754819D02*
X128464285Y-87707200D01*
X128464285Y-87707200D02*
X128511904Y-87659580D01*
X75742857Y-92754819D02*
X76076190Y-92278628D01*
X76314285Y-92754819D02*
X76314285Y-91754819D01*
X76314285Y-91754819D02*
X75933333Y-91754819D01*
X75933333Y-91754819D02*
X75838095Y-91802438D01*
X75838095Y-91802438D02*
X75790476Y-91850057D01*
X75790476Y-91850057D02*
X75742857Y-91945295D01*
X75742857Y-91945295D02*
X75742857Y-92088152D01*
X75742857Y-92088152D02*
X75790476Y-92183390D01*
X75790476Y-92183390D02*
X75838095Y-92231009D01*
X75838095Y-92231009D02*
X75933333Y-92278628D01*
X75933333Y-92278628D02*
X76314285Y-92278628D01*
X74790476Y-92754819D02*
X75361904Y-92754819D01*
X75076190Y-92754819D02*
X75076190Y-91754819D01*
X75076190Y-91754819D02*
X75171428Y-91897676D01*
X75171428Y-91897676D02*
X75266666Y-91992914D01*
X75266666Y-91992914D02*
X75361904Y-92040533D01*
X74219047Y-92183390D02*
X74314285Y-92135771D01*
X74314285Y-92135771D02*
X74361904Y-92088152D01*
X74361904Y-92088152D02*
X74409523Y-91992914D01*
X74409523Y-91992914D02*
X74409523Y-91945295D01*
X74409523Y-91945295D02*
X74361904Y-91850057D01*
X74361904Y-91850057D02*
X74314285Y-91802438D01*
X74314285Y-91802438D02*
X74219047Y-91754819D01*
X74219047Y-91754819D02*
X74028571Y-91754819D01*
X74028571Y-91754819D02*
X73933333Y-91802438D01*
X73933333Y-91802438D02*
X73885714Y-91850057D01*
X73885714Y-91850057D02*
X73838095Y-91945295D01*
X73838095Y-91945295D02*
X73838095Y-91992914D01*
X73838095Y-91992914D02*
X73885714Y-92088152D01*
X73885714Y-92088152D02*
X73933333Y-92135771D01*
X73933333Y-92135771D02*
X74028571Y-92183390D01*
X74028571Y-92183390D02*
X74219047Y-92183390D01*
X74219047Y-92183390D02*
X74314285Y-92231009D01*
X74314285Y-92231009D02*
X74361904Y-92278628D01*
X74361904Y-92278628D02*
X74409523Y-92373866D01*
X74409523Y-92373866D02*
X74409523Y-92564342D01*
X74409523Y-92564342D02*
X74361904Y-92659580D01*
X74361904Y-92659580D02*
X74314285Y-92707200D01*
X74314285Y-92707200D02*
X74219047Y-92754819D01*
X74219047Y-92754819D02*
X74028571Y-92754819D01*
X74028571Y-92754819D02*
X73933333Y-92707200D01*
X73933333Y-92707200D02*
X73885714Y-92659580D01*
X73885714Y-92659580D02*
X73838095Y-92564342D01*
X73838095Y-92564342D02*
X73838095Y-92373866D01*
X73838095Y-92373866D02*
X73885714Y-92278628D01*
X73885714Y-92278628D02*
X73933333Y-92231009D01*
X73933333Y-92231009D02*
X74028571Y-92183390D01*
X129638094Y-66754819D02*
X129638094Y-65754819D01*
X129638094Y-65754819D02*
X129399999Y-65754819D01*
X129399999Y-65754819D02*
X129257142Y-65802438D01*
X129257142Y-65802438D02*
X129161904Y-65897676D01*
X129161904Y-65897676D02*
X129114285Y-65992914D01*
X129114285Y-65992914D02*
X129066666Y-66183390D01*
X129066666Y-66183390D02*
X129066666Y-66326247D01*
X129066666Y-66326247D02*
X129114285Y-66516723D01*
X129114285Y-66516723D02*
X129161904Y-66611961D01*
X129161904Y-66611961D02*
X129257142Y-66707200D01*
X129257142Y-66707200D02*
X129399999Y-66754819D01*
X129399999Y-66754819D02*
X129638094Y-66754819D01*
X128209523Y-65754819D02*
X128399999Y-65754819D01*
X128399999Y-65754819D02*
X128495237Y-65802438D01*
X128495237Y-65802438D02*
X128542856Y-65850057D01*
X128542856Y-65850057D02*
X128638094Y-65992914D01*
X128638094Y-65992914D02*
X128685713Y-66183390D01*
X128685713Y-66183390D02*
X128685713Y-66564342D01*
X128685713Y-66564342D02*
X128638094Y-66659580D01*
X128638094Y-66659580D02*
X128590475Y-66707200D01*
X128590475Y-66707200D02*
X128495237Y-66754819D01*
X128495237Y-66754819D02*
X128304761Y-66754819D01*
X128304761Y-66754819D02*
X128209523Y-66707200D01*
X128209523Y-66707200D02*
X128161904Y-66659580D01*
X128161904Y-66659580D02*
X128114285Y-66564342D01*
X128114285Y-66564342D02*
X128114285Y-66326247D01*
X128114285Y-66326247D02*
X128161904Y-66231009D01*
X128161904Y-66231009D02*
X128209523Y-66183390D01*
X128209523Y-66183390D02*
X128304761Y-66135771D01*
X128304761Y-66135771D02*
X128495237Y-66135771D01*
X128495237Y-66135771D02*
X128590475Y-66183390D01*
X128590475Y-66183390D02*
X128638094Y-66231009D01*
X128638094Y-66231009D02*
X128685713Y-66326247D01*
X112854819Y-83507142D02*
X112378628Y-83173809D01*
X112854819Y-82935714D02*
X111854819Y-82935714D01*
X111854819Y-82935714D02*
X111854819Y-83316666D01*
X111854819Y-83316666D02*
X111902438Y-83411904D01*
X111902438Y-83411904D02*
X111950057Y-83459523D01*
X111950057Y-83459523D02*
X112045295Y-83507142D01*
X112045295Y-83507142D02*
X112188152Y-83507142D01*
X112188152Y-83507142D02*
X112283390Y-83459523D01*
X112283390Y-83459523D02*
X112331009Y-83411904D01*
X112331009Y-83411904D02*
X112378628Y-83316666D01*
X112378628Y-83316666D02*
X112378628Y-82935714D01*
X112188152Y-84364285D02*
X112854819Y-84364285D01*
X111807200Y-84126190D02*
X112521485Y-83888095D01*
X112521485Y-83888095D02*
X112521485Y-84507142D01*
X112854819Y-85411904D02*
X112854819Y-84840476D01*
X112854819Y-85126190D02*
X111854819Y-85126190D01*
X111854819Y-85126190D02*
X111997676Y-85030952D01*
X111997676Y-85030952D02*
X112092914Y-84935714D01*
X112092914Y-84935714D02*
X112140533Y-84840476D01*
X102842857Y-62454819D02*
X103176190Y-61978628D01*
X103414285Y-62454819D02*
X103414285Y-61454819D01*
X103414285Y-61454819D02*
X103033333Y-61454819D01*
X103033333Y-61454819D02*
X102938095Y-61502438D01*
X102938095Y-61502438D02*
X102890476Y-61550057D01*
X102890476Y-61550057D02*
X102842857Y-61645295D01*
X102842857Y-61645295D02*
X102842857Y-61788152D01*
X102842857Y-61788152D02*
X102890476Y-61883390D01*
X102890476Y-61883390D02*
X102938095Y-61931009D01*
X102938095Y-61931009D02*
X103033333Y-61978628D01*
X103033333Y-61978628D02*
X103414285Y-61978628D01*
X102509523Y-61454819D02*
X101890476Y-61454819D01*
X101890476Y-61454819D02*
X102223809Y-61835771D01*
X102223809Y-61835771D02*
X102080952Y-61835771D01*
X102080952Y-61835771D02*
X101985714Y-61883390D01*
X101985714Y-61883390D02*
X101938095Y-61931009D01*
X101938095Y-61931009D02*
X101890476Y-62026247D01*
X101890476Y-62026247D02*
X101890476Y-62264342D01*
X101890476Y-62264342D02*
X101938095Y-62359580D01*
X101938095Y-62359580D02*
X101985714Y-62407200D01*
X101985714Y-62407200D02*
X102080952Y-62454819D01*
X102080952Y-62454819D02*
X102366666Y-62454819D01*
X102366666Y-62454819D02*
X102461904Y-62407200D01*
X102461904Y-62407200D02*
X102509523Y-62359580D01*
X101509523Y-61550057D02*
X101461904Y-61502438D01*
X101461904Y-61502438D02*
X101366666Y-61454819D01*
X101366666Y-61454819D02*
X101128571Y-61454819D01*
X101128571Y-61454819D02*
X101033333Y-61502438D01*
X101033333Y-61502438D02*
X100985714Y-61550057D01*
X100985714Y-61550057D02*
X100938095Y-61645295D01*
X100938095Y-61645295D02*
X100938095Y-61740533D01*
X100938095Y-61740533D02*
X100985714Y-61883390D01*
X100985714Y-61883390D02*
X101557142Y-62454819D01*
X101557142Y-62454819D02*
X100938095Y-62454819D01*
X102442857Y-76954819D02*
X102776190Y-76478628D01*
X103014285Y-76954819D02*
X103014285Y-75954819D01*
X103014285Y-75954819D02*
X102633333Y-75954819D01*
X102633333Y-75954819D02*
X102538095Y-76002438D01*
X102538095Y-76002438D02*
X102490476Y-76050057D01*
X102490476Y-76050057D02*
X102442857Y-76145295D01*
X102442857Y-76145295D02*
X102442857Y-76288152D01*
X102442857Y-76288152D02*
X102490476Y-76383390D01*
X102490476Y-76383390D02*
X102538095Y-76431009D01*
X102538095Y-76431009D02*
X102633333Y-76478628D01*
X102633333Y-76478628D02*
X103014285Y-76478628D01*
X102109523Y-75954819D02*
X101490476Y-75954819D01*
X101490476Y-75954819D02*
X101823809Y-76335771D01*
X101823809Y-76335771D02*
X101680952Y-76335771D01*
X101680952Y-76335771D02*
X101585714Y-76383390D01*
X101585714Y-76383390D02*
X101538095Y-76431009D01*
X101538095Y-76431009D02*
X101490476Y-76526247D01*
X101490476Y-76526247D02*
X101490476Y-76764342D01*
X101490476Y-76764342D02*
X101538095Y-76859580D01*
X101538095Y-76859580D02*
X101585714Y-76907200D01*
X101585714Y-76907200D02*
X101680952Y-76954819D01*
X101680952Y-76954819D02*
X101966666Y-76954819D01*
X101966666Y-76954819D02*
X102061904Y-76907200D01*
X102061904Y-76907200D02*
X102109523Y-76859580D01*
X100538095Y-76954819D02*
X101109523Y-76954819D01*
X100823809Y-76954819D02*
X100823809Y-75954819D01*
X100823809Y-75954819D02*
X100919047Y-76097676D01*
X100919047Y-76097676D02*
X101014285Y-76192914D01*
X101014285Y-76192914D02*
X101109523Y-76240533D01*
X102542857Y-72854819D02*
X102876190Y-72378628D01*
X103114285Y-72854819D02*
X103114285Y-71854819D01*
X103114285Y-71854819D02*
X102733333Y-71854819D01*
X102733333Y-71854819D02*
X102638095Y-71902438D01*
X102638095Y-71902438D02*
X102590476Y-71950057D01*
X102590476Y-71950057D02*
X102542857Y-72045295D01*
X102542857Y-72045295D02*
X102542857Y-72188152D01*
X102542857Y-72188152D02*
X102590476Y-72283390D01*
X102590476Y-72283390D02*
X102638095Y-72331009D01*
X102638095Y-72331009D02*
X102733333Y-72378628D01*
X102733333Y-72378628D02*
X103114285Y-72378628D01*
X102209523Y-71854819D02*
X101590476Y-71854819D01*
X101590476Y-71854819D02*
X101923809Y-72235771D01*
X101923809Y-72235771D02*
X101780952Y-72235771D01*
X101780952Y-72235771D02*
X101685714Y-72283390D01*
X101685714Y-72283390D02*
X101638095Y-72331009D01*
X101638095Y-72331009D02*
X101590476Y-72426247D01*
X101590476Y-72426247D02*
X101590476Y-72664342D01*
X101590476Y-72664342D02*
X101638095Y-72759580D01*
X101638095Y-72759580D02*
X101685714Y-72807200D01*
X101685714Y-72807200D02*
X101780952Y-72854819D01*
X101780952Y-72854819D02*
X102066666Y-72854819D01*
X102066666Y-72854819D02*
X102161904Y-72807200D01*
X102161904Y-72807200D02*
X102209523Y-72759580D01*
X101257142Y-71854819D02*
X100638095Y-71854819D01*
X100638095Y-71854819D02*
X100971428Y-72235771D01*
X100971428Y-72235771D02*
X100828571Y-72235771D01*
X100828571Y-72235771D02*
X100733333Y-72283390D01*
X100733333Y-72283390D02*
X100685714Y-72331009D01*
X100685714Y-72331009D02*
X100638095Y-72426247D01*
X100638095Y-72426247D02*
X100638095Y-72664342D01*
X100638095Y-72664342D02*
X100685714Y-72759580D01*
X100685714Y-72759580D02*
X100733333Y-72807200D01*
X100733333Y-72807200D02*
X100828571Y-72854819D01*
X100828571Y-72854819D02*
X101114285Y-72854819D01*
X101114285Y-72854819D02*
X101209523Y-72807200D01*
X101209523Y-72807200D02*
X101257142Y-72759580D01*
X122845238Y-78500057D02*
X122940476Y-78452438D01*
X122940476Y-78452438D02*
X123035714Y-78357200D01*
X123035714Y-78357200D02*
X123178571Y-78214342D01*
X123178571Y-78214342D02*
X123273809Y-78166723D01*
X123273809Y-78166723D02*
X123369047Y-78166723D01*
X123321428Y-78404819D02*
X123416666Y-78357200D01*
X123416666Y-78357200D02*
X123511904Y-78261961D01*
X123511904Y-78261961D02*
X123559523Y-78071485D01*
X123559523Y-78071485D02*
X123559523Y-77738152D01*
X123559523Y-77738152D02*
X123511904Y-77547676D01*
X123511904Y-77547676D02*
X123416666Y-77452438D01*
X123416666Y-77452438D02*
X123321428Y-77404819D01*
X123321428Y-77404819D02*
X123130952Y-77404819D01*
X123130952Y-77404819D02*
X123035714Y-77452438D01*
X123035714Y-77452438D02*
X122940476Y-77547676D01*
X122940476Y-77547676D02*
X122892857Y-77738152D01*
X122892857Y-77738152D02*
X122892857Y-78071485D01*
X122892857Y-78071485D02*
X122940476Y-78261961D01*
X122940476Y-78261961D02*
X123035714Y-78357200D01*
X123035714Y-78357200D02*
X123130952Y-78404819D01*
X123130952Y-78404819D02*
X123321428Y-78404819D01*
X122559523Y-77404819D02*
X121892857Y-77404819D01*
X121892857Y-77404819D02*
X122321428Y-78404819D01*
X102492857Y-78854819D02*
X102826190Y-78378628D01*
X103064285Y-78854819D02*
X103064285Y-77854819D01*
X103064285Y-77854819D02*
X102683333Y-77854819D01*
X102683333Y-77854819D02*
X102588095Y-77902438D01*
X102588095Y-77902438D02*
X102540476Y-77950057D01*
X102540476Y-77950057D02*
X102492857Y-78045295D01*
X102492857Y-78045295D02*
X102492857Y-78188152D01*
X102492857Y-78188152D02*
X102540476Y-78283390D01*
X102540476Y-78283390D02*
X102588095Y-78331009D01*
X102588095Y-78331009D02*
X102683333Y-78378628D01*
X102683333Y-78378628D02*
X103064285Y-78378628D01*
X102159523Y-77854819D02*
X101540476Y-77854819D01*
X101540476Y-77854819D02*
X101873809Y-78235771D01*
X101873809Y-78235771D02*
X101730952Y-78235771D01*
X101730952Y-78235771D02*
X101635714Y-78283390D01*
X101635714Y-78283390D02*
X101588095Y-78331009D01*
X101588095Y-78331009D02*
X101540476Y-78426247D01*
X101540476Y-78426247D02*
X101540476Y-78664342D01*
X101540476Y-78664342D02*
X101588095Y-78759580D01*
X101588095Y-78759580D02*
X101635714Y-78807200D01*
X101635714Y-78807200D02*
X101730952Y-78854819D01*
X101730952Y-78854819D02*
X102016666Y-78854819D01*
X102016666Y-78854819D02*
X102111904Y-78807200D01*
X102111904Y-78807200D02*
X102159523Y-78759580D01*
X100683333Y-78188152D02*
X100683333Y-78854819D01*
X100921428Y-77807200D02*
X101159523Y-78521485D01*
X101159523Y-78521485D02*
X100540476Y-78521485D01*
X123392857Y-115209580D02*
X123440476Y-115257200D01*
X123440476Y-115257200D02*
X123583333Y-115304819D01*
X123583333Y-115304819D02*
X123678571Y-115304819D01*
X123678571Y-115304819D02*
X123821428Y-115257200D01*
X123821428Y-115257200D02*
X123916666Y-115161961D01*
X123916666Y-115161961D02*
X123964285Y-115066723D01*
X123964285Y-115066723D02*
X124011904Y-114876247D01*
X124011904Y-114876247D02*
X124011904Y-114733390D01*
X124011904Y-114733390D02*
X123964285Y-114542914D01*
X123964285Y-114542914D02*
X123916666Y-114447676D01*
X123916666Y-114447676D02*
X123821428Y-114352438D01*
X123821428Y-114352438D02*
X123678571Y-114304819D01*
X123678571Y-114304819D02*
X123583333Y-114304819D01*
X123583333Y-114304819D02*
X123440476Y-114352438D01*
X123440476Y-114352438D02*
X123392857Y-114400057D01*
X123011904Y-114400057D02*
X122964285Y-114352438D01*
X122964285Y-114352438D02*
X122869047Y-114304819D01*
X122869047Y-114304819D02*
X122630952Y-114304819D01*
X122630952Y-114304819D02*
X122535714Y-114352438D01*
X122535714Y-114352438D02*
X122488095Y-114400057D01*
X122488095Y-114400057D02*
X122440476Y-114495295D01*
X122440476Y-114495295D02*
X122440476Y-114590533D01*
X122440476Y-114590533D02*
X122488095Y-114733390D01*
X122488095Y-114733390D02*
X123059523Y-115304819D01*
X123059523Y-115304819D02*
X122440476Y-115304819D01*
X121583333Y-114638152D02*
X121583333Y-115304819D01*
X121821428Y-114257200D02*
X122059523Y-114971485D01*
X122059523Y-114971485D02*
X121440476Y-114971485D01*
X110742857Y-111120580D02*
X110790476Y-111168200D01*
X110790476Y-111168200D02*
X110933333Y-111215819D01*
X110933333Y-111215819D02*
X111028571Y-111215819D01*
X111028571Y-111215819D02*
X111171428Y-111168200D01*
X111171428Y-111168200D02*
X111266666Y-111072961D01*
X111266666Y-111072961D02*
X111314285Y-110977723D01*
X111314285Y-110977723D02*
X111361904Y-110787247D01*
X111361904Y-110787247D02*
X111361904Y-110644390D01*
X111361904Y-110644390D02*
X111314285Y-110453914D01*
X111314285Y-110453914D02*
X111266666Y-110358676D01*
X111266666Y-110358676D02*
X111171428Y-110263438D01*
X111171428Y-110263438D02*
X111028571Y-110215819D01*
X111028571Y-110215819D02*
X110933333Y-110215819D01*
X110933333Y-110215819D02*
X110790476Y-110263438D01*
X110790476Y-110263438D02*
X110742857Y-110311057D01*
X110361904Y-110311057D02*
X110314285Y-110263438D01*
X110314285Y-110263438D02*
X110219047Y-110215819D01*
X110219047Y-110215819D02*
X109980952Y-110215819D01*
X109980952Y-110215819D02*
X109885714Y-110263438D01*
X109885714Y-110263438D02*
X109838095Y-110311057D01*
X109838095Y-110311057D02*
X109790476Y-110406295D01*
X109790476Y-110406295D02*
X109790476Y-110501533D01*
X109790476Y-110501533D02*
X109838095Y-110644390D01*
X109838095Y-110644390D02*
X110409523Y-111215819D01*
X110409523Y-111215819D02*
X109790476Y-111215819D01*
X108933333Y-110215819D02*
X109123809Y-110215819D01*
X109123809Y-110215819D02*
X109219047Y-110263438D01*
X109219047Y-110263438D02*
X109266666Y-110311057D01*
X109266666Y-110311057D02*
X109361904Y-110453914D01*
X109361904Y-110453914D02*
X109409523Y-110644390D01*
X109409523Y-110644390D02*
X109409523Y-111025342D01*
X109409523Y-111025342D02*
X109361904Y-111120580D01*
X109361904Y-111120580D02*
X109314285Y-111168200D01*
X109314285Y-111168200D02*
X109219047Y-111215819D01*
X109219047Y-111215819D02*
X109028571Y-111215819D01*
X109028571Y-111215819D02*
X108933333Y-111168200D01*
X108933333Y-111168200D02*
X108885714Y-111120580D01*
X108885714Y-111120580D02*
X108838095Y-111025342D01*
X108838095Y-111025342D02*
X108838095Y-110787247D01*
X108838095Y-110787247D02*
X108885714Y-110692009D01*
X108885714Y-110692009D02*
X108933333Y-110644390D01*
X108933333Y-110644390D02*
X109028571Y-110596771D01*
X109028571Y-110596771D02*
X109219047Y-110596771D01*
X109219047Y-110596771D02*
X109314285Y-110644390D01*
X109314285Y-110644390D02*
X109361904Y-110692009D01*
X109361904Y-110692009D02*
X109409523Y-110787247D01*
X123392857Y-111145580D02*
X123440476Y-111193200D01*
X123440476Y-111193200D02*
X123583333Y-111240819D01*
X123583333Y-111240819D02*
X123678571Y-111240819D01*
X123678571Y-111240819D02*
X123821428Y-111193200D01*
X123821428Y-111193200D02*
X123916666Y-111097961D01*
X123916666Y-111097961D02*
X123964285Y-111002723D01*
X123964285Y-111002723D02*
X124011904Y-110812247D01*
X124011904Y-110812247D02*
X124011904Y-110669390D01*
X124011904Y-110669390D02*
X123964285Y-110478914D01*
X123964285Y-110478914D02*
X123916666Y-110383676D01*
X123916666Y-110383676D02*
X123821428Y-110288438D01*
X123821428Y-110288438D02*
X123678571Y-110240819D01*
X123678571Y-110240819D02*
X123583333Y-110240819D01*
X123583333Y-110240819D02*
X123440476Y-110288438D01*
X123440476Y-110288438D02*
X123392857Y-110336057D01*
X123011904Y-110336057D02*
X122964285Y-110288438D01*
X122964285Y-110288438D02*
X122869047Y-110240819D01*
X122869047Y-110240819D02*
X122630952Y-110240819D01*
X122630952Y-110240819D02*
X122535714Y-110288438D01*
X122535714Y-110288438D02*
X122488095Y-110336057D01*
X122488095Y-110336057D02*
X122440476Y-110431295D01*
X122440476Y-110431295D02*
X122440476Y-110526533D01*
X122440476Y-110526533D02*
X122488095Y-110669390D01*
X122488095Y-110669390D02*
X123059523Y-111240819D01*
X123059523Y-111240819D02*
X122440476Y-111240819D01*
X122107142Y-110240819D02*
X121488095Y-110240819D01*
X121488095Y-110240819D02*
X121821428Y-110621771D01*
X121821428Y-110621771D02*
X121678571Y-110621771D01*
X121678571Y-110621771D02*
X121583333Y-110669390D01*
X121583333Y-110669390D02*
X121535714Y-110717009D01*
X121535714Y-110717009D02*
X121488095Y-110812247D01*
X121488095Y-110812247D02*
X121488095Y-111050342D01*
X121488095Y-111050342D02*
X121535714Y-111145580D01*
X121535714Y-111145580D02*
X121583333Y-111193200D01*
X121583333Y-111193200D02*
X121678571Y-111240819D01*
X121678571Y-111240819D02*
X121964285Y-111240819D01*
X121964285Y-111240819D02*
X122059523Y-111193200D01*
X122059523Y-111193200D02*
X122107142Y-111145580D01*
X98516666Y-102004819D02*
X98992856Y-102004819D01*
X98992856Y-102004819D02*
X98992856Y-101004819D01*
X97659523Y-102004819D02*
X98230951Y-102004819D01*
X97945237Y-102004819D02*
X97945237Y-101004819D01*
X97945237Y-101004819D02*
X98040475Y-101147676D01*
X98040475Y-101147676D02*
X98135713Y-101242914D01*
X98135713Y-101242914D02*
X98230951Y-101290533D01*
X83759580Y-104857142D02*
X83807200Y-104809523D01*
X83807200Y-104809523D02*
X83854819Y-104666666D01*
X83854819Y-104666666D02*
X83854819Y-104571428D01*
X83854819Y-104571428D02*
X83807200Y-104428571D01*
X83807200Y-104428571D02*
X83711961Y-104333333D01*
X83711961Y-104333333D02*
X83616723Y-104285714D01*
X83616723Y-104285714D02*
X83426247Y-104238095D01*
X83426247Y-104238095D02*
X83283390Y-104238095D01*
X83283390Y-104238095D02*
X83092914Y-104285714D01*
X83092914Y-104285714D02*
X82997676Y-104333333D01*
X82997676Y-104333333D02*
X82902438Y-104428571D01*
X82902438Y-104428571D02*
X82854819Y-104571428D01*
X82854819Y-104571428D02*
X82854819Y-104666666D01*
X82854819Y-104666666D02*
X82902438Y-104809523D01*
X82902438Y-104809523D02*
X82950057Y-104857142D01*
X83854819Y-105809523D02*
X83854819Y-105238095D01*
X83854819Y-105523809D02*
X82854819Y-105523809D01*
X82854819Y-105523809D02*
X82997676Y-105428571D01*
X82997676Y-105428571D02*
X83092914Y-105333333D01*
X83092914Y-105333333D02*
X83140533Y-105238095D01*
X82854819Y-106142857D02*
X82854819Y-106809523D01*
X82854819Y-106809523D02*
X83854819Y-106380952D01*
X75911904Y-101254819D02*
X75911904Y-102064342D01*
X75911904Y-102064342D02*
X75864285Y-102159580D01*
X75864285Y-102159580D02*
X75816666Y-102207200D01*
X75816666Y-102207200D02*
X75721428Y-102254819D01*
X75721428Y-102254819D02*
X75530952Y-102254819D01*
X75530952Y-102254819D02*
X75435714Y-102207200D01*
X75435714Y-102207200D02*
X75388095Y-102159580D01*
X75388095Y-102159580D02*
X75340476Y-102064342D01*
X75340476Y-102064342D02*
X75340476Y-101254819D01*
X74388095Y-101254819D02*
X74864285Y-101254819D01*
X74864285Y-101254819D02*
X74911904Y-101731009D01*
X74911904Y-101731009D02*
X74864285Y-101683390D01*
X74864285Y-101683390D02*
X74769047Y-101635771D01*
X74769047Y-101635771D02*
X74530952Y-101635771D01*
X74530952Y-101635771D02*
X74435714Y-101683390D01*
X74435714Y-101683390D02*
X74388095Y-101731009D01*
X74388095Y-101731009D02*
X74340476Y-101826247D01*
X74340476Y-101826247D02*
X74340476Y-102064342D01*
X74340476Y-102064342D02*
X74388095Y-102159580D01*
X74388095Y-102159580D02*
X74435714Y-102207200D01*
X74435714Y-102207200D02*
X74530952Y-102254819D01*
X74530952Y-102254819D02*
X74769047Y-102254819D01*
X74769047Y-102254819D02*
X74864285Y-102207200D01*
X74864285Y-102207200D02*
X74911904Y-102159580D01*
X122795238Y-87800057D02*
X122890476Y-87752438D01*
X122890476Y-87752438D02*
X122985714Y-87657200D01*
X122985714Y-87657200D02*
X123128571Y-87514342D01*
X123128571Y-87514342D02*
X123223809Y-87466723D01*
X123223809Y-87466723D02*
X123319047Y-87466723D01*
X123271428Y-87704819D02*
X123366666Y-87657200D01*
X123366666Y-87657200D02*
X123461904Y-87561961D01*
X123461904Y-87561961D02*
X123509523Y-87371485D01*
X123509523Y-87371485D02*
X123509523Y-87038152D01*
X123509523Y-87038152D02*
X123461904Y-86847676D01*
X123461904Y-86847676D02*
X123366666Y-86752438D01*
X123366666Y-86752438D02*
X123271428Y-86704819D01*
X123271428Y-86704819D02*
X123080952Y-86704819D01*
X123080952Y-86704819D02*
X122985714Y-86752438D01*
X122985714Y-86752438D02*
X122890476Y-86847676D01*
X122890476Y-86847676D02*
X122842857Y-87038152D01*
X122842857Y-87038152D02*
X122842857Y-87371485D01*
X122842857Y-87371485D02*
X122890476Y-87561961D01*
X122890476Y-87561961D02*
X122985714Y-87657200D01*
X122985714Y-87657200D02*
X123080952Y-87704819D01*
X123080952Y-87704819D02*
X123271428Y-87704819D01*
X122271428Y-87133390D02*
X122366666Y-87085771D01*
X122366666Y-87085771D02*
X122414285Y-87038152D01*
X122414285Y-87038152D02*
X122461904Y-86942914D01*
X122461904Y-86942914D02*
X122461904Y-86895295D01*
X122461904Y-86895295D02*
X122414285Y-86800057D01*
X122414285Y-86800057D02*
X122366666Y-86752438D01*
X122366666Y-86752438D02*
X122271428Y-86704819D01*
X122271428Y-86704819D02*
X122080952Y-86704819D01*
X122080952Y-86704819D02*
X121985714Y-86752438D01*
X121985714Y-86752438D02*
X121938095Y-86800057D01*
X121938095Y-86800057D02*
X121890476Y-86895295D01*
X121890476Y-86895295D02*
X121890476Y-86942914D01*
X121890476Y-86942914D02*
X121938095Y-87038152D01*
X121938095Y-87038152D02*
X121985714Y-87085771D01*
X121985714Y-87085771D02*
X122080952Y-87133390D01*
X122080952Y-87133390D02*
X122271428Y-87133390D01*
X122271428Y-87133390D02*
X122366666Y-87181009D01*
X122366666Y-87181009D02*
X122414285Y-87228628D01*
X122414285Y-87228628D02*
X122461904Y-87323866D01*
X122461904Y-87323866D02*
X122461904Y-87514342D01*
X122461904Y-87514342D02*
X122414285Y-87609580D01*
X122414285Y-87609580D02*
X122366666Y-87657200D01*
X122366666Y-87657200D02*
X122271428Y-87704819D01*
X122271428Y-87704819D02*
X122080952Y-87704819D01*
X122080952Y-87704819D02*
X121985714Y-87657200D01*
X121985714Y-87657200D02*
X121938095Y-87609580D01*
X121938095Y-87609580D02*
X121890476Y-87514342D01*
X121890476Y-87514342D02*
X121890476Y-87323866D01*
X121890476Y-87323866D02*
X121938095Y-87228628D01*
X121938095Y-87228628D02*
X121985714Y-87181009D01*
X121985714Y-87181009D02*
X122080952Y-87133390D01*
X72654819Y-98157142D02*
X72178628Y-97823809D01*
X72654819Y-97585714D02*
X71654819Y-97585714D01*
X71654819Y-97585714D02*
X71654819Y-97966666D01*
X71654819Y-97966666D02*
X71702438Y-98061904D01*
X71702438Y-98061904D02*
X71750057Y-98109523D01*
X71750057Y-98109523D02*
X71845295Y-98157142D01*
X71845295Y-98157142D02*
X71988152Y-98157142D01*
X71988152Y-98157142D02*
X72083390Y-98109523D01*
X72083390Y-98109523D02*
X72131009Y-98061904D01*
X72131009Y-98061904D02*
X72178628Y-97966666D01*
X72178628Y-97966666D02*
X72178628Y-97585714D01*
X72654819Y-99109523D02*
X72654819Y-98538095D01*
X72654819Y-98823809D02*
X71654819Y-98823809D01*
X71654819Y-98823809D02*
X71797676Y-98728571D01*
X71797676Y-98728571D02*
X71892914Y-98633333D01*
X71892914Y-98633333D02*
X71940533Y-98538095D01*
X71654819Y-99442857D02*
X71654819Y-100109523D01*
X71654819Y-100109523D02*
X72654819Y-99680952D01*
X129738094Y-76154819D02*
X129738094Y-75154819D01*
X129738094Y-75154819D02*
X129499999Y-75154819D01*
X129499999Y-75154819D02*
X129357142Y-75202438D01*
X129357142Y-75202438D02*
X129261904Y-75297676D01*
X129261904Y-75297676D02*
X129214285Y-75392914D01*
X129214285Y-75392914D02*
X129166666Y-75583390D01*
X129166666Y-75583390D02*
X129166666Y-75726247D01*
X129166666Y-75726247D02*
X129214285Y-75916723D01*
X129214285Y-75916723D02*
X129261904Y-76011961D01*
X129261904Y-76011961D02*
X129357142Y-76107200D01*
X129357142Y-76107200D02*
X129499999Y-76154819D01*
X129499999Y-76154819D02*
X129738094Y-76154819D01*
X128833332Y-75154819D02*
X128166666Y-75154819D01*
X128166666Y-75154819D02*
X128595237Y-76154819D01*
X68242857Y-86704819D02*
X68576190Y-86228628D01*
X68814285Y-86704819D02*
X68814285Y-85704819D01*
X68814285Y-85704819D02*
X68433333Y-85704819D01*
X68433333Y-85704819D02*
X68338095Y-85752438D01*
X68338095Y-85752438D02*
X68290476Y-85800057D01*
X68290476Y-85800057D02*
X68242857Y-85895295D01*
X68242857Y-85895295D02*
X68242857Y-86038152D01*
X68242857Y-86038152D02*
X68290476Y-86133390D01*
X68290476Y-86133390D02*
X68338095Y-86181009D01*
X68338095Y-86181009D02*
X68433333Y-86228628D01*
X68433333Y-86228628D02*
X68814285Y-86228628D01*
X67338095Y-85704819D02*
X67814285Y-85704819D01*
X67814285Y-85704819D02*
X67861904Y-86181009D01*
X67861904Y-86181009D02*
X67814285Y-86133390D01*
X67814285Y-86133390D02*
X67719047Y-86085771D01*
X67719047Y-86085771D02*
X67480952Y-86085771D01*
X67480952Y-86085771D02*
X67385714Y-86133390D01*
X67385714Y-86133390D02*
X67338095Y-86181009D01*
X67338095Y-86181009D02*
X67290476Y-86276247D01*
X67290476Y-86276247D02*
X67290476Y-86514342D01*
X67290476Y-86514342D02*
X67338095Y-86609580D01*
X67338095Y-86609580D02*
X67385714Y-86657200D01*
X67385714Y-86657200D02*
X67480952Y-86704819D01*
X67480952Y-86704819D02*
X67719047Y-86704819D01*
X67719047Y-86704819D02*
X67814285Y-86657200D01*
X67814285Y-86657200D02*
X67861904Y-86609580D01*
X66338095Y-86704819D02*
X66909523Y-86704819D01*
X66623809Y-86704819D02*
X66623809Y-85704819D01*
X66623809Y-85704819D02*
X66719047Y-85847676D01*
X66719047Y-85847676D02*
X66814285Y-85942914D01*
X66814285Y-85942914D02*
X66909523Y-85990533D01*
X73766666Y-65704819D02*
X74099999Y-65228628D01*
X74338094Y-65704819D02*
X74338094Y-64704819D01*
X74338094Y-64704819D02*
X73957142Y-64704819D01*
X73957142Y-64704819D02*
X73861904Y-64752438D01*
X73861904Y-64752438D02*
X73814285Y-64800057D01*
X73814285Y-64800057D02*
X73766666Y-64895295D01*
X73766666Y-64895295D02*
X73766666Y-65038152D01*
X73766666Y-65038152D02*
X73814285Y-65133390D01*
X73814285Y-65133390D02*
X73861904Y-65181009D01*
X73861904Y-65181009D02*
X73957142Y-65228628D01*
X73957142Y-65228628D02*
X74338094Y-65228628D01*
X73433332Y-64704819D02*
X72814285Y-64704819D01*
X72814285Y-64704819D02*
X73147618Y-65085771D01*
X73147618Y-65085771D02*
X73004761Y-65085771D01*
X73004761Y-65085771D02*
X72909523Y-65133390D01*
X72909523Y-65133390D02*
X72861904Y-65181009D01*
X72861904Y-65181009D02*
X72814285Y-65276247D01*
X72814285Y-65276247D02*
X72814285Y-65514342D01*
X72814285Y-65514342D02*
X72861904Y-65609580D01*
X72861904Y-65609580D02*
X72909523Y-65657200D01*
X72909523Y-65657200D02*
X73004761Y-65704819D01*
X73004761Y-65704819D02*
X73290475Y-65704819D01*
X73290475Y-65704819D02*
X73385713Y-65657200D01*
X73385713Y-65657200D02*
X73433332Y-65609580D01*
X117854819Y-74157142D02*
X117378628Y-73823809D01*
X117854819Y-73585714D02*
X116854819Y-73585714D01*
X116854819Y-73585714D02*
X116854819Y-73966666D01*
X116854819Y-73966666D02*
X116902438Y-74061904D01*
X116902438Y-74061904D02*
X116950057Y-74109523D01*
X116950057Y-74109523D02*
X117045295Y-74157142D01*
X117045295Y-74157142D02*
X117188152Y-74157142D01*
X117188152Y-74157142D02*
X117283390Y-74109523D01*
X117283390Y-74109523D02*
X117331009Y-74061904D01*
X117331009Y-74061904D02*
X117378628Y-73966666D01*
X117378628Y-73966666D02*
X117378628Y-73585714D01*
X117188152Y-75014285D02*
X117854819Y-75014285D01*
X116807200Y-74776190D02*
X117521485Y-74538095D01*
X117521485Y-74538095D02*
X117521485Y-75157142D01*
X117188152Y-75966666D02*
X117854819Y-75966666D01*
X116807200Y-75728571D02*
X117521485Y-75490476D01*
X117521485Y-75490476D02*
X117521485Y-76109523D01*
X117854819Y-64807142D02*
X117378628Y-64473809D01*
X117854819Y-64235714D02*
X116854819Y-64235714D01*
X116854819Y-64235714D02*
X116854819Y-64616666D01*
X116854819Y-64616666D02*
X116902438Y-64711904D01*
X116902438Y-64711904D02*
X116950057Y-64759523D01*
X116950057Y-64759523D02*
X117045295Y-64807142D01*
X117045295Y-64807142D02*
X117188152Y-64807142D01*
X117188152Y-64807142D02*
X117283390Y-64759523D01*
X117283390Y-64759523D02*
X117331009Y-64711904D01*
X117331009Y-64711904D02*
X117378628Y-64616666D01*
X117378628Y-64616666D02*
X117378628Y-64235714D01*
X116854819Y-65140476D02*
X116854819Y-65759523D01*
X116854819Y-65759523D02*
X117235771Y-65426190D01*
X117235771Y-65426190D02*
X117235771Y-65569047D01*
X117235771Y-65569047D02*
X117283390Y-65664285D01*
X117283390Y-65664285D02*
X117331009Y-65711904D01*
X117331009Y-65711904D02*
X117426247Y-65759523D01*
X117426247Y-65759523D02*
X117664342Y-65759523D01*
X117664342Y-65759523D02*
X117759580Y-65711904D01*
X117759580Y-65711904D02*
X117807200Y-65664285D01*
X117807200Y-65664285D02*
X117854819Y-65569047D01*
X117854819Y-65569047D02*
X117854819Y-65283333D01*
X117854819Y-65283333D02*
X117807200Y-65188095D01*
X117807200Y-65188095D02*
X117759580Y-65140476D01*
X116854819Y-66092857D02*
X116854819Y-66759523D01*
X116854819Y-66759523D02*
X117854819Y-66330952D01*
X110004819Y-122757142D02*
X109528628Y-122423809D01*
X110004819Y-122185714D02*
X109004819Y-122185714D01*
X109004819Y-122185714D02*
X109004819Y-122566666D01*
X109004819Y-122566666D02*
X109052438Y-122661904D01*
X109052438Y-122661904D02*
X109100057Y-122709523D01*
X109100057Y-122709523D02*
X109195295Y-122757142D01*
X109195295Y-122757142D02*
X109338152Y-122757142D01*
X109338152Y-122757142D02*
X109433390Y-122709523D01*
X109433390Y-122709523D02*
X109481009Y-122661904D01*
X109481009Y-122661904D02*
X109528628Y-122566666D01*
X109528628Y-122566666D02*
X109528628Y-122185714D01*
X109100057Y-123138095D02*
X109052438Y-123185714D01*
X109052438Y-123185714D02*
X109004819Y-123280952D01*
X109004819Y-123280952D02*
X109004819Y-123519047D01*
X109004819Y-123519047D02*
X109052438Y-123614285D01*
X109052438Y-123614285D02*
X109100057Y-123661904D01*
X109100057Y-123661904D02*
X109195295Y-123709523D01*
X109195295Y-123709523D02*
X109290533Y-123709523D01*
X109290533Y-123709523D02*
X109433390Y-123661904D01*
X109433390Y-123661904D02*
X110004819Y-123090476D01*
X110004819Y-123090476D02*
X110004819Y-123709523D01*
X110004819Y-124661904D02*
X110004819Y-124090476D01*
X110004819Y-124376190D02*
X109004819Y-124376190D01*
X109004819Y-124376190D02*
X109147676Y-124280952D01*
X109147676Y-124280952D02*
X109242914Y-124185714D01*
X109242914Y-124185714D02*
X109290533Y-124090476D01*
X112854819Y-92807142D02*
X112378628Y-92473809D01*
X112854819Y-92235714D02*
X111854819Y-92235714D01*
X111854819Y-92235714D02*
X111854819Y-92616666D01*
X111854819Y-92616666D02*
X111902438Y-92711904D01*
X111902438Y-92711904D02*
X111950057Y-92759523D01*
X111950057Y-92759523D02*
X112045295Y-92807142D01*
X112045295Y-92807142D02*
X112188152Y-92807142D01*
X112188152Y-92807142D02*
X112283390Y-92759523D01*
X112283390Y-92759523D02*
X112331009Y-92711904D01*
X112331009Y-92711904D02*
X112378628Y-92616666D01*
X112378628Y-92616666D02*
X112378628Y-92235714D01*
X112188152Y-93664285D02*
X112854819Y-93664285D01*
X111807200Y-93426190D02*
X112521485Y-93188095D01*
X112521485Y-93188095D02*
X112521485Y-93807142D01*
X111854819Y-94092857D02*
X111854819Y-94711904D01*
X111854819Y-94711904D02*
X112235771Y-94378571D01*
X112235771Y-94378571D02*
X112235771Y-94521428D01*
X112235771Y-94521428D02*
X112283390Y-94616666D01*
X112283390Y-94616666D02*
X112331009Y-94664285D01*
X112331009Y-94664285D02*
X112426247Y-94711904D01*
X112426247Y-94711904D02*
X112664342Y-94711904D01*
X112664342Y-94711904D02*
X112759580Y-94664285D01*
X112759580Y-94664285D02*
X112807200Y-94616666D01*
X112807200Y-94616666D02*
X112854819Y-94521428D01*
X112854819Y-94521428D02*
X112854819Y-94235714D01*
X112854819Y-94235714D02*
X112807200Y-94140476D01*
X112807200Y-94140476D02*
X112759580Y-94092857D01*
X85542857Y-93559580D02*
X85590476Y-93607200D01*
X85590476Y-93607200D02*
X85733333Y-93654819D01*
X85733333Y-93654819D02*
X85828571Y-93654819D01*
X85828571Y-93654819D02*
X85971428Y-93607200D01*
X85971428Y-93607200D02*
X86066666Y-93511961D01*
X86066666Y-93511961D02*
X86114285Y-93416723D01*
X86114285Y-93416723D02*
X86161904Y-93226247D01*
X86161904Y-93226247D02*
X86161904Y-93083390D01*
X86161904Y-93083390D02*
X86114285Y-92892914D01*
X86114285Y-92892914D02*
X86066666Y-92797676D01*
X86066666Y-92797676D02*
X85971428Y-92702438D01*
X85971428Y-92702438D02*
X85828571Y-92654819D01*
X85828571Y-92654819D02*
X85733333Y-92654819D01*
X85733333Y-92654819D02*
X85590476Y-92702438D01*
X85590476Y-92702438D02*
X85542857Y-92750057D01*
X85161904Y-92750057D02*
X85114285Y-92702438D01*
X85114285Y-92702438D02*
X85019047Y-92654819D01*
X85019047Y-92654819D02*
X84780952Y-92654819D01*
X84780952Y-92654819D02*
X84685714Y-92702438D01*
X84685714Y-92702438D02*
X84638095Y-92750057D01*
X84638095Y-92750057D02*
X84590476Y-92845295D01*
X84590476Y-92845295D02*
X84590476Y-92940533D01*
X84590476Y-92940533D02*
X84638095Y-93083390D01*
X84638095Y-93083390D02*
X85209523Y-93654819D01*
X85209523Y-93654819D02*
X84590476Y-93654819D01*
X83971428Y-92654819D02*
X83876190Y-92654819D01*
X83876190Y-92654819D02*
X83780952Y-92702438D01*
X83780952Y-92702438D02*
X83733333Y-92750057D01*
X83733333Y-92750057D02*
X83685714Y-92845295D01*
X83685714Y-92845295D02*
X83638095Y-93035771D01*
X83638095Y-93035771D02*
X83638095Y-93273866D01*
X83638095Y-93273866D02*
X83685714Y-93464342D01*
X83685714Y-93464342D02*
X83733333Y-93559580D01*
X83733333Y-93559580D02*
X83780952Y-93607200D01*
X83780952Y-93607200D02*
X83876190Y-93654819D01*
X83876190Y-93654819D02*
X83971428Y-93654819D01*
X83971428Y-93654819D02*
X84066666Y-93607200D01*
X84066666Y-93607200D02*
X84114285Y-93559580D01*
X84114285Y-93559580D02*
X84161904Y-93464342D01*
X84161904Y-93464342D02*
X84209523Y-93273866D01*
X84209523Y-93273866D02*
X84209523Y-93035771D01*
X84209523Y-93035771D02*
X84161904Y-92845295D01*
X84161904Y-92845295D02*
X84114285Y-92750057D01*
X84114285Y-92750057D02*
X84066666Y-92702438D01*
X84066666Y-92702438D02*
X83971428Y-92654819D01*
X111064285Y-68304819D02*
X111064285Y-67304819D01*
X111064285Y-67304819D02*
X110826190Y-67304819D01*
X110826190Y-67304819D02*
X110683333Y-67352438D01*
X110683333Y-67352438D02*
X110588095Y-67447676D01*
X110588095Y-67447676D02*
X110540476Y-67542914D01*
X110540476Y-67542914D02*
X110492857Y-67733390D01*
X110492857Y-67733390D02*
X110492857Y-67876247D01*
X110492857Y-67876247D02*
X110540476Y-68066723D01*
X110540476Y-68066723D02*
X110588095Y-68161961D01*
X110588095Y-68161961D02*
X110683333Y-68257200D01*
X110683333Y-68257200D02*
X110826190Y-68304819D01*
X110826190Y-68304819D02*
X111064285Y-68304819D01*
X109540476Y-68304819D02*
X110111904Y-68304819D01*
X109826190Y-68304819D02*
X109826190Y-67304819D01*
X109826190Y-67304819D02*
X109921428Y-67447676D01*
X109921428Y-67447676D02*
X110016666Y-67542914D01*
X110016666Y-67542914D02*
X110111904Y-67590533D01*
X109159523Y-67400057D02*
X109111904Y-67352438D01*
X109111904Y-67352438D02*
X109016666Y-67304819D01*
X109016666Y-67304819D02*
X108778571Y-67304819D01*
X108778571Y-67304819D02*
X108683333Y-67352438D01*
X108683333Y-67352438D02*
X108635714Y-67400057D01*
X108635714Y-67400057D02*
X108588095Y-67495295D01*
X108588095Y-67495295D02*
X108588095Y-67590533D01*
X108588095Y-67590533D02*
X108635714Y-67733390D01*
X108635714Y-67733390D02*
X109207142Y-68304819D01*
X109207142Y-68304819D02*
X108588095Y-68304819D01*
X124214285Y-85304819D02*
X124214285Y-84304819D01*
X124214285Y-84304819D02*
X123976190Y-84304819D01*
X123976190Y-84304819D02*
X123833333Y-84352438D01*
X123833333Y-84352438D02*
X123738095Y-84447676D01*
X123738095Y-84447676D02*
X123690476Y-84542914D01*
X123690476Y-84542914D02*
X123642857Y-84733390D01*
X123642857Y-84733390D02*
X123642857Y-84876247D01*
X123642857Y-84876247D02*
X123690476Y-85066723D01*
X123690476Y-85066723D02*
X123738095Y-85161961D01*
X123738095Y-85161961D02*
X123833333Y-85257200D01*
X123833333Y-85257200D02*
X123976190Y-85304819D01*
X123976190Y-85304819D02*
X124214285Y-85304819D01*
X122690476Y-85304819D02*
X123261904Y-85304819D01*
X122976190Y-85304819D02*
X122976190Y-84304819D01*
X122976190Y-84304819D02*
X123071428Y-84447676D01*
X123071428Y-84447676D02*
X123166666Y-84542914D01*
X123166666Y-84542914D02*
X123261904Y-84590533D01*
X121738095Y-85304819D02*
X122309523Y-85304819D01*
X122023809Y-85304819D02*
X122023809Y-84304819D01*
X122023809Y-84304819D02*
X122119047Y-84447676D01*
X122119047Y-84447676D02*
X122214285Y-84542914D01*
X122214285Y-84542914D02*
X122309523Y-84590533D01*
X111064285Y-96304819D02*
X111064285Y-95304819D01*
X111064285Y-95304819D02*
X110826190Y-95304819D01*
X110826190Y-95304819D02*
X110683333Y-95352438D01*
X110683333Y-95352438D02*
X110588095Y-95447676D01*
X110588095Y-95447676D02*
X110540476Y-95542914D01*
X110540476Y-95542914D02*
X110492857Y-95733390D01*
X110492857Y-95733390D02*
X110492857Y-95876247D01*
X110492857Y-95876247D02*
X110540476Y-96066723D01*
X110540476Y-96066723D02*
X110588095Y-96161961D01*
X110588095Y-96161961D02*
X110683333Y-96257200D01*
X110683333Y-96257200D02*
X110826190Y-96304819D01*
X110826190Y-96304819D02*
X111064285Y-96304819D01*
X109540476Y-96304819D02*
X110111904Y-96304819D01*
X109826190Y-96304819D02*
X109826190Y-95304819D01*
X109826190Y-95304819D02*
X109921428Y-95447676D01*
X109921428Y-95447676D02*
X110016666Y-95542914D01*
X110016666Y-95542914D02*
X110111904Y-95590533D01*
X108635714Y-95304819D02*
X109111904Y-95304819D01*
X109111904Y-95304819D02*
X109159523Y-95781009D01*
X109159523Y-95781009D02*
X109111904Y-95733390D01*
X109111904Y-95733390D02*
X109016666Y-95685771D01*
X109016666Y-95685771D02*
X108778571Y-95685771D01*
X108778571Y-95685771D02*
X108683333Y-95733390D01*
X108683333Y-95733390D02*
X108635714Y-95781009D01*
X108635714Y-95781009D02*
X108588095Y-95876247D01*
X108588095Y-95876247D02*
X108588095Y-96114342D01*
X108588095Y-96114342D02*
X108635714Y-96209580D01*
X108635714Y-96209580D02*
X108683333Y-96257200D01*
X108683333Y-96257200D02*
X108778571Y-96304819D01*
X108778571Y-96304819D02*
X109016666Y-96304819D01*
X109016666Y-96304819D02*
X109111904Y-96257200D01*
X109111904Y-96257200D02*
X109159523Y-96209580D01*
X111064285Y-77654819D02*
X111064285Y-76654819D01*
X111064285Y-76654819D02*
X110826190Y-76654819D01*
X110826190Y-76654819D02*
X110683333Y-76702438D01*
X110683333Y-76702438D02*
X110588095Y-76797676D01*
X110588095Y-76797676D02*
X110540476Y-76892914D01*
X110540476Y-76892914D02*
X110492857Y-77083390D01*
X110492857Y-77083390D02*
X110492857Y-77226247D01*
X110492857Y-77226247D02*
X110540476Y-77416723D01*
X110540476Y-77416723D02*
X110588095Y-77511961D01*
X110588095Y-77511961D02*
X110683333Y-77607200D01*
X110683333Y-77607200D02*
X110826190Y-77654819D01*
X110826190Y-77654819D02*
X111064285Y-77654819D01*
X109540476Y-77654819D02*
X110111904Y-77654819D01*
X109826190Y-77654819D02*
X109826190Y-76654819D01*
X109826190Y-76654819D02*
X109921428Y-76797676D01*
X109921428Y-76797676D02*
X110016666Y-76892914D01*
X110016666Y-76892914D02*
X110111904Y-76940533D01*
X109207142Y-76654819D02*
X108588095Y-76654819D01*
X108588095Y-76654819D02*
X108921428Y-77035771D01*
X108921428Y-77035771D02*
X108778571Y-77035771D01*
X108778571Y-77035771D02*
X108683333Y-77083390D01*
X108683333Y-77083390D02*
X108635714Y-77131009D01*
X108635714Y-77131009D02*
X108588095Y-77226247D01*
X108588095Y-77226247D02*
X108588095Y-77464342D01*
X108588095Y-77464342D02*
X108635714Y-77559580D01*
X108635714Y-77559580D02*
X108683333Y-77607200D01*
X108683333Y-77607200D02*
X108778571Y-77654819D01*
X108778571Y-77654819D02*
X109064285Y-77654819D01*
X109064285Y-77654819D02*
X109159523Y-77607200D01*
X109159523Y-77607200D02*
X109207142Y-77559580D01*
X100554819Y-119057142D02*
X100078628Y-118723809D01*
X100554819Y-118485714D02*
X99554819Y-118485714D01*
X99554819Y-118485714D02*
X99554819Y-118866666D01*
X99554819Y-118866666D02*
X99602438Y-118961904D01*
X99602438Y-118961904D02*
X99650057Y-119009523D01*
X99650057Y-119009523D02*
X99745295Y-119057142D01*
X99745295Y-119057142D02*
X99888152Y-119057142D01*
X99888152Y-119057142D02*
X99983390Y-119009523D01*
X99983390Y-119009523D02*
X100031009Y-118961904D01*
X100031009Y-118961904D02*
X100078628Y-118866666D01*
X100078628Y-118866666D02*
X100078628Y-118485714D01*
X99888152Y-119914285D02*
X100554819Y-119914285D01*
X99507200Y-119676190D02*
X100221485Y-119438095D01*
X100221485Y-119438095D02*
X100221485Y-120057142D01*
X99983390Y-120580952D02*
X99935771Y-120485714D01*
X99935771Y-120485714D02*
X99888152Y-120438095D01*
X99888152Y-120438095D02*
X99792914Y-120390476D01*
X99792914Y-120390476D02*
X99745295Y-120390476D01*
X99745295Y-120390476D02*
X99650057Y-120438095D01*
X99650057Y-120438095D02*
X99602438Y-120485714D01*
X99602438Y-120485714D02*
X99554819Y-120580952D01*
X99554819Y-120580952D02*
X99554819Y-120771428D01*
X99554819Y-120771428D02*
X99602438Y-120866666D01*
X99602438Y-120866666D02*
X99650057Y-120914285D01*
X99650057Y-120914285D02*
X99745295Y-120961904D01*
X99745295Y-120961904D02*
X99792914Y-120961904D01*
X99792914Y-120961904D02*
X99888152Y-120914285D01*
X99888152Y-120914285D02*
X99935771Y-120866666D01*
X99935771Y-120866666D02*
X99983390Y-120771428D01*
X99983390Y-120771428D02*
X99983390Y-120580952D01*
X99983390Y-120580952D02*
X100031009Y-120485714D01*
X100031009Y-120485714D02*
X100078628Y-120438095D01*
X100078628Y-120438095D02*
X100173866Y-120390476D01*
X100173866Y-120390476D02*
X100364342Y-120390476D01*
X100364342Y-120390476D02*
X100459580Y-120438095D01*
X100459580Y-120438095D02*
X100507200Y-120485714D01*
X100507200Y-120485714D02*
X100554819Y-120580952D01*
X100554819Y-120580952D02*
X100554819Y-120771428D01*
X100554819Y-120771428D02*
X100507200Y-120866666D01*
X100507200Y-120866666D02*
X100459580Y-120914285D01*
X100459580Y-120914285D02*
X100364342Y-120961904D01*
X100364342Y-120961904D02*
X100173866Y-120961904D01*
X100173866Y-120961904D02*
X100078628Y-120914285D01*
X100078628Y-120914285D02*
X100031009Y-120866666D01*
X100031009Y-120866666D02*
X99983390Y-120771428D01*
X118866666Y-100704819D02*
X119342856Y-100704819D01*
X119342856Y-100704819D02*
X119342856Y-99704819D01*
X118580951Y-99800057D02*
X118533332Y-99752438D01*
X118533332Y-99752438D02*
X118438094Y-99704819D01*
X118438094Y-99704819D02*
X118199999Y-99704819D01*
X118199999Y-99704819D02*
X118104761Y-99752438D01*
X118104761Y-99752438D02*
X118057142Y-99800057D01*
X118057142Y-99800057D02*
X118009523Y-99895295D01*
X118009523Y-99895295D02*
X118009523Y-99990533D01*
X118009523Y-99990533D02*
X118057142Y-100133390D01*
X118057142Y-100133390D02*
X118628570Y-100704819D01*
X118628570Y-100704819D02*
X118009523Y-100704819D01*
X111804819Y-122757142D02*
X111328628Y-122423809D01*
X111804819Y-122185714D02*
X110804819Y-122185714D01*
X110804819Y-122185714D02*
X110804819Y-122566666D01*
X110804819Y-122566666D02*
X110852438Y-122661904D01*
X110852438Y-122661904D02*
X110900057Y-122709523D01*
X110900057Y-122709523D02*
X110995295Y-122757142D01*
X110995295Y-122757142D02*
X111138152Y-122757142D01*
X111138152Y-122757142D02*
X111233390Y-122709523D01*
X111233390Y-122709523D02*
X111281009Y-122661904D01*
X111281009Y-122661904D02*
X111328628Y-122566666D01*
X111328628Y-122566666D02*
X111328628Y-122185714D01*
X110900057Y-123138095D02*
X110852438Y-123185714D01*
X110852438Y-123185714D02*
X110804819Y-123280952D01*
X110804819Y-123280952D02*
X110804819Y-123519047D01*
X110804819Y-123519047D02*
X110852438Y-123614285D01*
X110852438Y-123614285D02*
X110900057Y-123661904D01*
X110900057Y-123661904D02*
X110995295Y-123709523D01*
X110995295Y-123709523D02*
X111090533Y-123709523D01*
X111090533Y-123709523D02*
X111233390Y-123661904D01*
X111233390Y-123661904D02*
X111804819Y-123090476D01*
X111804819Y-123090476D02*
X111804819Y-123709523D01*
X110900057Y-124090476D02*
X110852438Y-124138095D01*
X110852438Y-124138095D02*
X110804819Y-124233333D01*
X110804819Y-124233333D02*
X110804819Y-124471428D01*
X110804819Y-124471428D02*
X110852438Y-124566666D01*
X110852438Y-124566666D02*
X110900057Y-124614285D01*
X110900057Y-124614285D02*
X110995295Y-124661904D01*
X110995295Y-124661904D02*
X111090533Y-124661904D01*
X111090533Y-124661904D02*
X111233390Y-124614285D01*
X111233390Y-124614285D02*
X111804819Y-124042857D01*
X111804819Y-124042857D02*
X111804819Y-124661904D01*
X82359580Y-104857142D02*
X82407200Y-104809523D01*
X82407200Y-104809523D02*
X82454819Y-104666666D01*
X82454819Y-104666666D02*
X82454819Y-104571428D01*
X82454819Y-104571428D02*
X82407200Y-104428571D01*
X82407200Y-104428571D02*
X82311961Y-104333333D01*
X82311961Y-104333333D02*
X82216723Y-104285714D01*
X82216723Y-104285714D02*
X82026247Y-104238095D01*
X82026247Y-104238095D02*
X81883390Y-104238095D01*
X81883390Y-104238095D02*
X81692914Y-104285714D01*
X81692914Y-104285714D02*
X81597676Y-104333333D01*
X81597676Y-104333333D02*
X81502438Y-104428571D01*
X81502438Y-104428571D02*
X81454819Y-104571428D01*
X81454819Y-104571428D02*
X81454819Y-104666666D01*
X81454819Y-104666666D02*
X81502438Y-104809523D01*
X81502438Y-104809523D02*
X81550057Y-104857142D01*
X82454819Y-105809523D02*
X82454819Y-105238095D01*
X82454819Y-105523809D02*
X81454819Y-105523809D01*
X81454819Y-105523809D02*
X81597676Y-105428571D01*
X81597676Y-105428571D02*
X81692914Y-105333333D01*
X81692914Y-105333333D02*
X81740533Y-105238095D01*
X81883390Y-106380952D02*
X81835771Y-106285714D01*
X81835771Y-106285714D02*
X81788152Y-106238095D01*
X81788152Y-106238095D02*
X81692914Y-106190476D01*
X81692914Y-106190476D02*
X81645295Y-106190476D01*
X81645295Y-106190476D02*
X81550057Y-106238095D01*
X81550057Y-106238095D02*
X81502438Y-106285714D01*
X81502438Y-106285714D02*
X81454819Y-106380952D01*
X81454819Y-106380952D02*
X81454819Y-106571428D01*
X81454819Y-106571428D02*
X81502438Y-106666666D01*
X81502438Y-106666666D02*
X81550057Y-106714285D01*
X81550057Y-106714285D02*
X81645295Y-106761904D01*
X81645295Y-106761904D02*
X81692914Y-106761904D01*
X81692914Y-106761904D02*
X81788152Y-106714285D01*
X81788152Y-106714285D02*
X81835771Y-106666666D01*
X81835771Y-106666666D02*
X81883390Y-106571428D01*
X81883390Y-106571428D02*
X81883390Y-106380952D01*
X81883390Y-106380952D02*
X81931009Y-106285714D01*
X81931009Y-106285714D02*
X81978628Y-106238095D01*
X81978628Y-106238095D02*
X82073866Y-106190476D01*
X82073866Y-106190476D02*
X82264342Y-106190476D01*
X82264342Y-106190476D02*
X82359580Y-106238095D01*
X82359580Y-106238095D02*
X82407200Y-106285714D01*
X82407200Y-106285714D02*
X82454819Y-106380952D01*
X82454819Y-106380952D02*
X82454819Y-106571428D01*
X82454819Y-106571428D02*
X82407200Y-106666666D01*
X82407200Y-106666666D02*
X82359580Y-106714285D01*
X82359580Y-106714285D02*
X82264342Y-106761904D01*
X82264342Y-106761904D02*
X82073866Y-106761904D01*
X82073866Y-106761904D02*
X81978628Y-106714285D01*
X81978628Y-106714285D02*
X81931009Y-106666666D01*
X81931009Y-106666666D02*
X81883390Y-106571428D01*
X88742857Y-93559580D02*
X88790476Y-93607200D01*
X88790476Y-93607200D02*
X88933333Y-93654819D01*
X88933333Y-93654819D02*
X89028571Y-93654819D01*
X89028571Y-93654819D02*
X89171428Y-93607200D01*
X89171428Y-93607200D02*
X89266666Y-93511961D01*
X89266666Y-93511961D02*
X89314285Y-93416723D01*
X89314285Y-93416723D02*
X89361904Y-93226247D01*
X89361904Y-93226247D02*
X89361904Y-93083390D01*
X89361904Y-93083390D02*
X89314285Y-92892914D01*
X89314285Y-92892914D02*
X89266666Y-92797676D01*
X89266666Y-92797676D02*
X89171428Y-92702438D01*
X89171428Y-92702438D02*
X89028571Y-92654819D01*
X89028571Y-92654819D02*
X88933333Y-92654819D01*
X88933333Y-92654819D02*
X88790476Y-92702438D01*
X88790476Y-92702438D02*
X88742857Y-92750057D01*
X87790476Y-93654819D02*
X88361904Y-93654819D01*
X88076190Y-93654819D02*
X88076190Y-92654819D01*
X88076190Y-92654819D02*
X88171428Y-92797676D01*
X88171428Y-92797676D02*
X88266666Y-92892914D01*
X88266666Y-92892914D02*
X88361904Y-92940533D01*
X87314285Y-93654819D02*
X87123809Y-93654819D01*
X87123809Y-93654819D02*
X87028571Y-93607200D01*
X87028571Y-93607200D02*
X86980952Y-93559580D01*
X86980952Y-93559580D02*
X86885714Y-93416723D01*
X86885714Y-93416723D02*
X86838095Y-93226247D01*
X86838095Y-93226247D02*
X86838095Y-92845295D01*
X86838095Y-92845295D02*
X86885714Y-92750057D01*
X86885714Y-92750057D02*
X86933333Y-92702438D01*
X86933333Y-92702438D02*
X87028571Y-92654819D01*
X87028571Y-92654819D02*
X87219047Y-92654819D01*
X87219047Y-92654819D02*
X87314285Y-92702438D01*
X87314285Y-92702438D02*
X87361904Y-92750057D01*
X87361904Y-92750057D02*
X87409523Y-92845295D01*
X87409523Y-92845295D02*
X87409523Y-93083390D01*
X87409523Y-93083390D02*
X87361904Y-93178628D01*
X87361904Y-93178628D02*
X87314285Y-93226247D01*
X87314285Y-93226247D02*
X87219047Y-93273866D01*
X87219047Y-93273866D02*
X87028571Y-93273866D01*
X87028571Y-93273866D02*
X86933333Y-93226247D01*
X86933333Y-93226247D02*
X86885714Y-93178628D01*
X86885714Y-93178628D02*
X86838095Y-93083390D01*
X112854819Y-74157142D02*
X112378628Y-73823809D01*
X112854819Y-73585714D02*
X111854819Y-73585714D01*
X111854819Y-73585714D02*
X111854819Y-73966666D01*
X111854819Y-73966666D02*
X111902438Y-74061904D01*
X111902438Y-74061904D02*
X111950057Y-74109523D01*
X111950057Y-74109523D02*
X112045295Y-74157142D01*
X112045295Y-74157142D02*
X112188152Y-74157142D01*
X112188152Y-74157142D02*
X112283390Y-74109523D01*
X112283390Y-74109523D02*
X112331009Y-74061904D01*
X112331009Y-74061904D02*
X112378628Y-73966666D01*
X112378628Y-73966666D02*
X112378628Y-73585714D01*
X111854819Y-74490476D02*
X111854819Y-75109523D01*
X111854819Y-75109523D02*
X112235771Y-74776190D01*
X112235771Y-74776190D02*
X112235771Y-74919047D01*
X112235771Y-74919047D02*
X112283390Y-75014285D01*
X112283390Y-75014285D02*
X112331009Y-75061904D01*
X112331009Y-75061904D02*
X112426247Y-75109523D01*
X112426247Y-75109523D02*
X112664342Y-75109523D01*
X112664342Y-75109523D02*
X112759580Y-75061904D01*
X112759580Y-75061904D02*
X112807200Y-75014285D01*
X112807200Y-75014285D02*
X112854819Y-74919047D01*
X112854819Y-74919047D02*
X112854819Y-74633333D01*
X112854819Y-74633333D02*
X112807200Y-74538095D01*
X112807200Y-74538095D02*
X112759580Y-74490476D01*
X112854819Y-75585714D02*
X112854819Y-75776190D01*
X112854819Y-75776190D02*
X112807200Y-75871428D01*
X112807200Y-75871428D02*
X112759580Y-75919047D01*
X112759580Y-75919047D02*
X112616723Y-76014285D01*
X112616723Y-76014285D02*
X112426247Y-76061904D01*
X112426247Y-76061904D02*
X112045295Y-76061904D01*
X112045295Y-76061904D02*
X111950057Y-76014285D01*
X111950057Y-76014285D02*
X111902438Y-75966666D01*
X111902438Y-75966666D02*
X111854819Y-75871428D01*
X111854819Y-75871428D02*
X111854819Y-75680952D01*
X111854819Y-75680952D02*
X111902438Y-75585714D01*
X111902438Y-75585714D02*
X111950057Y-75538095D01*
X111950057Y-75538095D02*
X112045295Y-75490476D01*
X112045295Y-75490476D02*
X112283390Y-75490476D01*
X112283390Y-75490476D02*
X112378628Y-75538095D01*
X112378628Y-75538095D02*
X112426247Y-75585714D01*
X112426247Y-75585714D02*
X112473866Y-75680952D01*
X112473866Y-75680952D02*
X112473866Y-75871428D01*
X112473866Y-75871428D02*
X112426247Y-75966666D01*
X112426247Y-75966666D02*
X112378628Y-76014285D01*
X112378628Y-76014285D02*
X112283390Y-76061904D01*
X68242857Y-89504819D02*
X68576190Y-89028628D01*
X68814285Y-89504819D02*
X68814285Y-88504819D01*
X68814285Y-88504819D02*
X68433333Y-88504819D01*
X68433333Y-88504819D02*
X68338095Y-88552438D01*
X68338095Y-88552438D02*
X68290476Y-88600057D01*
X68290476Y-88600057D02*
X68242857Y-88695295D01*
X68242857Y-88695295D02*
X68242857Y-88838152D01*
X68242857Y-88838152D02*
X68290476Y-88933390D01*
X68290476Y-88933390D02*
X68338095Y-88981009D01*
X68338095Y-88981009D02*
X68433333Y-89028628D01*
X68433333Y-89028628D02*
X68814285Y-89028628D01*
X67338095Y-88504819D02*
X67814285Y-88504819D01*
X67814285Y-88504819D02*
X67861904Y-88981009D01*
X67861904Y-88981009D02*
X67814285Y-88933390D01*
X67814285Y-88933390D02*
X67719047Y-88885771D01*
X67719047Y-88885771D02*
X67480952Y-88885771D01*
X67480952Y-88885771D02*
X67385714Y-88933390D01*
X67385714Y-88933390D02*
X67338095Y-88981009D01*
X67338095Y-88981009D02*
X67290476Y-89076247D01*
X67290476Y-89076247D02*
X67290476Y-89314342D01*
X67290476Y-89314342D02*
X67338095Y-89409580D01*
X67338095Y-89409580D02*
X67385714Y-89457200D01*
X67385714Y-89457200D02*
X67480952Y-89504819D01*
X67480952Y-89504819D02*
X67719047Y-89504819D01*
X67719047Y-89504819D02*
X67814285Y-89457200D01*
X67814285Y-89457200D02*
X67861904Y-89409580D01*
X66909523Y-88600057D02*
X66861904Y-88552438D01*
X66861904Y-88552438D02*
X66766666Y-88504819D01*
X66766666Y-88504819D02*
X66528571Y-88504819D01*
X66528571Y-88504819D02*
X66433333Y-88552438D01*
X66433333Y-88552438D02*
X66385714Y-88600057D01*
X66385714Y-88600057D02*
X66338095Y-88695295D01*
X66338095Y-88695295D02*
X66338095Y-88790533D01*
X66338095Y-88790533D02*
X66385714Y-88933390D01*
X66385714Y-88933390D02*
X66957142Y-89504819D01*
X66957142Y-89504819D02*
X66338095Y-89504819D01*
X102842857Y-60554819D02*
X103176190Y-60078628D01*
X103414285Y-60554819D02*
X103414285Y-59554819D01*
X103414285Y-59554819D02*
X103033333Y-59554819D01*
X103033333Y-59554819D02*
X102938095Y-59602438D01*
X102938095Y-59602438D02*
X102890476Y-59650057D01*
X102890476Y-59650057D02*
X102842857Y-59745295D01*
X102842857Y-59745295D02*
X102842857Y-59888152D01*
X102842857Y-59888152D02*
X102890476Y-59983390D01*
X102890476Y-59983390D02*
X102938095Y-60031009D01*
X102938095Y-60031009D02*
X103033333Y-60078628D01*
X103033333Y-60078628D02*
X103414285Y-60078628D01*
X102461904Y-59650057D02*
X102414285Y-59602438D01*
X102414285Y-59602438D02*
X102319047Y-59554819D01*
X102319047Y-59554819D02*
X102080952Y-59554819D01*
X102080952Y-59554819D02*
X101985714Y-59602438D01*
X101985714Y-59602438D02*
X101938095Y-59650057D01*
X101938095Y-59650057D02*
X101890476Y-59745295D01*
X101890476Y-59745295D02*
X101890476Y-59840533D01*
X101890476Y-59840533D02*
X101938095Y-59983390D01*
X101938095Y-59983390D02*
X102509523Y-60554819D01*
X102509523Y-60554819D02*
X101890476Y-60554819D01*
X101414285Y-60554819D02*
X101223809Y-60554819D01*
X101223809Y-60554819D02*
X101128571Y-60507200D01*
X101128571Y-60507200D02*
X101080952Y-60459580D01*
X101080952Y-60459580D02*
X100985714Y-60316723D01*
X100985714Y-60316723D02*
X100938095Y-60126247D01*
X100938095Y-60126247D02*
X100938095Y-59745295D01*
X100938095Y-59745295D02*
X100985714Y-59650057D01*
X100985714Y-59650057D02*
X101033333Y-59602438D01*
X101033333Y-59602438D02*
X101128571Y-59554819D01*
X101128571Y-59554819D02*
X101319047Y-59554819D01*
X101319047Y-59554819D02*
X101414285Y-59602438D01*
X101414285Y-59602438D02*
X101461904Y-59650057D01*
X101461904Y-59650057D02*
X101509523Y-59745295D01*
X101509523Y-59745295D02*
X101509523Y-59983390D01*
X101509523Y-59983390D02*
X101461904Y-60078628D01*
X101461904Y-60078628D02*
X101414285Y-60126247D01*
X101414285Y-60126247D02*
X101319047Y-60173866D01*
X101319047Y-60173866D02*
X101128571Y-60173866D01*
X101128571Y-60173866D02*
X101033333Y-60126247D01*
X101033333Y-60126247D02*
X100985714Y-60078628D01*
X100985714Y-60078628D02*
X100938095Y-59983390D01*
X122895238Y-69150057D02*
X122990476Y-69102438D01*
X122990476Y-69102438D02*
X123085714Y-69007200D01*
X123085714Y-69007200D02*
X123228571Y-68864342D01*
X123228571Y-68864342D02*
X123323809Y-68816723D01*
X123323809Y-68816723D02*
X123419047Y-68816723D01*
X123371428Y-69054819D02*
X123466666Y-69007200D01*
X123466666Y-69007200D02*
X123561904Y-68911961D01*
X123561904Y-68911961D02*
X123609523Y-68721485D01*
X123609523Y-68721485D02*
X123609523Y-68388152D01*
X123609523Y-68388152D02*
X123561904Y-68197676D01*
X123561904Y-68197676D02*
X123466666Y-68102438D01*
X123466666Y-68102438D02*
X123371428Y-68054819D01*
X123371428Y-68054819D02*
X123180952Y-68054819D01*
X123180952Y-68054819D02*
X123085714Y-68102438D01*
X123085714Y-68102438D02*
X122990476Y-68197676D01*
X122990476Y-68197676D02*
X122942857Y-68388152D01*
X122942857Y-68388152D02*
X122942857Y-68721485D01*
X122942857Y-68721485D02*
X122990476Y-68911961D01*
X122990476Y-68911961D02*
X123085714Y-69007200D01*
X123085714Y-69007200D02*
X123180952Y-69054819D01*
X123180952Y-69054819D02*
X123371428Y-69054819D01*
X122085714Y-68054819D02*
X122276190Y-68054819D01*
X122276190Y-68054819D02*
X122371428Y-68102438D01*
X122371428Y-68102438D02*
X122419047Y-68150057D01*
X122419047Y-68150057D02*
X122514285Y-68292914D01*
X122514285Y-68292914D02*
X122561904Y-68483390D01*
X122561904Y-68483390D02*
X122561904Y-68864342D01*
X122561904Y-68864342D02*
X122514285Y-68959580D01*
X122514285Y-68959580D02*
X122466666Y-69007200D01*
X122466666Y-69007200D02*
X122371428Y-69054819D01*
X122371428Y-69054819D02*
X122180952Y-69054819D01*
X122180952Y-69054819D02*
X122085714Y-69007200D01*
X122085714Y-69007200D02*
X122038095Y-68959580D01*
X122038095Y-68959580D02*
X121990476Y-68864342D01*
X121990476Y-68864342D02*
X121990476Y-68626247D01*
X121990476Y-68626247D02*
X122038095Y-68531009D01*
X122038095Y-68531009D02*
X122085714Y-68483390D01*
X122085714Y-68483390D02*
X122180952Y-68435771D01*
X122180952Y-68435771D02*
X122371428Y-68435771D01*
X122371428Y-68435771D02*
X122466666Y-68483390D01*
X122466666Y-68483390D02*
X122514285Y-68531009D01*
X122514285Y-68531009D02*
X122561904Y-68626247D01*
X129638094Y-85454819D02*
X129638094Y-84454819D01*
X129638094Y-84454819D02*
X129399999Y-84454819D01*
X129399999Y-84454819D02*
X129257142Y-84502438D01*
X129257142Y-84502438D02*
X129161904Y-84597676D01*
X129161904Y-84597676D02*
X129114285Y-84692914D01*
X129114285Y-84692914D02*
X129066666Y-84883390D01*
X129066666Y-84883390D02*
X129066666Y-85026247D01*
X129066666Y-85026247D02*
X129114285Y-85216723D01*
X129114285Y-85216723D02*
X129161904Y-85311961D01*
X129161904Y-85311961D02*
X129257142Y-85407200D01*
X129257142Y-85407200D02*
X129399999Y-85454819D01*
X129399999Y-85454819D02*
X129638094Y-85454819D01*
X128495237Y-84883390D02*
X128590475Y-84835771D01*
X128590475Y-84835771D02*
X128638094Y-84788152D01*
X128638094Y-84788152D02*
X128685713Y-84692914D01*
X128685713Y-84692914D02*
X128685713Y-84645295D01*
X128685713Y-84645295D02*
X128638094Y-84550057D01*
X128638094Y-84550057D02*
X128590475Y-84502438D01*
X128590475Y-84502438D02*
X128495237Y-84454819D01*
X128495237Y-84454819D02*
X128304761Y-84454819D01*
X128304761Y-84454819D02*
X128209523Y-84502438D01*
X128209523Y-84502438D02*
X128161904Y-84550057D01*
X128161904Y-84550057D02*
X128114285Y-84645295D01*
X128114285Y-84645295D02*
X128114285Y-84692914D01*
X128114285Y-84692914D02*
X128161904Y-84788152D01*
X128161904Y-84788152D02*
X128209523Y-84835771D01*
X128209523Y-84835771D02*
X128304761Y-84883390D01*
X128304761Y-84883390D02*
X128495237Y-84883390D01*
X128495237Y-84883390D02*
X128590475Y-84931009D01*
X128590475Y-84931009D02*
X128638094Y-84978628D01*
X128638094Y-84978628D02*
X128685713Y-85073866D01*
X128685713Y-85073866D02*
X128685713Y-85264342D01*
X128685713Y-85264342D02*
X128638094Y-85359580D01*
X128638094Y-85359580D02*
X128590475Y-85407200D01*
X128590475Y-85407200D02*
X128495237Y-85454819D01*
X128495237Y-85454819D02*
X128304761Y-85454819D01*
X128304761Y-85454819D02*
X128209523Y-85407200D01*
X128209523Y-85407200D02*
X128161904Y-85359580D01*
X128161904Y-85359580D02*
X128114285Y-85264342D01*
X128114285Y-85264342D02*
X128114285Y-85073866D01*
X128114285Y-85073866D02*
X128161904Y-84978628D01*
X128161904Y-84978628D02*
X128209523Y-84931009D01*
X128209523Y-84931009D02*
X128304761Y-84883390D01*
X85159580Y-104857142D02*
X85207200Y-104809523D01*
X85207200Y-104809523D02*
X85254819Y-104666666D01*
X85254819Y-104666666D02*
X85254819Y-104571428D01*
X85254819Y-104571428D02*
X85207200Y-104428571D01*
X85207200Y-104428571D02*
X85111961Y-104333333D01*
X85111961Y-104333333D02*
X85016723Y-104285714D01*
X85016723Y-104285714D02*
X84826247Y-104238095D01*
X84826247Y-104238095D02*
X84683390Y-104238095D01*
X84683390Y-104238095D02*
X84492914Y-104285714D01*
X84492914Y-104285714D02*
X84397676Y-104333333D01*
X84397676Y-104333333D02*
X84302438Y-104428571D01*
X84302438Y-104428571D02*
X84254819Y-104571428D01*
X84254819Y-104571428D02*
X84254819Y-104666666D01*
X84254819Y-104666666D02*
X84302438Y-104809523D01*
X84302438Y-104809523D02*
X84350057Y-104857142D01*
X85254819Y-105809523D02*
X85254819Y-105238095D01*
X85254819Y-105523809D02*
X84254819Y-105523809D01*
X84254819Y-105523809D02*
X84397676Y-105428571D01*
X84397676Y-105428571D02*
X84492914Y-105333333D01*
X84492914Y-105333333D02*
X84540533Y-105238095D01*
X84254819Y-106666666D02*
X84254819Y-106476190D01*
X84254819Y-106476190D02*
X84302438Y-106380952D01*
X84302438Y-106380952D02*
X84350057Y-106333333D01*
X84350057Y-106333333D02*
X84492914Y-106238095D01*
X84492914Y-106238095D02*
X84683390Y-106190476D01*
X84683390Y-106190476D02*
X85064342Y-106190476D01*
X85064342Y-106190476D02*
X85159580Y-106238095D01*
X85159580Y-106238095D02*
X85207200Y-106285714D01*
X85207200Y-106285714D02*
X85254819Y-106380952D01*
X85254819Y-106380952D02*
X85254819Y-106571428D01*
X85254819Y-106571428D02*
X85207200Y-106666666D01*
X85207200Y-106666666D02*
X85159580Y-106714285D01*
X85159580Y-106714285D02*
X85064342Y-106761904D01*
X85064342Y-106761904D02*
X84826247Y-106761904D01*
X84826247Y-106761904D02*
X84731009Y-106714285D01*
X84731009Y-106714285D02*
X84683390Y-106666666D01*
X84683390Y-106666666D02*
X84635771Y-106571428D01*
X84635771Y-106571428D02*
X84635771Y-106380952D01*
X84635771Y-106380952D02*
X84683390Y-106285714D01*
X84683390Y-106285714D02*
X84731009Y-106238095D01*
X84731009Y-106238095D02*
X84826247Y-106190476D01*
X75742857Y-94754819D02*
X76076190Y-94278628D01*
X76314285Y-94754819D02*
X76314285Y-93754819D01*
X76314285Y-93754819D02*
X75933333Y-93754819D01*
X75933333Y-93754819D02*
X75838095Y-93802438D01*
X75838095Y-93802438D02*
X75790476Y-93850057D01*
X75790476Y-93850057D02*
X75742857Y-93945295D01*
X75742857Y-93945295D02*
X75742857Y-94088152D01*
X75742857Y-94088152D02*
X75790476Y-94183390D01*
X75790476Y-94183390D02*
X75838095Y-94231009D01*
X75838095Y-94231009D02*
X75933333Y-94278628D01*
X75933333Y-94278628D02*
X76314285Y-94278628D01*
X74790476Y-94754819D02*
X75361904Y-94754819D01*
X75076190Y-94754819D02*
X75076190Y-93754819D01*
X75076190Y-93754819D02*
X75171428Y-93897676D01*
X75171428Y-93897676D02*
X75266666Y-93992914D01*
X75266666Y-93992914D02*
X75361904Y-94040533D01*
X74314285Y-94754819D02*
X74123809Y-94754819D01*
X74123809Y-94754819D02*
X74028571Y-94707200D01*
X74028571Y-94707200D02*
X73980952Y-94659580D01*
X73980952Y-94659580D02*
X73885714Y-94516723D01*
X73885714Y-94516723D02*
X73838095Y-94326247D01*
X73838095Y-94326247D02*
X73838095Y-93945295D01*
X73838095Y-93945295D02*
X73885714Y-93850057D01*
X73885714Y-93850057D02*
X73933333Y-93802438D01*
X73933333Y-93802438D02*
X74028571Y-93754819D01*
X74028571Y-93754819D02*
X74219047Y-93754819D01*
X74219047Y-93754819D02*
X74314285Y-93802438D01*
X74314285Y-93802438D02*
X74361904Y-93850057D01*
X74361904Y-93850057D02*
X74409523Y-93945295D01*
X74409523Y-93945295D02*
X74409523Y-94183390D01*
X74409523Y-94183390D02*
X74361904Y-94278628D01*
X74361904Y-94278628D02*
X74314285Y-94326247D01*
X74314285Y-94326247D02*
X74219047Y-94373866D01*
X74219047Y-94373866D02*
X74028571Y-94373866D01*
X74028571Y-94373866D02*
X73933333Y-94326247D01*
X73933333Y-94326247D02*
X73885714Y-94278628D01*
X73885714Y-94278628D02*
X73838095Y-94183390D01*
X128845238Y-78500057D02*
X128940476Y-78452438D01*
X128940476Y-78452438D02*
X129035714Y-78357200D01*
X129035714Y-78357200D02*
X129178571Y-78214342D01*
X129178571Y-78214342D02*
X129273809Y-78166723D01*
X129273809Y-78166723D02*
X129369047Y-78166723D01*
X129321428Y-78404819D02*
X129416666Y-78357200D01*
X129416666Y-78357200D02*
X129511904Y-78261961D01*
X129511904Y-78261961D02*
X129559523Y-78071485D01*
X129559523Y-78071485D02*
X129559523Y-77738152D01*
X129559523Y-77738152D02*
X129511904Y-77547676D01*
X129511904Y-77547676D02*
X129416666Y-77452438D01*
X129416666Y-77452438D02*
X129321428Y-77404819D01*
X129321428Y-77404819D02*
X129130952Y-77404819D01*
X129130952Y-77404819D02*
X129035714Y-77452438D01*
X129035714Y-77452438D02*
X128940476Y-77547676D01*
X128940476Y-77547676D02*
X128892857Y-77738152D01*
X128892857Y-77738152D02*
X128892857Y-78071485D01*
X128892857Y-78071485D02*
X128940476Y-78261961D01*
X128940476Y-78261961D02*
X129035714Y-78357200D01*
X129035714Y-78357200D02*
X129130952Y-78404819D01*
X129130952Y-78404819D02*
X129321428Y-78404819D01*
X128035714Y-77738152D02*
X128035714Y-78404819D01*
X128273809Y-77357200D02*
X128511904Y-78071485D01*
X128511904Y-78071485D02*
X127892857Y-78071485D01*
X102542857Y-71154819D02*
X102876190Y-70678628D01*
X103114285Y-71154819D02*
X103114285Y-70154819D01*
X103114285Y-70154819D02*
X102733333Y-70154819D01*
X102733333Y-70154819D02*
X102638095Y-70202438D01*
X102638095Y-70202438D02*
X102590476Y-70250057D01*
X102590476Y-70250057D02*
X102542857Y-70345295D01*
X102542857Y-70345295D02*
X102542857Y-70488152D01*
X102542857Y-70488152D02*
X102590476Y-70583390D01*
X102590476Y-70583390D02*
X102638095Y-70631009D01*
X102638095Y-70631009D02*
X102733333Y-70678628D01*
X102733333Y-70678628D02*
X103114285Y-70678628D01*
X102209523Y-70154819D02*
X101590476Y-70154819D01*
X101590476Y-70154819D02*
X101923809Y-70535771D01*
X101923809Y-70535771D02*
X101780952Y-70535771D01*
X101780952Y-70535771D02*
X101685714Y-70583390D01*
X101685714Y-70583390D02*
X101638095Y-70631009D01*
X101638095Y-70631009D02*
X101590476Y-70726247D01*
X101590476Y-70726247D02*
X101590476Y-70964342D01*
X101590476Y-70964342D02*
X101638095Y-71059580D01*
X101638095Y-71059580D02*
X101685714Y-71107200D01*
X101685714Y-71107200D02*
X101780952Y-71154819D01*
X101780952Y-71154819D02*
X102066666Y-71154819D01*
X102066666Y-71154819D02*
X102161904Y-71107200D01*
X102161904Y-71107200D02*
X102209523Y-71059580D01*
X100971428Y-70154819D02*
X100876190Y-70154819D01*
X100876190Y-70154819D02*
X100780952Y-70202438D01*
X100780952Y-70202438D02*
X100733333Y-70250057D01*
X100733333Y-70250057D02*
X100685714Y-70345295D01*
X100685714Y-70345295D02*
X100638095Y-70535771D01*
X100638095Y-70535771D02*
X100638095Y-70773866D01*
X100638095Y-70773866D02*
X100685714Y-70964342D01*
X100685714Y-70964342D02*
X100733333Y-71059580D01*
X100733333Y-71059580D02*
X100780952Y-71107200D01*
X100780952Y-71107200D02*
X100876190Y-71154819D01*
X100876190Y-71154819D02*
X100971428Y-71154819D01*
X100971428Y-71154819D02*
X101066666Y-71107200D01*
X101066666Y-71107200D02*
X101114285Y-71059580D01*
X101114285Y-71059580D02*
X101161904Y-70964342D01*
X101161904Y-70964342D02*
X101209523Y-70773866D01*
X101209523Y-70773866D02*
X101209523Y-70535771D01*
X101209523Y-70535771D02*
X101161904Y-70345295D01*
X101161904Y-70345295D02*
X101114285Y-70250057D01*
X101114285Y-70250057D02*
X101066666Y-70202438D01*
X101066666Y-70202438D02*
X100971428Y-70154819D01*
X123638094Y-66754819D02*
X123638094Y-65754819D01*
X123638094Y-65754819D02*
X123399999Y-65754819D01*
X123399999Y-65754819D02*
X123257142Y-65802438D01*
X123257142Y-65802438D02*
X123161904Y-65897676D01*
X123161904Y-65897676D02*
X123114285Y-65992914D01*
X123114285Y-65992914D02*
X123066666Y-66183390D01*
X123066666Y-66183390D02*
X123066666Y-66326247D01*
X123066666Y-66326247D02*
X123114285Y-66516723D01*
X123114285Y-66516723D02*
X123161904Y-66611961D01*
X123161904Y-66611961D02*
X123257142Y-66707200D01*
X123257142Y-66707200D02*
X123399999Y-66754819D01*
X123399999Y-66754819D02*
X123638094Y-66754819D01*
X122590475Y-66754819D02*
X122399999Y-66754819D01*
X122399999Y-66754819D02*
X122304761Y-66707200D01*
X122304761Y-66707200D02*
X122257142Y-66659580D01*
X122257142Y-66659580D02*
X122161904Y-66516723D01*
X122161904Y-66516723D02*
X122114285Y-66326247D01*
X122114285Y-66326247D02*
X122114285Y-65945295D01*
X122114285Y-65945295D02*
X122161904Y-65850057D01*
X122161904Y-65850057D02*
X122209523Y-65802438D01*
X122209523Y-65802438D02*
X122304761Y-65754819D01*
X122304761Y-65754819D02*
X122495237Y-65754819D01*
X122495237Y-65754819D02*
X122590475Y-65802438D01*
X122590475Y-65802438D02*
X122638094Y-65850057D01*
X122638094Y-65850057D02*
X122685713Y-65945295D01*
X122685713Y-65945295D02*
X122685713Y-66183390D01*
X122685713Y-66183390D02*
X122638094Y-66278628D01*
X122638094Y-66278628D02*
X122590475Y-66326247D01*
X122590475Y-66326247D02*
X122495237Y-66373866D01*
X122495237Y-66373866D02*
X122304761Y-66373866D01*
X122304761Y-66373866D02*
X122209523Y-66326247D01*
X122209523Y-66326247D02*
X122161904Y-66278628D01*
X122161904Y-66278628D02*
X122114285Y-66183390D01*
X75692857Y-96659580D02*
X75740476Y-96707200D01*
X75740476Y-96707200D02*
X75883333Y-96754819D01*
X75883333Y-96754819D02*
X75978571Y-96754819D01*
X75978571Y-96754819D02*
X76121428Y-96707200D01*
X76121428Y-96707200D02*
X76216666Y-96611961D01*
X76216666Y-96611961D02*
X76264285Y-96516723D01*
X76264285Y-96516723D02*
X76311904Y-96326247D01*
X76311904Y-96326247D02*
X76311904Y-96183390D01*
X76311904Y-96183390D02*
X76264285Y-95992914D01*
X76264285Y-95992914D02*
X76216666Y-95897676D01*
X76216666Y-95897676D02*
X76121428Y-95802438D01*
X76121428Y-95802438D02*
X75978571Y-95754819D01*
X75978571Y-95754819D02*
X75883333Y-95754819D01*
X75883333Y-95754819D02*
X75740476Y-95802438D01*
X75740476Y-95802438D02*
X75692857Y-95850057D01*
X74740476Y-96754819D02*
X75311904Y-96754819D01*
X75026190Y-96754819D02*
X75026190Y-95754819D01*
X75026190Y-95754819D02*
X75121428Y-95897676D01*
X75121428Y-95897676D02*
X75216666Y-95992914D01*
X75216666Y-95992914D02*
X75311904Y-96040533D01*
X73835714Y-95754819D02*
X74311904Y-95754819D01*
X74311904Y-95754819D02*
X74359523Y-96231009D01*
X74359523Y-96231009D02*
X74311904Y-96183390D01*
X74311904Y-96183390D02*
X74216666Y-96135771D01*
X74216666Y-96135771D02*
X73978571Y-96135771D01*
X73978571Y-96135771D02*
X73883333Y-96183390D01*
X73883333Y-96183390D02*
X73835714Y-96231009D01*
X73835714Y-96231009D02*
X73788095Y-96326247D01*
X73788095Y-96326247D02*
X73788095Y-96564342D01*
X73788095Y-96564342D02*
X73835714Y-96659580D01*
X73835714Y-96659580D02*
X73883333Y-96707200D01*
X73883333Y-96707200D02*
X73978571Y-96754819D01*
X73978571Y-96754819D02*
X74216666Y-96754819D01*
X74216666Y-96754819D02*
X74311904Y-96707200D01*
X74311904Y-96707200D02*
X74359523Y-96659580D01*
X117854819Y-92807142D02*
X117378628Y-92473809D01*
X117854819Y-92235714D02*
X116854819Y-92235714D01*
X116854819Y-92235714D02*
X116854819Y-92616666D01*
X116854819Y-92616666D02*
X116902438Y-92711904D01*
X116902438Y-92711904D02*
X116950057Y-92759523D01*
X116950057Y-92759523D02*
X117045295Y-92807142D01*
X117045295Y-92807142D02*
X117188152Y-92807142D01*
X117188152Y-92807142D02*
X117283390Y-92759523D01*
X117283390Y-92759523D02*
X117331009Y-92711904D01*
X117331009Y-92711904D02*
X117378628Y-92616666D01*
X117378628Y-92616666D02*
X117378628Y-92235714D01*
X117188152Y-93664285D02*
X117854819Y-93664285D01*
X116807200Y-93426190D02*
X117521485Y-93188095D01*
X117521485Y-93188095D02*
X117521485Y-93807142D01*
X116854819Y-94616666D02*
X116854819Y-94426190D01*
X116854819Y-94426190D02*
X116902438Y-94330952D01*
X116902438Y-94330952D02*
X116950057Y-94283333D01*
X116950057Y-94283333D02*
X117092914Y-94188095D01*
X117092914Y-94188095D02*
X117283390Y-94140476D01*
X117283390Y-94140476D02*
X117664342Y-94140476D01*
X117664342Y-94140476D02*
X117759580Y-94188095D01*
X117759580Y-94188095D02*
X117807200Y-94235714D01*
X117807200Y-94235714D02*
X117854819Y-94330952D01*
X117854819Y-94330952D02*
X117854819Y-94521428D01*
X117854819Y-94521428D02*
X117807200Y-94616666D01*
X117807200Y-94616666D02*
X117759580Y-94664285D01*
X117759580Y-94664285D02*
X117664342Y-94711904D01*
X117664342Y-94711904D02*
X117426247Y-94711904D01*
X117426247Y-94711904D02*
X117331009Y-94664285D01*
X117331009Y-94664285D02*
X117283390Y-94616666D01*
X117283390Y-94616666D02*
X117235771Y-94521428D01*
X117235771Y-94521428D02*
X117235771Y-94330952D01*
X117235771Y-94330952D02*
X117283390Y-94235714D01*
X117283390Y-94235714D02*
X117331009Y-94188095D01*
X117331009Y-94188095D02*
X117426247Y-94140476D01*
X113759580Y-122807142D02*
X113807200Y-122759523D01*
X113807200Y-122759523D02*
X113854819Y-122616666D01*
X113854819Y-122616666D02*
X113854819Y-122521428D01*
X113854819Y-122521428D02*
X113807200Y-122378571D01*
X113807200Y-122378571D02*
X113711961Y-122283333D01*
X113711961Y-122283333D02*
X113616723Y-122235714D01*
X113616723Y-122235714D02*
X113426247Y-122188095D01*
X113426247Y-122188095D02*
X113283390Y-122188095D01*
X113283390Y-122188095D02*
X113092914Y-122235714D01*
X113092914Y-122235714D02*
X112997676Y-122283333D01*
X112997676Y-122283333D02*
X112902438Y-122378571D01*
X112902438Y-122378571D02*
X112854819Y-122521428D01*
X112854819Y-122521428D02*
X112854819Y-122616666D01*
X112854819Y-122616666D02*
X112902438Y-122759523D01*
X112902438Y-122759523D02*
X112950057Y-122807142D01*
X112950057Y-123188095D02*
X112902438Y-123235714D01*
X112902438Y-123235714D02*
X112854819Y-123330952D01*
X112854819Y-123330952D02*
X112854819Y-123569047D01*
X112854819Y-123569047D02*
X112902438Y-123664285D01*
X112902438Y-123664285D02*
X112950057Y-123711904D01*
X112950057Y-123711904D02*
X113045295Y-123759523D01*
X113045295Y-123759523D02*
X113140533Y-123759523D01*
X113140533Y-123759523D02*
X113283390Y-123711904D01*
X113283390Y-123711904D02*
X113854819Y-123140476D01*
X113854819Y-123140476D02*
X113854819Y-123759523D01*
X113854819Y-124711904D02*
X113854819Y-124140476D01*
X113854819Y-124426190D02*
X112854819Y-124426190D01*
X112854819Y-124426190D02*
X112997676Y-124330952D01*
X112997676Y-124330952D02*
X113092914Y-124235714D01*
X113092914Y-124235714D02*
X113140533Y-124140476D01*
D11*
%TO.C,R45*%
X116585000Y-84377064D02*
X116585000Y-83922936D01*
X115115000Y-84377064D02*
X115115000Y-83922936D01*
%TO.C,R20*%
X121935000Y-121272936D02*
X121935000Y-121727064D01*
X120465000Y-121272936D02*
X120465000Y-121727064D01*
%TO.C,D14*%
X109850000Y-82590000D02*
X109200000Y-82590000D01*
X109850000Y-82590000D02*
X110500000Y-82590000D01*
X109850000Y-85710000D02*
X110500000Y-85710000D01*
X109850000Y-85710000D02*
X108175000Y-85710000D01*
%TO.C,C25*%
X113061748Y-113655000D02*
X113584252Y-113655000D01*
X113061748Y-112185000D02*
X113584252Y-112185000D01*
%TO.C,R49*%
X97265000Y-122522936D02*
X97265000Y-122977064D01*
X98735000Y-122522936D02*
X98735000Y-122977064D01*
%TO.C,R50*%
X96785000Y-122522936D02*
X96785000Y-122977064D01*
X95315000Y-122522936D02*
X95315000Y-122977064D01*
%TO.C,Q3*%
X127050000Y-65790000D02*
X127700000Y-65790000D01*
X127050000Y-65790000D02*
X126400000Y-65790000D01*
X127050000Y-68910000D02*
X125375000Y-68910000D01*
X127050000Y-68910000D02*
X127700000Y-68910000D01*
%TO.C,C22*%
X117961252Y-113535000D02*
X117438748Y-113535000D01*
X117961252Y-112065000D02*
X117438748Y-112065000D01*
%TO.C,R35*%
X113165000Y-65222936D02*
X113165000Y-65677064D01*
X114635000Y-65222936D02*
X114635000Y-65677064D01*
%TO.C,R2*%
X73372936Y-62335000D02*
X73827064Y-62335000D01*
X73372936Y-60865000D02*
X73827064Y-60865000D01*
%TO.C,R47*%
X104835000Y-122522936D02*
X104835000Y-122977064D01*
X103365000Y-122522936D02*
X103365000Y-122977064D01*
D12*
%TO.C,U6*%
X116135000Y-119080500D02*
X116135000Y-120680500D01*
X119265000Y-119080500D02*
X119265000Y-120680500D01*
D13*
X116854000Y-117480500D02*
G75*
G02*
X116654000Y-117480500I-100000J0D01*
G01*
X116654000Y-117480500D02*
G75*
G02*
X116854000Y-117480500I100000J0D01*
G01*
D14*
%TO.C,D10*%
X122932000Y-74766000D02*
X118360000Y-74766000D01*
X118106000Y-74766000D02*
X118106000Y-72734000D01*
X118360000Y-74766000D02*
X118360000Y-72734000D01*
X118360000Y-72734000D02*
X122932000Y-72734000D01*
D11*
%TO.C,Q5*%
X127050000Y-84490000D02*
X126400000Y-84490000D01*
X127050000Y-84490000D02*
X127700000Y-84490000D01*
X127050000Y-87610000D02*
X125375000Y-87610000D01*
X127050000Y-87610000D02*
X127700000Y-87610000D01*
%TO.C,R18*%
X77972936Y-93035000D02*
X78427064Y-93035000D01*
X77972936Y-91565000D02*
X78427064Y-91565000D01*
D14*
%TO.C,D6*%
X124460000Y-65466000D02*
X124460000Y-63434000D01*
X129032000Y-65466000D02*
X124460000Y-65466000D01*
X124206000Y-65466000D02*
X124206000Y-63434000D01*
X124460000Y-63434000D02*
X129032000Y-63434000D01*
D11*
%TO.C,R41*%
X114635000Y-83922936D02*
X114635000Y-84377064D01*
X113165000Y-83922936D02*
X113165000Y-84377064D01*
%TO.C,R32*%
X104972936Y-61265000D02*
X105427064Y-61265000D01*
X104972936Y-62735000D02*
X105427064Y-62735000D01*
%TO.C,R31*%
X104572936Y-75765000D02*
X105027064Y-75765000D01*
X104572936Y-77235000D02*
X105027064Y-77235000D01*
%TO.C,R33*%
X104672936Y-73135000D02*
X105127064Y-73135000D01*
X104672936Y-71665000D02*
X105127064Y-71665000D01*
%TO.C,Q7*%
X121000000Y-75090000D02*
X121650000Y-75090000D01*
X121000000Y-78210000D02*
X119325000Y-78210000D01*
X121000000Y-78210000D02*
X121650000Y-78210000D01*
X121000000Y-75090000D02*
X120350000Y-75090000D01*
%TO.C,R34*%
X104572936Y-79135000D02*
X105027064Y-79135000D01*
X104572936Y-77665000D02*
X105027064Y-77665000D01*
%TO.C,C24*%
X117961252Y-115567000D02*
X117438748Y-115567000D01*
X117961252Y-114097000D02*
X117438748Y-114097000D01*
%TO.C,C26*%
X113061748Y-110026000D02*
X113584252Y-110026000D01*
X113061748Y-111496000D02*
X113584252Y-111496000D01*
%TO.C,C23*%
X117961252Y-111503000D02*
X117438748Y-111503000D01*
X117961252Y-110033000D02*
X117438748Y-110033000D01*
D14*
%TO.C,L1*%
X97090000Y-94393600D02*
X97090000Y-102013600D01*
X97090000Y-102013600D02*
X95362800Y-102013600D01*
X95362800Y-94393600D02*
X97090000Y-94393600D01*
X89470000Y-94393600D02*
X91197200Y-94393600D01*
X89470000Y-102013600D02*
X89470000Y-94393600D01*
X91197200Y-102013600D02*
X89470000Y-102013600D01*
D11*
%TO.C,C17*%
X86244000Y-100569852D02*
X86244000Y-100047348D01*
X84774000Y-100569852D02*
X84774000Y-100047348D01*
D12*
%TO.C,U5*%
X78974500Y-98743600D02*
X77374500Y-98743600D01*
X78974500Y-101873600D02*
X77374500Y-101873600D01*
D13*
X80674500Y-99362600D02*
G75*
G02*
X80474500Y-99362600I-100000J0D01*
G01*
X80474500Y-99362600D02*
G75*
G02*
X80674500Y-99362600I100000J0D01*
G01*
D11*
%TO.C,Q8*%
X121000000Y-84390000D02*
X120350000Y-84390000D01*
X121000000Y-87510000D02*
X119325000Y-87510000D01*
X121000000Y-84390000D02*
X121650000Y-84390000D01*
X121000000Y-87510000D02*
X121650000Y-87510000D01*
%TO.C,R17*%
X73165000Y-99027064D02*
X73165000Y-98572936D01*
X74635000Y-99027064D02*
X74635000Y-98572936D01*
D14*
%TO.C,D7*%
X124460000Y-72784000D02*
X129032000Y-72784000D01*
X129032000Y-74816000D02*
X124460000Y-74816000D01*
X124206000Y-74816000D02*
X124206000Y-72784000D01*
X124460000Y-74816000D02*
X124460000Y-72784000D01*
D11*
%TO.C,R51*%
X67372936Y-85335000D02*
X67827064Y-85335000D01*
X67372936Y-83865000D02*
X67827064Y-83865000D01*
%TO.C,R3*%
X73372936Y-64335000D02*
X73827064Y-64335000D01*
X73372936Y-62865000D02*
X73827064Y-62865000D01*
%TO.C,R44*%
X116585000Y-75027064D02*
X116585000Y-74572936D01*
X115115000Y-75027064D02*
X115115000Y-74572936D01*
%TO.C,R37*%
X115115000Y-65677064D02*
X115115000Y-65222936D01*
X116585000Y-65677064D02*
X116585000Y-65222936D01*
%TO.C,R21*%
X110285000Y-120652064D02*
X110285000Y-120197936D01*
X108815000Y-120652064D02*
X108815000Y-120197936D01*
%TO.C,R43*%
X114635000Y-93222936D02*
X114635000Y-93677064D01*
X113165000Y-93222936D02*
X113165000Y-93677064D01*
%TO.C,C20*%
X84745000Y-95342348D02*
X84745000Y-95864852D01*
X86215000Y-95342348D02*
X86215000Y-95864852D01*
%TO.C,D12*%
X109850000Y-63890000D02*
X110500000Y-63890000D01*
X109850000Y-67010000D02*
X110500000Y-67010000D01*
X109850000Y-67010000D02*
X108175000Y-67010000D01*
X109850000Y-63890000D02*
X109200000Y-63890000D01*
D14*
%TO.C,D11*%
X122932000Y-84116000D02*
X118360000Y-84116000D01*
X118106000Y-84116000D02*
X118106000Y-82084000D01*
X118360000Y-84116000D02*
X118360000Y-82084000D01*
X118360000Y-82084000D02*
X122932000Y-82084000D01*
D11*
%TO.C,D15*%
X109850000Y-95010000D02*
X108175000Y-95010000D01*
X109850000Y-95010000D02*
X110500000Y-95010000D01*
X109850000Y-91890000D02*
X109200000Y-91890000D01*
X109850000Y-91890000D02*
X110500000Y-91890000D01*
%TO.C,D13*%
X109850000Y-76360000D02*
X108175000Y-76360000D01*
X109850000Y-73240000D02*
X110500000Y-73240000D01*
X109850000Y-73240000D02*
X109200000Y-73240000D01*
X109850000Y-76360000D02*
X110500000Y-76360000D01*
%TO.C,R48*%
X99365000Y-122522936D02*
X99365000Y-122977064D01*
X100835000Y-122522936D02*
X100835000Y-122977064D01*
D14*
%TO.C,L2*%
X111713000Y-101310000D02*
X119333000Y-101310000D01*
X111713000Y-108930000D02*
X111713000Y-107202800D01*
X119333000Y-108930000D02*
X111713000Y-108930000D01*
X119333000Y-101310000D02*
X119333000Y-103037200D01*
X111713000Y-103037200D02*
X111713000Y-101310000D01*
X119333000Y-107202800D02*
X119333000Y-108930000D01*
D11*
%TO.C,R22*%
X112085000Y-120647064D02*
X112085000Y-120192936D01*
X110615000Y-120647064D02*
X110615000Y-120192936D01*
%TO.C,C18*%
X82742000Y-100569852D02*
X82742000Y-100047348D01*
X84212000Y-100569852D02*
X84212000Y-100047348D01*
%TO.C,C19*%
X88247000Y-95342348D02*
X88247000Y-95864852D01*
X86777000Y-95342348D02*
X86777000Y-95864852D01*
%TO.C,R39*%
X114635000Y-74572936D02*
X114635000Y-75027064D01*
X113165000Y-74572936D02*
X113165000Y-75027064D01*
%TO.C,R52*%
X67372936Y-88135000D02*
X67827064Y-88135000D01*
X67372936Y-86665000D02*
X67827064Y-86665000D01*
%TO.C,R29*%
X104972936Y-60835000D02*
X105427064Y-60835000D01*
X104972936Y-59365000D02*
X105427064Y-59365000D01*
%TO.C,Q6*%
X120950000Y-65790000D02*
X120300000Y-65790000D01*
X120950000Y-65790000D02*
X121600000Y-65790000D01*
X120950000Y-68910000D02*
X121600000Y-68910000D01*
X120950000Y-68910000D02*
X119275000Y-68910000D01*
D14*
%TO.C,D8*%
X129032000Y-84166000D02*
X124460000Y-84166000D01*
X124460000Y-82134000D02*
X129032000Y-82134000D01*
X124460000Y-84166000D02*
X124460000Y-82134000D01*
X124206000Y-84166000D02*
X124206000Y-82134000D01*
D11*
%TO.C,C16*%
X88276000Y-100569852D02*
X88276000Y-100047348D01*
X86806000Y-100569852D02*
X86806000Y-100047348D01*
%TO.C,R19*%
X77972936Y-93565000D02*
X78427064Y-93565000D01*
X77972936Y-95035000D02*
X78427064Y-95035000D01*
%TO.C,Q4*%
X127036700Y-78210000D02*
X125361700Y-78210000D01*
X127036700Y-75090000D02*
X126386700Y-75090000D01*
X127036700Y-78210000D02*
X127686700Y-78210000D01*
X127036700Y-75090000D02*
X127686700Y-75090000D01*
%TO.C,R30*%
X104672936Y-71235000D02*
X105127064Y-71235000D01*
X104672936Y-69765000D02*
X105127064Y-69765000D01*
D14*
%TO.C,D9*%
X118106000Y-65466000D02*
X118106000Y-63434000D01*
X122932000Y-65466000D02*
X118360000Y-65466000D01*
X118360000Y-63434000D02*
X122932000Y-63434000D01*
X118360000Y-65466000D02*
X118360000Y-63434000D01*
D11*
%TO.C,C15*%
X77938748Y-95565000D02*
X78461252Y-95565000D01*
X77938748Y-97035000D02*
X78461252Y-97035000D01*
%TO.C,R46*%
X115115000Y-93677064D02*
X115115000Y-93222936D01*
X116585000Y-93677064D02*
X116585000Y-93222936D01*
%TO.C,C21*%
X112647000Y-120681252D02*
X112647000Y-120158748D01*
X114117000Y-120681252D02*
X114117000Y-120158748D01*
%TD*%
M02*
